<svg xmlns="http://www.w3.org/2000/svg" viewBox="0 0 293.4 98.48"><defs><style>.cls-1{fill:#161616;}.cls-2{fill:#ef509c;}.cls-3{fill:#1ad8a2;}.cls-4{fill:#fff575;}</style></defs><title>cryptoparty2</title><g id="Layer_6" data-name="Layer 6"><path class="cls-1" d="M57.13,165.26c-3,2.1-1.36,13.59,2.41,14.5,4.32,1,4.84,2.33,5.6,6.39s9.72,75.76,61.81,68.67c59.29-5.21,54.59-50.26,72.12-50.26,7.32-1.68,14.2,15.16,17,22.21s16.59,33.09,60.94,30.61,58.74-63.17,61.43-69.6c3.57-8.51,7.62-6.89,8.6-8.19s3.36-8.8.78-14.11c-29.15-11-123.54-3.57-137.81,3.34-8.55-3.34-11.74-3.16-21.19-.27C179.29,166,125.39,150.7,57.13,165.26Z" transform="translate(-55.58 -159.06)"/><path class="cls-2" d="M76.6,194.44C74.41,189.79,73.12,176,73.12,176a18.29,18.29,0,0,1,10.8-3.71C83.51,173.2,77.73,180.66,76.6,194.44Z" transform="translate(-55.58 -159.06)"/><path class="cls-3" d="M96.49,239.67c8.72,1.92,10-19.94,8.16-24.09-2.31-1.61-4.74-.62-5.1,0-.27,2.4,0,12.31-3.54,14.73-5.06,3.44-21-32.54-8.13-52.7,2.84-4.21,8.88,7.94,9.18,19.52.41.64,5.07-.12,5.4-.71S102.21,176.2,92,171.31c3.48-1,10.46-1.22,10.46-1.22l8.42,77.08S99.77,245.38,96.49,239.67Z" transform="translate(-55.58 -159.06)"/><path class="cls-4" d="M109.05,178c12.9-4.27,6.53,19.14,1.92,18.06C110.57,193.33,109.05,181.51,109.05,178Z" transform="translate(-55.58 -159.06)"/><path class="cls-2" d="M113.3,169c4.65.35,7.61,8.23,7.61,8.23l-2-8.23A32.85,32.85,0,0,0,113.3,169Z" transform="translate(-55.58 -159.06)"/><path class="cls-2" d="M116.9,201.23s4-4.6,5.94-13.14c1.11,3.29,5.79,16.76,5.79,16.76s2.92,28.88,4.62,40.9a22.37,22.37,0,0,1-4.45.94Z" transform="translate(-55.58 -159.06)"/><path class="cls-4" d="M124,247.58s-10-38.52-10.61-39.24-1.57,1.46-1.57,1.46,4.47,34.38,5,37.77C119.37,248.63,124,247.58,124,247.58Z" transform="translate(-55.58 -159.06)"/><path class="cls-3" d="M124,168.75s5.74,25.39,7.16,25.69,4.39-21.37,5.6-25.69A99,99,0,0,0,124,168.75Z" transform="translate(-55.58 -159.06)"/><path class="cls-2" d="M138.1,244.4c-.4-4.05-3.63-39.54-3.63-39.54l7.19-35.12,2.46.36-1.39,73.52S139.38,244.93,138.1,244.4Z" transform="translate(-55.58 -159.06)"/><path class="cls-2" d="M153.63,171.31c8.65,3.85,9.3,9.56,9.3,9.56l.38-7.81S156,171.79,153.63,171.31Z" transform="translate(-55.58 -159.06)"/><path class="cls-3" d="M150.33,213.76c0,1.83-.63,15.55-.61,27.93,9.53-3.5,17.64-10.51,17.64-10.51l2-48.22-5.4.3S166.3,204.05,150.33,213.76Z" transform="translate(-55.58 -159.06)"/><path class="cls-2" d="M179.87,174.45v8.33l-5.29.25L173,225.91s10.15-20.4,16.31-26.4c-9.89-8.25-3.87-23.3-3.87-23.3Z" transform="translate(-55.58 -159.06)"/><path class="cls-4" d="M150.5,180c11.44-1.25,6.5,23,0,22.56C150.59,198.62,150.5,182.53,150.5,180Z" transform="translate(-55.58 -159.06)"/><path class="cls-4" d="M210.07,184c0,6.17-4.48,13.1-10,13.1s-10-6.93-10-13.1a10,10,0,1,1,20,0Z" transform="translate(-55.58 -159.06)"/><path class="cls-2" d="M214.66,175.42s2.05-1,8.26-1.46l-.38,46.35s-7.42-13.7-12.48-20.13C221.75,188.1,214.66,175.42,214.66,175.42Z" transform="translate(-55.58 -159.06)"/><path class="cls-4" d="M229.23,176.25c17.33-3.52,4.68,16.93-.38,14.86C228.84,189.6,228.74,178.87,229.23,176.25Z" transform="translate(-55.58 -159.06)"/><path class="cls-3" d="M228.1,231.56c.06-2.06.74-31.52.74-32.81,7.09-1.62,11.69-5.57,13.94-10.74l-7.66,52.65S228.39,233.94,228.1,231.56Z" transform="translate(-55.58 -159.06)"/><path class="cls-2" d="M238.75,170.45a67.69,67.69,0,0,1,8.07-1.32L244.2,182S245.29,171.07,238.75,170.45Z" transform="translate(-55.58 -159.06)"/><path class="cls-2" d="M249.16,187.58c-.66,3.52-2.35,16.64-2.35,16.64l6.14.34s-1.62-14.31-1.86-16.35S249.82,184.06,249.16,187.58Z" transform="translate(-55.58 -159.06)"/><path class="cls-2" d="M241.86,244.41c5.28,3.58,16.62,4.22,16.62,4.22l-4.73-34.14H246S242,243.42,241.86,244.41Z" transform="translate(-55.58 -159.06)"/><path class="cls-4" d="M254.25,169.47l11.54,80.13h1.89s-3.11-75.16-3.19-80.13C260.14,168.56,254.25,169.47,254.25,169.47Z" transform="translate(-55.58 -159.06)"/><path class="cls-3" d="M272.14,178.06c19.4-3.62,4.55,16.09.63,15C272.61,191.6,272.35,181.8,272.14,178.06Z" transform="translate(-55.58 -159.06)"/><path class="cls-2" d="M281.9,169.72s15.29,5.87,2.26,27.41c.87,3.17,13.07,45.12,13.14,46.1,3-.89,4.91-4.37,4.91-4.37l-4.91-57.63-6.54.11-.75-11Z" transform="translate(-55.58 -159.06)"/><path class="cls-3" d="M274.36,249,272.77,203l6.4-2.42,11.76,45.7A35.65,35.65,0,0,1,274.36,249Z" transform="translate(-55.58 -159.06)"/><path class="cls-4" d="M302.87,181.09s3.44,42,4.37,52.85c3.59-3.47,9.18-14.36,9.18-14.36l.34-25.3s-4.31-20.8-4.63-24a12.3,12.3,0,0,0-4.6.11l.72,9.75Z" transform="translate(-55.58 -159.06)"/><path class="cls-2" d="M317.56,170.82,319.08,184s3.29-10.2,4.1-12.54A28.67,28.67,0,0,0,317.56,170.82Z" transform="translate(-55.58 -159.06)"/><path class="cls-3" d="M328.14,172.34l-7.57,22.59s-.2,8.17-.2,15.61c7.25-15.42,10.43-30.86,10.22-37.51A5,5,0,0,0,328.14,172.34Z" transform="translate(-55.58 -159.06)"/></g></svg>