<?xml version="1.0" encoding="UTF-8" standalone="no"?>
<!-- Created with Inkscape (http://www.inkscape.org/) -->
<svg xmlns:dc="http://purl.org/dc/elements/1.1/" xmlns:cc="http://creativecommons.org/ns#" xmlns:rdf="http://www.w3.org/1999/02/22-rdf-syntax-ns#" xmlns:svg="http://www.w3.org/2000/svg" xmlns="http://www.w3.org/2000/svg" xmlns:xlink="http://www.w3.org/1999/xlink" xmlns:sodipodi="http://sodipodi.sourceforge.net/DTD/sodipodi-0.dtd" xmlns:inkscape="http://www.inkscape.org/namespaces/inkscape" width="58.528137" height="100" id="svg4249" version="1.1" inkscape:version="0.47 r22583" sodipodi:docname="New document 2">
  <defs id="defs4251">
    <inkscape:perspective sodipodi:type="inkscape:persp3d" inkscape:vp_x="0 : 526.18109 : 1" inkscape:vp_y="0 : 1000 : 0" inkscape:vp_z="744.09448 : 526.18109 : 1" inkscape:persp3d-origin="372.04724 : 350.78739 : 1" id="perspective4257"/>
    <inkscape:perspective id="perspective4040" inkscape:persp3d-origin="0.5 : 0.33333333 : 1" inkscape:vp_z="1 : 0.5 : 1" inkscape:vp_y="0 : 1000 : 0" inkscape:vp_x="0 : 0.5 : 1" sodipodi:type="inkscape:persp3d"/>
    <linearGradient inkscape:collect="always" xlink:href="#linearGradient3753" id="linearGradient3750" gradientUnits="userSpaceOnUse" x1="316.61093" y1="163.13255" x2="319.65189" y2="167.29497"/>
    <linearGradient id="linearGradient3753">
      <stop style="stop-color:#ededed;stop-opacity:1;" offset="0" id="stop3755"/>
      <stop style="stop-color:#bebebe;stop-opacity:1;" offset="1" id="stop3757"/>
    </linearGradient>
    <linearGradient inkscape:collect="always" xlink:href="#linearGradient3753" id="linearGradient3752" gradientUnits="userSpaceOnUse" x1="316.61093" y1="163.13255" x2="319.65189" y2="167.29497"/>
    <linearGradient id="linearGradient4049">
      <stop style="stop-color:#ededed;stop-opacity:1;" offset="0" id="stop4051"/>
      <stop style="stop-color:#bebebe;stop-opacity:1;" offset="1" id="stop4053"/>
    </linearGradient>
    <linearGradient inkscape:collect="always" xlink:href="#linearGradient3753" id="linearGradient3754" gradientUnits="userSpaceOnUse" x1="316.61093" y1="163.13255" x2="319.65189" y2="167.29497"/>
    <linearGradient id="linearGradient4056">
      <stop style="stop-color:#ededed;stop-opacity:1;" offset="0" id="stop4058"/>
      <stop style="stop-color:#bebebe;stop-opacity:1;" offset="1" id="stop4060"/>
    </linearGradient>
    <linearGradient inkscape:collect="always" xlink:href="#linearGradient3753" id="linearGradient3756" gradientUnits="userSpaceOnUse" x1="316.61093" y1="163.13255" x2="319.65189" y2="167.29497"/>
    <linearGradient id="linearGradient4063">
      <stop style="stop-color:#ededed;stop-opacity:1;" offset="0" id="stop4065"/>
      <stop style="stop-color:#bebebe;stop-opacity:1;" offset="1" id="stop4067"/>
    </linearGradient>
    <linearGradient inkscape:collect="always" xlink:href="#linearGradient3753" id="linearGradient3758" gradientUnits="userSpaceOnUse" x1="316.61093" y1="163.13255" x2="319.65189" y2="167.29497"/>
    <linearGradient id="linearGradient4070">
      <stop style="stop-color:#ededed;stop-opacity:1;" offset="0" id="stop4072"/>
      <stop style="stop-color:#bebebe;stop-opacity:1;" offset="1" id="stop4074"/>
    </linearGradient>
    <linearGradient inkscape:collect="always" xlink:href="#linearGradient3753" id="linearGradient3760" gradientUnits="userSpaceOnUse" x1="316.61093" y1="163.13255" x2="319.65189" y2="167.29497"/>
    <linearGradient id="linearGradient4077">
      <stop style="stop-color:#ededed;stop-opacity:1;" offset="0" id="stop4079"/>
      <stop style="stop-color:#bebebe;stop-opacity:1;" offset="1" id="stop4081"/>
    </linearGradient>
    <linearGradient inkscape:collect="always" xlink:href="#linearGradient3753" id="linearGradient3762" gradientUnits="userSpaceOnUse" x1="316.61093" y1="163.13255" x2="319.65189" y2="167.29497"/>
    <linearGradient id="linearGradient4084">
      <stop style="stop-color:#ededed;stop-opacity:1;" offset="0" id="stop4086"/>
      <stop style="stop-color:#bebebe;stop-opacity:1;" offset="1" id="stop4088"/>
    </linearGradient>
    <linearGradient inkscape:collect="always" xlink:href="#linearGradient3753" id="linearGradient3764" gradientUnits="userSpaceOnUse" x1="316.61093" y1="163.13255" x2="319.65189" y2="167.29497"/>
    <linearGradient id="linearGradient4091">
      <stop style="stop-color:#ededed;stop-opacity:1;" offset="0" id="stop4093"/>
      <stop style="stop-color:#bebebe;stop-opacity:1;" offset="1" id="stop4095"/>
    </linearGradient>
    <linearGradient inkscape:collect="always" xlink:href="#linearGradient3753" id="linearGradient3766" gradientUnits="userSpaceOnUse" x1="316.61093" y1="163.13255" x2="319.65189" y2="167.29497"/>
    <linearGradient id="linearGradient4098">
      <stop style="stop-color:#ededed;stop-opacity:1;" offset="0" id="stop4100"/>
      <stop style="stop-color:#bebebe;stop-opacity:1;" offset="1" id="stop4102"/>
    </linearGradient>
    <linearGradient inkscape:collect="always" xlink:href="#linearGradient3753" id="linearGradient3768" gradientUnits="userSpaceOnUse" x1="316.61093" y1="163.13255" x2="319.65189" y2="167.29497"/>
    <linearGradient id="linearGradient4105">
      <stop style="stop-color:#ededed;stop-opacity:1;" offset="0" id="stop4107"/>
      <stop style="stop-color:#bebebe;stop-opacity:1;" offset="1" id="stop4109"/>
    </linearGradient>
    <linearGradient inkscape:collect="always" xlink:href="#linearGradient3753" id="linearGradient3770" gradientUnits="userSpaceOnUse" x1="316.61093" y1="163.13255" x2="319.65189" y2="167.29497"/>
    <linearGradient id="linearGradient4112">
      <stop style="stop-color:#ededed;stop-opacity:1;" offset="0" id="stop4114"/>
      <stop style="stop-color:#bebebe;stop-opacity:1;" offset="1" id="stop4116"/>
    </linearGradient>
    <linearGradient inkscape:collect="always" xlink:href="#linearGradient3753" id="linearGradient3772" gradientUnits="userSpaceOnUse" x1="316.61093" y1="163.13255" x2="319.65189" y2="167.29497"/>
    <linearGradient id="linearGradient4119">
      <stop style="stop-color:#ededed;stop-opacity:1;" offset="0" id="stop4121"/>
      <stop style="stop-color:#bebebe;stop-opacity:1;" offset="1" id="stop4123"/>
    </linearGradient>
    <linearGradient inkscape:collect="always" xlink:href="#linearGradient3753" id="linearGradient3774" gradientUnits="userSpaceOnUse" x1="316.61093" y1="163.13255" x2="319.65189" y2="167.29497"/>
    <linearGradient id="linearGradient4126">
      <stop style="stop-color:#ededed;stop-opacity:1;" offset="0" id="stop4128"/>
      <stop style="stop-color:#bebebe;stop-opacity:1;" offset="1" id="stop4130"/>
    </linearGradient>
    <linearGradient inkscape:collect="always" xlink:href="#linearGradient3753" id="linearGradient3776" gradientUnits="userSpaceOnUse" x1="316.61093" y1="163.13255" x2="319.65189" y2="167.29497"/>
    <linearGradient id="linearGradient4133">
      <stop style="stop-color:#ededed;stop-opacity:1;" offset="0" id="stop4135"/>
      <stop style="stop-color:#bebebe;stop-opacity:1;" offset="1" id="stop4137"/>
    </linearGradient>
    <linearGradient inkscape:collect="always" xlink:href="#linearGradient3753" id="linearGradient3778" gradientUnits="userSpaceOnUse" x1="316.61093" y1="163.13255" x2="319.65189" y2="167.29497"/>
    <linearGradient id="linearGradient4140">
      <stop style="stop-color:#ededed;stop-opacity:1;" offset="0" id="stop4142"/>
      <stop style="stop-color:#bebebe;stop-opacity:1;" offset="1" id="stop4144"/>
    </linearGradient>
    <linearGradient inkscape:collect="always" xlink:href="#linearGradient3753" id="linearGradient3780" gradientUnits="userSpaceOnUse" x1="316.61093" y1="163.13255" x2="319.65189" y2="167.29497"/>
    <linearGradient id="linearGradient4147">
      <stop style="stop-color:#ededed;stop-opacity:1;" offset="0" id="stop4149"/>
      <stop style="stop-color:#bebebe;stop-opacity:1;" offset="1" id="stop4151"/>
    </linearGradient>
    <linearGradient inkscape:collect="always" xlink:href="#linearGradient3753" id="linearGradient3782" gradientUnits="userSpaceOnUse" x1="316.61093" y1="163.13255" x2="319.65189" y2="167.29497"/>
    <linearGradient id="linearGradient4154">
      <stop style="stop-color:#ededed;stop-opacity:1;" offset="0" id="stop4156"/>
      <stop style="stop-color:#bebebe;stop-opacity:1;" offset="1" id="stop4158"/>
    </linearGradient>
    <linearGradient inkscape:collect="always" xlink:href="#linearGradient3753" id="linearGradient3784" gradientUnits="userSpaceOnUse" x1="316.61093" y1="163.13255" x2="319.65189" y2="167.29497"/>
    <linearGradient id="linearGradient4161">
      <stop style="stop-color:#ededed;stop-opacity:1;" offset="0" id="stop4163"/>
      <stop style="stop-color:#bebebe;stop-opacity:1;" offset="1" id="stop4165"/>
    </linearGradient>
  </defs>
  <sodipodi:namedview id="base" pagecolor="#ffffff" bordercolor="#666666" borderopacity="1.0" inkscape:pageopacity="0.0" inkscape:pageshadow="2" inkscape:zoom="2.8284271" inkscape:cx="56.296959" inkscape:cy="56.59274" inkscape:document-units="px" inkscape:current-layer="layer1" showgrid="false" inkscape:window-width="1920" inkscape:window-height="1115" inkscape:window-x="0" inkscape:window-y="25" inkscape:window-maximized="1"/>
  <g inkscape:label="Layer 1" inkscape:groupmode="layer" id="layer1" transform="translate(-343.3125,-486.50281)">
    <g transform="matrix(0.92352092,0,0,0.92352092,18.348575,358.16226)" id="g4320">
      <path id="path4322" d="m 383.5625,139.96875 -30.6875,17.71875 0,70.84375 30.6875,17.71875 30.6875,-17.71875 0,-70.84375 -30.6875,-17.71875 z" style="fill:#000000;fill-opacity:1;stroke:#000000;stroke-width:2;stroke-linecap:round;stroke-linejoin:round;stroke-miterlimit:4;stroke-opacity:1;stroke-dasharray:none"/>
      <path sodipodi:nodetypes="ccccc" id="path4324" d="m 352.8883,157.67714 0,70.86614 30.68594,17.71654 0,-70.86614 -30.68594,-17.71654 z" style="fill:#808388;fill-opacity:1;stroke:none"/>
      <path style="fill:#7e7e82;fill-opacity:1;stroke:none" d="m 356.07143,216.27072 24.43422,14.04422 0,10.62992 -24.54875,-14.17322 0.11453,-10.50092 z" id="path4326"/>
      <path style="fill:#6c6c6c;fill-opacity:1;stroke:none" d="m 359.02549,228.54329 0,-10.62992 -3.06859,-1.77166 0,10.62993 3.06859,1.77165 z" id="path4328"/>
      <path id="path4330" d="m 380.50565,240.94486 0,-10.62991 -3.06859,-1.77166 0,10.62993 3.06859,1.77164 z" style="fill:#6c6c6c;fill-opacity:1;stroke:none"/>
      <path id="path4332" d="m 371.29987,235.6299 0,-10.62992 -3.06859,-1.77166 0,10.62993 3.06859,1.77165 z" style="fill:#6c6c6c;fill-opacity:1;stroke:none"/>
      <path style="fill:#6c6c6c;fill-opacity:1;stroke:none" d="m 368.23127,233.85825 0,-10.62991 -3.06859,-1.77166 0,10.62993 3.06859,1.77164 z" id="path4334"/>
      <path sodipodi:type="arc" style="fill:url(#linearGradient3750);fill-opacity:1;stroke:#4c4c4c;stroke-opacity:1" id="path4336" sodipodi:cx="316.22275" sodipodi:cy="163.34666" sodipodi:rx="5.9796319" sodipodi:ry="5.9796319" d="m 322.20238,163.34666 c 0,3.30246 -2.67717,5.97964 -5.97963,5.97964 -3.30246,0 -5.97963,-2.67718 -5.97963,-5.97964 0,-3.30246 2.67717,-5.97963 5.97963,-5.97963 3.30246,0 5.97963,2.67717 5.97963,5.97963 z" transform="matrix(0.19723515,0.11387376,0,0.22774632,305.9432,155.42973)"/>
      <path transform="matrix(0.19723515,0.11387376,0,0.22774632,295.05249,149.05315)" d="m 322.20238,163.34666 c 0,3.30246 -2.67717,5.97964 -5.97963,5.97964 -3.30246,0 -5.97963,-2.67718 -5.97963,-5.97964 0,-3.30246 2.67717,-5.97963 5.97963,-5.97963 3.30246,0 5.97963,2.67717 5.97963,5.97963 z" sodipodi:ry="5.9796319" sodipodi:rx="5.9796319" sodipodi:cy="163.34666" sodipodi:cx="316.22275" id="path4338" style="fill:url(#linearGradient3752);fill-opacity:1;stroke:#4c4c4c;stroke-opacity:1" sodipodi:type="arc"/>
      <path sodipodi:type="arc" style="fill:url(#linearGradient3754);fill-opacity:1;stroke:#4c4c4c;stroke-opacity:1" id="path4340" sodipodi:cx="316.22275" sodipodi:cy="163.34666" sodipodi:rx="5.9796319" sodipodi:ry="5.9796319" d="m 322.20238,163.34666 c 0,3.30246 -2.67717,5.97964 -5.97963,5.97964 -3.30246,0 -5.97963,-2.67718 -5.97963,-5.97964 0,-3.30246 2.67717,-5.97963 5.97963,-5.97963 3.30246,0 5.97963,2.67717 5.97963,5.97963 z" transform="matrix(0.19723515,0.11387376,0,0.22774632,316.6445,161.55378)"/>
      <path sodipodi:nodetypes="ccccc" id="path4342" d="m 383.57424,139.96061 -30.68594,17.71653 30.68594,17.71654 30.68594,-17.71654 -30.68594,-17.71653 z" style="fill:#808388;fill-opacity:1;stroke:none"/>
      <path id="path4344" d="m 356.07143,163.12111 24.43422,14.04422 0,10.62992 -24.54875,-14.17322 0.11453,-10.50092 z" style="fill:#7e7e82;fill-opacity:1;stroke:none"/>
      <path id="path4346" d="m 359.02549,175.39368 0,-10.62992 -3.06859,-1.77166 0,10.62993 3.06859,1.77165 z" style="fill:#6c6c6c;fill-opacity:1;stroke:none"/>
      <path style="fill:#6c6c6c;fill-opacity:1;stroke:none" d="m 380.50565,187.79525 0,-10.62992 -3.06859,-1.77166 0,10.62993 3.06859,1.77165 z" id="path4348"/>
      <path style="fill:#6c6c6c;fill-opacity:1;stroke:none" d="m 371.29987,182.48029 0,-10.62992 -3.06859,-1.77166 0,10.62993 3.06859,1.77165 z" id="path4350"/>
      <path id="path4352" d="m 368.23127,180.70864 0,-10.62992 -3.06859,-1.77166 0,10.62993 3.06859,1.77165 z" style="fill:#6c6c6c;fill-opacity:1;stroke:none"/>
      <path transform="matrix(0.19723515,0.11387376,0,0.22774632,305.9432,102.28012)" d="m 322.20238,163.34666 c 0,3.30246 -2.67717,5.97964 -5.97963,5.97964 -3.30246,0 -5.97963,-2.67718 -5.97963,-5.97964 0,-3.30246 2.67717,-5.97963 5.97963,-5.97963 3.30246,0 5.97963,2.67717 5.97963,5.97963 z" sodipodi:ry="5.9796319" sodipodi:rx="5.9796319" sodipodi:cy="163.34666" sodipodi:cx="316.22275" id="path4354" style="fill:url(#linearGradient3756);fill-opacity:1;stroke:#4c4c4c;stroke-opacity:1" sodipodi:type="arc"/>
      <path sodipodi:type="arc" style="fill:url(#linearGradient3758);fill-opacity:1;stroke:#4c4c4c;stroke-opacity:1" id="path4356" sodipodi:cx="316.22275" sodipodi:cy="163.34666" sodipodi:rx="5.9796319" sodipodi:ry="5.9796319" d="m 322.20238,163.34666 c 0,3.30246 -2.67717,5.97964 -5.97963,5.97964 -3.30246,0 -5.97963,-2.67718 -5.97963,-5.97964 0,-3.30246 2.67717,-5.97963 5.97963,-5.97963 3.30246,0 5.97963,2.67717 5.97963,5.97963 z" transform="matrix(0.19723515,0.11387376,0,0.22774632,295.05249,95.903532)"/>
      <path transform="matrix(0.19723515,0.11387376,0,0.22774632,316.6445,108.40417)" d="m 322.20238,163.34666 c 0,3.30246 -2.67717,5.97964 -5.97963,5.97964 -3.30246,0 -5.97963,-2.67718 -5.97963,-5.97964 0,-3.30246 2.67717,-5.97963 5.97963,-5.97963 3.30246,0 5.97963,2.67717 5.97963,5.97963 z" sodipodi:ry="5.9796319" sodipodi:rx="5.9796319" sodipodi:cy="163.34666" sodipodi:cx="316.22275" id="path4358" style="fill:url(#linearGradient3760);fill-opacity:1;stroke:#4c4c4c;stroke-opacity:1" sodipodi:type="arc"/>
      <path sodipodi:nodetypes="ccccc" id="path4360" d="m 383.57424,175.39368 30.68594,-17.71654 0,70.86614 -30.68594,17.71654 0,-70.86614 z" style="fill:#3e4447;fill-opacity:1;stroke:none"/>
      <path id="path4362" d="m 355.9569,162.9921 24.54875,14.17323 0,10.62992 -24.54875,-14.17322 0,-10.62993 z" style="fill:none;stroke:#000000;stroke-width:1px;stroke-linecap:butt;stroke-linejoin:miter;stroke-opacity:1"/>
      <path style="fill:#7e7e82;fill-opacity:1;stroke:none" d="m 356.07143,173.75104 24.43422,14.04422 0,10.62992 -24.54875,-14.17322 0.11453,-10.50092 z" id="path4364"/>
      <path style="fill:#6c6c6c;fill-opacity:1;stroke:none" d="m 359.02549,186.02361 0,-10.62992 -3.06859,-1.77166 0,10.62993 3.06859,1.77165 z" id="path4366"/>
      <path id="path4368" d="m 380.50565,198.42518 0,-10.62992 -3.06859,-1.77166 0,10.62993 3.06859,1.77165 z" style="fill:#6c6c6c;fill-opacity:1;stroke:none"/>
      <path id="path4370" d="m 371.29987,193.11022 0,-10.62992 -3.06859,-1.77166 0,10.62993 3.06859,1.77165 z" style="fill:#6c6c6c;fill-opacity:1;stroke:none"/>
      <path style="fill:#6c6c6c;fill-opacity:1;stroke:none" d="m 368.23127,191.33857 0,-10.62992 -3.06859,-1.77166 0,10.62993 3.06859,1.77165 z" id="path4372"/>
      <path sodipodi:type="arc" style="fill:url(#linearGradient3762);fill-opacity:1;stroke:#4c4c4c;stroke-opacity:1" id="path4374" sodipodi:cx="316.22275" sodipodi:cy="163.34666" sodipodi:rx="5.9796319" sodipodi:ry="5.9796319" d="m 322.20238,163.34666 c 0,3.30246 -2.67717,5.97964 -5.97963,5.97964 -3.30246,0 -5.97963,-2.67718 -5.97963,-5.97964 0,-3.30246 2.67717,-5.97963 5.97963,-5.97963 3.30246,0 5.97963,2.67717 5.97963,5.97963 z" transform="matrix(0.19723515,0.11387376,0,0.22774632,305.9432,112.91005)"/>
      <path transform="matrix(0.19723515,0.11387376,0,0.22774632,295.05249,106.53346)" d="m 322.20238,163.34666 c 0,3.30246 -2.67717,5.97964 -5.97963,5.97964 -3.30246,0 -5.97963,-2.67718 -5.97963,-5.97964 0,-3.30246 2.67717,-5.97963 5.97963,-5.97963 3.30246,0 5.97963,2.67717 5.97963,5.97963 z" sodipodi:ry="5.9796319" sodipodi:rx="5.9796319" sodipodi:cy="163.34666" sodipodi:cx="316.22275" id="path4376" style="fill:url(#linearGradient3764);fill-opacity:1;stroke:#4c4c4c;stroke-opacity:1" sodipodi:type="arc"/>
      <path sodipodi:type="arc" style="fill:url(#linearGradient3766);fill-opacity:1;stroke:#4c4c4c;stroke-opacity:1" id="path4378" sodipodi:cx="316.22275" sodipodi:cy="163.34666" sodipodi:rx="5.9796319" sodipodi:ry="5.9796319" d="m 322.20238,163.34666 c 0,3.30246 -2.67717,5.97964 -5.97963,5.97964 -3.30246,0 -5.97963,-2.67718 -5.97963,-5.97964 0,-3.30246 2.67717,-5.97963 5.97963,-5.97963 3.30246,0 5.97963,2.67717 5.97963,5.97963 z" transform="matrix(0.19723515,0.11387376,0,0.22774632,316.6445,119.0341)"/>
      <path style="fill:none;stroke:#000000;stroke-width:1px;stroke-linecap:butt;stroke-linejoin:miter;stroke-opacity:1" d="m 355.9569,173.62202 24.54875,14.17323 0,10.62992 -24.54875,-14.17322 0,-10.62993 z" id="path4380"/>
      <path id="path4382" d="m 356.07143,184.38095 24.43422,14.04422 0,10.62992 -24.54875,-14.17322 0.11453,-10.50092 z" style="fill:#7e7e82;fill-opacity:1;stroke:none"/>
      <path id="path4384" d="m 359.02549,196.65352 0,-10.62992 -3.06859,-1.77166 0,10.62993 3.06859,1.77165 z" style="fill:#6c6c6c;fill-opacity:1;stroke:none"/>
      <path style="fill:#6c6c6c;fill-opacity:1;stroke:none" d="m 380.50565,209.05509 0,-10.62991 -3.06859,-1.77166 0,10.62993 3.06859,1.77164 z" id="path4386"/>
      <path style="fill:#6c6c6c;fill-opacity:1;stroke:none" d="m 371.29987,203.74013 0,-10.62992 -3.06859,-1.77166 0,10.62993 3.06859,1.77165 z" id="path4388"/>
      <path id="path4390" d="m 368.23127,201.96848 0,-10.62991 -3.06859,-1.77166 0,10.62993 3.06859,1.77164 z" style="fill:#6c6c6c;fill-opacity:1;stroke:none"/>
      <path transform="matrix(0.19723515,0.11387376,0,0.22774632,305.9432,123.53996)" d="m 322.20238,163.34666 c 0,3.30246 -2.67717,5.97964 -5.97963,5.97964 -3.30246,0 -5.97963,-2.67718 -5.97963,-5.97964 0,-3.30246 2.67717,-5.97963 5.97963,-5.97963 3.30246,0 5.97963,2.67717 5.97963,5.97963 z" sodipodi:ry="5.9796319" sodipodi:rx="5.9796319" sodipodi:cy="163.34666" sodipodi:cx="316.22275" id="path4392" style="fill:url(#linearGradient3768);fill-opacity:1;stroke:#4c4c4c;stroke-opacity:1" sodipodi:type="arc"/>
      <path sodipodi:type="arc" style="fill:url(#linearGradient3770);fill-opacity:1;stroke:#4c4c4c;stroke-opacity:1" id="path4394" sodipodi:cx="316.22275" sodipodi:cy="163.34666" sodipodi:rx="5.9796319" sodipodi:ry="5.9796319" d="m 322.20238,163.34666 c 0,3.30246 -2.67717,5.97964 -5.97963,5.97964 -3.30246,0 -5.97963,-2.67718 -5.97963,-5.97964 0,-3.30246 2.67717,-5.97963 5.97963,-5.97963 3.30246,0 5.97963,2.67717 5.97963,5.97963 z" transform="matrix(0.19723515,0.11387376,0,0.22774632,295.05249,117.16338)"/>
      <path transform="matrix(0.19723515,0.11387376,0,0.22774632,316.6445,129.66401)" d="m 322.20238,163.34666 c 0,3.30246 -2.67717,5.97964 -5.97963,5.97964 -3.30246,0 -5.97963,-2.67718 -5.97963,-5.97964 0,-3.30246 2.67717,-5.97963 5.97963,-5.97963 3.30246,0 5.97963,2.67717 5.97963,5.97963 z" sodipodi:ry="5.9796319" sodipodi:rx="5.9796319" sodipodi:cy="163.34666" sodipodi:cx="316.22275" id="path4396" style="fill:url(#linearGradient3772);fill-opacity:1;stroke:#4c4c4c;stroke-opacity:1" sodipodi:type="arc"/>
      <path id="path4398" d="m 356.07143,205.6408 24.43422,14.04422 0,10.62992 -24.54875,-14.17322 0.11453,-10.50092 z" style="fill:#7e7e82;fill-opacity:1;stroke:none"/>
      <path id="path4400" d="m 359.02549,217.91337 0,-10.62992 -3.06859,-1.77166 0,10.62993 3.06859,1.77165 z" style="fill:#6c6c6c;fill-opacity:1;stroke:none"/>
      <path style="fill:#6c6c6c;fill-opacity:1;stroke:none" d="m 380.50565,230.31494 0,-10.62992 -3.06859,-1.77166 0,10.62993 3.06859,1.77165 z" id="path4402"/>
      <path style="fill:#6c6c6c;fill-opacity:1;stroke:none" d="m 371.29987,224.99998 0,-10.62992 -3.06859,-1.77166 0,10.62993 3.06859,1.77165 z" id="path4404"/>
      <path id="path4406" d="m 368.23127,223.22833 0,-10.62992 -3.06859,-1.77166 0,10.62993 3.06859,1.77165 z" style="fill:#6c6c6c;fill-opacity:1;stroke:none"/>
      <path transform="matrix(0.19723515,0.11387376,0,0.22774632,305.9432,144.79981)" d="m 322.20238,163.34666 c 0,3.30246 -2.67717,5.97964 -5.97963,5.97964 -3.30246,0 -5.97963,-2.67718 -5.97963,-5.97964 0,-3.30246 2.67717,-5.97963 5.97963,-5.97963 3.30246,0 5.97963,2.67717 5.97963,5.97963 z" sodipodi:ry="5.9796319" sodipodi:rx="5.9796319" sodipodi:cy="163.34666" sodipodi:cx="316.22275" id="path4408" style="fill:url(#linearGradient3774);fill-opacity:1;stroke:#4c4c4c;stroke-opacity:1" sodipodi:type="arc"/>
      <path sodipodi:type="arc" style="fill:url(#linearGradient3776);fill-opacity:1;stroke:#4c4c4c;stroke-opacity:1" id="path4410" sodipodi:cx="316.22275" sodipodi:cy="163.34666" sodipodi:rx="5.9796319" sodipodi:ry="5.9796319" d="m 322.20238,163.34666 c 0,3.30246 -2.67717,5.97964 -5.97963,5.97964 -3.30246,0 -5.97963,-2.67718 -5.97963,-5.97964 0,-3.30246 2.67717,-5.97963 5.97963,-5.97963 3.30246,0 5.97963,2.67717 5.97963,5.97963 z" transform="matrix(0.19723515,0.11387376,0,0.22774632,295.05249,138.42322)"/>
      <path transform="matrix(0.19723515,0.11387376,0,0.22774632,316.6445,150.92386)" d="m 322.20238,163.34666 c 0,3.30246 -2.67717,5.97964 -5.97963,5.97964 -3.30246,0 -5.97963,-2.67718 -5.97963,-5.97964 0,-3.30246 2.67717,-5.97963 5.97963,-5.97963 3.30246,0 5.97963,2.67717 5.97963,5.97963 z" sodipodi:ry="5.9796319" sodipodi:rx="5.9796319" sodipodi:cy="163.34666" sodipodi:cx="316.22275" id="path4412" style="fill:url(#linearGradient3778);fill-opacity:1;stroke:#4c4c4c;stroke-opacity:1" sodipodi:type="arc"/>
      <path id="path4414" d="m 355.9569,184.25194 24.54875,14.17323 0,10.62992 -24.54875,-14.17322 0,-10.62993 z" style="fill:none;stroke:#000000;stroke-width:1px;stroke-linecap:butt;stroke-linejoin:miter;stroke-opacity:1"/>
      <path style="fill:none;stroke:#000000;stroke-width:1px;stroke-linecap:butt;stroke-linejoin:miter;stroke-opacity:1" d="m 355.9569,194.88187 24.54875,14.17323 0,10.62992 -24.54875,-14.17322 0,-10.62993 z" id="path4416"/>
      <path style="fill:#7e7e82;fill-opacity:1;stroke:none" d="m 356.07143,195.01088 24.43422,14.04422 0,10.62992 -24.54875,-14.17322 0.11453,-10.50092 z" id="path4418"/>
      <path style="fill:#6c6c6c;fill-opacity:1;stroke:none" d="m 359.02549,207.28345 0,-10.62992 -3.06859,-1.77166 0,10.62993 3.06859,1.77165 z" id="path4420"/>
      <path id="path4422" d="m 380.50565,219.68502 0,-10.62992 -3.06859,-1.77166 0,10.62993 3.06859,1.77165 z" style="fill:#6c6c6c;fill-opacity:1;stroke:none"/>
      <path id="path4424" d="m 371.29987,214.37006 0,-10.62992 -3.06859,-1.77166 0,10.62993 3.06859,1.77165 z" style="fill:#6c6c6c;fill-opacity:1;stroke:none"/>
      <path style="fill:#6c6c6c;fill-opacity:1;stroke:none" d="m 368.23127,212.59841 0,-10.62992 -3.06859,-1.77166 0,10.62993 3.06859,1.77165 z" id="path4426"/>
      <path sodipodi:type="arc" style="fill:url(#linearGradient3780);fill-opacity:1;stroke:#4c4c4c;stroke-opacity:1" id="path4428" sodipodi:cx="316.22275" sodipodi:cy="163.34666" sodipodi:rx="5.9796319" sodipodi:ry="5.9796319" d="m 322.20238,163.34666 c 0,3.30246 -2.67717,5.97964 -5.97963,5.97964 -3.30246,0 -5.97963,-2.67718 -5.97963,-5.97964 0,-3.30246 2.67717,-5.97963 5.97963,-5.97963 3.30246,0 5.97963,2.67717 5.97963,5.97963 z" transform="matrix(0.19723515,0.11387376,0,0.22774632,305.9432,134.16989)"/>
      <path transform="matrix(0.19723515,0.11387376,0,0.22774632,295.05249,127.7933)" d="m 322.20238,163.34666 c 0,3.30246 -2.67717,5.97964 -5.97963,5.97964 -3.30246,0 -5.97963,-2.67718 -5.97963,-5.97964 0,-3.30246 2.67717,-5.97963 5.97963,-5.97963 3.30246,0 5.97963,2.67717 5.97963,5.97963 z" sodipodi:ry="5.9796319" sodipodi:rx="5.9796319" sodipodi:cy="163.34666" sodipodi:cx="316.22275" id="path4430" style="fill:url(#linearGradient3782);fill-opacity:1;stroke:#4c4c4c;stroke-opacity:1" sodipodi:type="arc"/>
      <path sodipodi:type="arc" style="fill:url(#linearGradient3784);fill-opacity:1;stroke:#4c4c4c;stroke-opacity:1" id="path4432" sodipodi:cx="316.22275" sodipodi:cy="163.34666" sodipodi:rx="5.9796319" sodipodi:ry="5.9796319" d="m 322.20238,163.34666 c 0,3.30246 -2.67717,5.97964 -5.97963,5.97964 -3.30246,0 -5.97963,-2.67718 -5.97963,-5.97964 0,-3.30246 2.67717,-5.97963 5.97963,-5.97963 3.30246,0 5.97963,2.67717 5.97963,5.97963 z" transform="matrix(0.19723515,0.11387376,0,0.22774632,316.6445,140.29394)"/>
      <path id="path4434" d="m 355.9569,205.51179 24.54875,14.17323 0,10.62992 -24.54875,-14.17322 0,-10.62993 z" style="fill:none;stroke:#000000;stroke-width:1px;stroke-linecap:butt;stroke-linejoin:miter;stroke-opacity:1"/>
      <path style="fill:none;stroke:#000000;stroke-width:1px;stroke-linecap:butt;stroke-linejoin:miter;stroke-opacity:1" d="m 355.9569,216.14171 24.54875,14.17323 0,10.62992 -24.54875,-14.17322 0,-10.62993 z" id="path4436"/>
      <path id="path4438" d="m 355.9569,162.9921 0,31.88977 24.54875,14.17323 0,-31.88977 -24.54875,-14.17323 z" style="fill:none;stroke:#000000;stroke-width:1.79999995;stroke-linecap:butt;stroke-linejoin:miter;stroke-miterlimit:4;stroke-opacity:1;stroke-dasharray:none"/>
      <path style="fill:none;stroke:#000000;stroke-width:1.79999995;stroke-linecap:butt;stroke-linejoin:miter;stroke-miterlimit:4;stroke-opacity:1;stroke-dasharray:none" d="m 355.9569,194.88186 0,31.88977 24.54875,14.17323 0,-31.88977 -24.54875,-14.17323 z" id="path4440"/>
      <path sodipodi:nodetypes="cccc" id="path4442" d="m 352.8883,157.67714 30.68594,17.71654 0,70.86614 0,0" style="fill:none;stroke:#ababab;stroke-width:0.40000001;stroke-linecap:round;stroke-linejoin:round;stroke-miterlimit:4;stroke-opacity:1;stroke-dasharray:none"/>
      <path id="path4444" d="m 352.8883,157.67714 0,70.86614 30.68594,17.71654 0,0" style="fill:none;stroke:#6c6c6c;stroke-width:0.40000001;stroke-linecap:round;stroke-linejoin:round;stroke-miterlimit:4;stroke-opacity:1;stroke-dasharray:none"/>
      <path id="path4446" d="m 383.57424,175.39368 30.68594,-17.71654" style="fill:none;stroke:#757575;stroke-width:0.40000001;stroke-linecap:round;stroke-linejoin:round;stroke-miterlimit:4;stroke-opacity:1;stroke-dasharray:none"/>
      <path id="path4448" d="m 411.19159,162.9921 -24.54875,14.17323 0,28.34646 24.54875,-14.17323 0,-28.34646 0,0 z" style="fill:#262626;fill-opacity:1;stroke:#000000;stroke-width:1px;stroke-linecap:butt;stroke-linejoin:miter;stroke-opacity:1"/>
      <path style="fill:#262626;fill-opacity:1;stroke:#000000;stroke-width:1px;stroke-linecap:butt;stroke-linejoin:miter;stroke-opacity:1" d="m 411.19159,198.42517 -24.54875,14.17323 0,28.34646 24.54875,-14.17323 0,-28.34646 0,0 z" id="path4450"/>
      <g id="g4452">
        <path style="fill:none;stroke:#000000;stroke-width:1px;stroke-linecap:butt;stroke-linejoin:miter;stroke-opacity:1" d="m 389.76795,175.41904 -0.0565,28.3211" id="path4454"/>
        <path id="path4456" d="m 392.78003,173.62203 -0.0565,28.3211" style="fill:none;stroke:#000000;stroke-width:1px;stroke-linecap:butt;stroke-linejoin:miter;stroke-opacity:1"/>
        <path style="fill:none;stroke:#000000;stroke-width:1px;stroke-linecap:butt;stroke-linejoin:miter;stroke-opacity:1" d="m 395.84862,171.85037 -0.0565,28.3211" id="path4458"/>
        <path id="path4460" d="m 398.91721,170.07872 -0.0565,28.3211" style="fill:none;stroke:#000000;stroke-width:1px;stroke-linecap:butt;stroke-linejoin:miter;stroke-opacity:1"/>
        <path style="fill:none;stroke:#000000;stroke-width:1px;stroke-linecap:butt;stroke-linejoin:miter;stroke-opacity:1" d="m 401.98581,168.30706 -0.0565,28.3211" id="path4462"/>
        <path id="path4464" d="m 405.0544,166.53541 -0.0565,28.3211" style="fill:none;stroke:#000000;stroke-width:1px;stroke-linecap:butt;stroke-linejoin:miter;stroke-opacity:1"/>
        <path style="fill:none;stroke:#000000;stroke-width:1px;stroke-linecap:butt;stroke-linejoin:miter;stroke-opacity:1" d="m 408.123,164.76376 -0.0565,28.3211" id="path4466"/>
      </g>
      <g transform="translate(0.05649565,35.458423)" id="g4468">
        <path id="path4470" d="m 389.76795,175.41904 -0.0565,28.3211" style="fill:none;stroke:#000000;stroke-width:1px;stroke-linecap:butt;stroke-linejoin:miter;stroke-opacity:1"/>
        <path style="fill:none;stroke:#000000;stroke-width:1px;stroke-linecap:butt;stroke-linejoin:miter;stroke-opacity:1" d="m 392.78003,173.62203 -0.0565,28.3211" id="path4472"/>
        <path id="path4474" d="m 395.84862,171.85037 -0.0565,28.3211" style="fill:none;stroke:#000000;stroke-width:1px;stroke-linecap:butt;stroke-linejoin:miter;stroke-opacity:1"/>
        <path style="fill:none;stroke:#000000;stroke-width:1px;stroke-linecap:butt;stroke-linejoin:miter;stroke-opacity:1" d="m 398.91721,170.07872 -0.0565,28.3211" id="path4476"/>
        <path id="path4478" d="m 401.98581,168.30706 -0.0565,28.3211" style="fill:none;stroke:#000000;stroke-width:1px;stroke-linecap:butt;stroke-linejoin:miter;stroke-opacity:1"/>
        <path style="fill:none;stroke:#000000;stroke-width:1px;stroke-linecap:butt;stroke-linejoin:miter;stroke-opacity:1" d="m 405.0544,166.53541 -0.0565,28.3211" id="path4480"/>
        <path id="path4482" d="m 408.123,164.76376 -0.0565,28.3211" style="fill:none;stroke:#000000;stroke-width:1px;stroke-linecap:butt;stroke-linejoin:miter;stroke-opacity:1"/>
      </g>
    </g>
  </g>
  <metadata>
    <rdf:RDF>
      <cc:Work>
        <dc:format>image/svg+xml</dc:format>
        <dc:type rdf:resource="http://purl.org/dc/dcmitype/StillImage"/>
        <cc:license rdf:resource="http://creativecommons.org/licenses/publicdomain/"/>
        <dc:publisher>
          <cc:Agent rdf:about="http://openclipart.org/">
            <dc:title>Open Clip Art Library</dc:title>
          </cc:Agent>
        </dc:publisher>
        <dc:title>Isometric Server Cabinet</dc:title>
        <dc:date>2010-08-12T13:11:29</dc:date>
        <dc:description>Simple isometric server cabinet</dc:description>
        <dc:source>http://openclipart.org/detail/79603/isometric-server-cabinet-by-miga03</dc:source>
        <dc:creator>
          <cc:Agent>
            <dc:title>miga03</dc:title>
          </cc:Agent>
        </dc:creator>
        <dc:subject>
          <rdf:Bag>
            <rdf:li>cabinet</rdf:li>
            <rdf:li>clip art</rdf:li>
            <rdf:li>clipart</rdf:li>
            <rdf:li>computer</rdf:li>
            <rdf:li>isometric</rdf:li>
            <rdf:li>server</rdf:li>
          </rdf:Bag>
        </dc:subject>
      </cc:Work>
      <cc:License rdf:about="http://creativecommons.org/licenses/publicdomain/">
        <cc:permits rdf:resource="http://creativecommons.org/ns#Reproduction"/>
        <cc:permits rdf:resource="http://creativecommons.org/ns#Distribution"/>
        <cc:permits rdf:resource="http://creativecommons.org/ns#DerivativeWorks"/>
      </cc:License>
    </rdf:RDF>
  </metadata>
</svg>