<?xml version="1.0" encoding="UTF-8" standalone="no"?>
<!-- Created with Inkscape (http://www.inkscape.org/) -->
<svg xmlns:dc="http://purl.org/dc/elements/1.1/" xmlns:cc="http://creativecommons.org/ns#" xmlns:rdf="http://www.w3.org/1999/02/22-rdf-syntax-ns#" xmlns:svg="http://www.w3.org/2000/svg" xmlns="http://www.w3.org/2000/svg" xmlns:xlink="http://www.w3.org/1999/xlink" xmlns:sodipodi="http://sodipodi.sourceforge.net/DTD/sodipodi-0.dtd" xmlns:inkscape="http://www.inkscape.org/namespaces/inkscape" width="952.78241" height="262.5" id="svg48667" sodipodi:version="0.32" inkscape:version="0.48.1 " version="1.0" sodipodi:docname="SAN Disk Array SCSI 29.07.11.svg" inkscape:output_extension="org.inkscape.output.svg.inkscape">
  <title id="title3212">SAN Disk Array 1</title>
  <defs id="defs48669">
    <linearGradient id="linearGradient3834">
      <stop style="stop-color:#bcbcbc;stop-opacity:1;" offset="0" id="stop3836"/>
      <stop style="stop-color:#040404;stop-opacity:1;" offset="1" id="stop3838"/>
    </linearGradient>
    <linearGradient id="linearGradient3826">
      <stop style="stop-color:#c8c8c8;stop-opacity:1;" offset="0" id="stop3828"/>
      <stop style="stop-color:#1d1d1d;stop-opacity:1;" offset="1" id="stop3830"/>
    </linearGradient>
    <linearGradient id="linearGradient3329">
      <stop style="stop-color:#000000;stop-opacity:1;" offset="0" id="stop3331"/>
      <stop id="stop3337" offset="0.0112996" style="stop-color:#2f2f2f;stop-opacity:0.95294118;"/>
      <stop style="stop-color:#2f2f2f;stop-opacity:0.95294118;" offset="0.98446268" id="stop3339"/>
      <stop style="stop-color:#000000;stop-opacity:1;" offset="1" id="stop3333"/>
    </linearGradient>
    <linearGradient id="linearGradient3272">
      <stop style="stop-color:#000000;stop-opacity:1;" offset="0" id="stop3274"/>
      <stop id="stop3280" offset="0.13356404" style="stop-color:#000000;stop-opacity:0.19130434;"/>
      <stop style="stop-color:#000000;stop-opacity:0.19215687;" offset="0.86614251" id="stop3282"/>
      <stop style="stop-color:#000000;stop-opacity:0;" offset="1" id="stop3276"/>
    </linearGradient>
    <linearGradient id="linearGradient3256">
      <stop style="stop-color:#1d1d1d;stop-opacity:1;" offset="0" id="stop3258"/>
      <stop id="stop3264" offset="0.12512752" style="stop-color:#838383;stop-opacity:1;"/>
      <stop style="stop-color:#838383;stop-opacity:1;" offset="0.89089543" id="stop3266"/>
      <stop style="stop-color:#ebebeb;stop-opacity:1;" offset="1" id="stop3260"/>
    </linearGradient>
    <linearGradient id="linearGradient4342">
      <stop style="stop-color:#282828;stop-opacity:1;" offset="0" id="stop4344"/>
      <stop id="stop4350" offset="0.56774271" style="stop-color:#737373;stop-opacity:1;"/>
      <stop style="stop-color:#353535;stop-opacity:1;" offset="1" id="stop4346"/>
    </linearGradient>
    <linearGradient id="linearGradient4290">
      <stop style="stop-color:#909090;stop-opacity:1;" offset="0" id="stop4292"/>
      <stop id="stop4298" offset="0.5" style="stop-color:#ababab;stop-opacity:1;"/>
      <stop style="stop-color:#181818;stop-opacity:1;" offset="1" id="stop4294"/>
    </linearGradient>
    <linearGradient id="linearGradient4211">
      <stop id="stop4213" offset="0" style="stop-color:#000000;stop-opacity:1;"/>
      <stop style="stop-color:#909090;stop-opacity:1;" offset="0.04641077" id="stop4215"/>
      <stop id="stop4217" offset="0.10453191" style="stop-color:#4e4e4e;stop-opacity:1;"/>
      <stop style="stop-color:#3e3e3e;stop-opacity:1;" offset="0.35656929" id="stop4219"/>
      <stop id="stop4221" offset="0.72459823" style="stop-color:#d3d3d3;stop-opacity:1;"/>
      <stop style="stop-color:#a6a6a6;stop-opacity:1;" offset="0.93760163" id="stop4223"/>
      <stop id="stop4225" offset="1" style="stop-color:#000000;stop-opacity:1;"/>
    </linearGradient>
    <linearGradient id="linearGradient4111">
      <stop style="stop-color:#232323;stop-opacity:1;" offset="0" id="stop4113"/>
      <stop style="stop-color:#474747;stop-opacity:1;" offset="1" id="stop4115"/>
    </linearGradient>
    <linearGradient id="linearGradient4073">
      <stop style="stop-color:#000000;stop-opacity:1;" offset="0" id="stop4075"/>
      <stop id="stop4081" offset="0.01253189" style="stop-color:#404040;stop-opacity:0.99607843;"/>
      <stop style="stop-color:#a0a0a0;stop-opacity:0.99215686;" offset="0.02346548" id="stop4089"/>
      <stop id="stop4091" offset="0.03404788" style="stop-color:#232323;stop-opacity:0.99215686;"/>
      <stop style="stop-color:#515151;stop-opacity:0.99215686;" offset="0.04919145" id="stop4093"/>
      <stop style="stop-color:#7e7e7e;stop-opacity:0.99215686;" offset="0.31645578" id="stop4083"/>
      <stop id="stop4087" offset="0.63713259" style="stop-color:#353535;stop-opacity:0.99215686;"/>
      <stop style="stop-color:#282828;stop-opacity:0.99215686;" offset="0.93211758" id="stop4099"/>
      <stop style="stop-color:#090909;stop-opacity:0.99215686;" offset="0.95781767" id="stop4097"/>
      <stop style="stop-color:#858585;stop-opacity:0.99215686;" offset="0.97595894" id="stop4095"/>
      <stop id="stop4085" offset="0.99019319" style="stop-color:#212121;stop-opacity:0.99215686;"/>
      <stop style="stop-color:#000000;stop-opacity:0.99215686;" offset="1" id="stop4077"/>
    </linearGradient>
    <linearGradient id="linearGradient3958">
      <stop style="stop-color:#000000;stop-opacity:1;" offset="0" id="stop3960"/>
      <stop id="stop3970" offset="0.01260957" style="stop-color:#000000;stop-opacity:1;"/>
      <stop style="stop-color:#282828;stop-opacity:1;" offset="0.01869339" id="stop4037"/>
      <stop style="stop-color:#313131;stop-opacity:1;" offset="0.48156068" id="stop3972"/>
      <stop id="stop3966" offset="0.97155803" style="stop-color:#9d9d9d;stop-opacity:1;"/>
      <stop style="stop-color:#1a1a1a;stop-opacity:1;" offset="0.98693812" id="stop4039"/>
      <stop style="stop-color:#161616;stop-opacity:1;" offset="1" id="stop3962"/>
    </linearGradient>
    <linearGradient id="linearGradient3103">
      <stop style="stop-color:#a9a9a9;stop-opacity:1;" offset="0" id="stop3105"/>
      <stop id="stop3111" offset="0.27305862" style="stop-color:#f6f6f6;stop-opacity:1;"/>
      <stop style="stop-color:#3e3e3e;stop-opacity:1;" offset="1" id="stop3107"/>
    </linearGradient>
    <linearGradient id="linearGradient3768">
      <stop style="stop-color:#aa515d;stop-opacity:1;" offset="0" id="stop3770"/>
      <stop id="stop3776" offset="0.5" style="stop-color:#693239;stop-opacity:1;"/>
      <stop style="stop-color:#a94f5c;stop-opacity:1;" offset="1" id="stop3772"/>
    </linearGradient>
    <linearGradient id="linearGradient2756">
      <stop style="stop-color:#1c1c1c;stop-opacity:1;" offset="0" id="stop2758"/>
      <stop style="stop-color:#424242;stop-opacity:1;" offset="1" id="stop2760"/>
    </linearGradient>
    <linearGradient id="linearGradient3432">
      <stop id="stop3434" offset="0" style="stop-color:#f2f2f2;stop-opacity:1;"/>
      <stop id="stop3436" offset="1" style="stop-color:#141414;stop-opacity:1;"/>
    </linearGradient>
    <linearGradient id="linearGradient3442">
      <stop id="stop3444" offset="0" style="stop-color:#f0f0f0;stop-opacity:1;"/>
      <stop id="stop3446" offset="1" style="stop-color:#afafaf;stop-opacity:1;"/>
    </linearGradient>
    <filter inkscape:collect="always" id="filter4518" x="-0.13995115" width="1.2799023" y="-0.15533802" height="1.310676" color-interpolation-filters="sRGB">
      <feGaussianBlur inkscape:collect="always" stdDeviation="0.99960574" id="feGaussianBlur4520"/>
    </filter>
    <linearGradient inkscape:collect="always" xlink:href="#linearGradient2756" id="linearGradient4777" gradientUnits="userSpaceOnUse" gradientTransform="matrix(1.0006562,0,0,0.96283293,-15.936716,150.62591)" x1="530.39838" y1="100.86242" x2="530.39838" y2="122.6997"/>
    <linearGradient inkscape:collect="always" xlink:href="#linearGradient4111" id="linearGradient4779" gradientUnits="userSpaceOnUse" gradientTransform="matrix(0.87882343,0,0,0.94261974,-58.043428,-70.532941)" x1="-515.06732" y1="36.35537" x2="-436.12036" y2="36.35537"/>
    <linearGradient inkscape:collect="always" xlink:href="#linearGradient4290" id="linearGradient4781" gradientUnits="userSpaceOnUse" gradientTransform="matrix(1.0035493,0,0,1,1.4765889,0)" x1="113.50978" y1="-285.09863" x2="113.50978" y2="-274.91275"/>
    <linearGradient inkscape:collect="always" xlink:href="#linearGradient4290" id="linearGradient4783" gradientUnits="userSpaceOnUse" gradientTransform="matrix(1.0035493,0,0,1,1.4765854,245.02852)" x1="113.50978" y1="-285.09863" x2="113.50978" y2="-274.91275"/>
    <linearGradient inkscape:collect="always" xlink:href="#linearGradient4342" id="linearGradient4785" gradientUnits="userSpaceOnUse" gradientTransform="matrix(1.0469122,0,0,1.0222791,-383.91958,-920.25968)" x1="609.98505" y1="558.92645" x2="618.82233" y2="617.69019"/>
    <linearGradient inkscape:collect="always" xlink:href="#linearGradient3103" id="linearGradient4787" gradientUnits="userSpaceOnUse" gradientTransform="matrix(1.0722666,0,0,1.0244575,15.86585,6.2089256)" x1="215.42221" y1="259.70276" x2="215.42221" y2="483.94519"/>
    <linearGradient inkscape:collect="always" xlink:href="#linearGradient3958" id="linearGradient4789" gradientUnits="userSpaceOnUse" gradientTransform="matrix(1.0469122,0,0,1.0222791,104.32283,14.345914)" x1="152.50273" y1="337.91861" x2="153.00134" y2="391.76849"/>
    <linearGradient inkscape:collect="always" xlink:href="#linearGradient3768" id="linearGradient4791" gradientUnits="userSpaceOnUse" gradientTransform="matrix(1.0244889,0,0,0.92990677,672.92028,-95.004554)" x1="-378.08224" y1="-156.81773" x2="-358.34943" y2="-156.81773"/>
    <linearGradient inkscape:collect="always" xlink:href="#linearGradient4073" id="linearGradient4793" gradientUnits="userSpaceOnUse" gradientTransform="matrix(1.0222791,0,0,1.0469122,14.051493,-4.5243524)" x1="291.26184" y1="-226.14578" x2="463.77734" y2="-224.67035"/>
    <linearGradient inkscape:collect="always" xlink:href="#linearGradient4111" id="linearGradient4795" gradientUnits="userSpaceOnUse" gradientTransform="matrix(0.87882343,0,0,0.94261974,-58.043428,-70.532941)" x1="-515.06732" y1="36.35537" x2="-436.12036" y2="36.35537"/>
    <linearGradient inkscape:collect="always" xlink:href="#linearGradient4211" id="linearGradient4797" gradientUnits="userSpaceOnUse" gradientTransform="matrix(1.0469122,0,0,1.0222791,4.5243524,14.051493)" x1="226.2039" y1="463.77734" x2="226.31427" y2="487.65555"/>
    <radialGradient inkscape:collect="always" xlink:href="#linearGradient3432" id="radialGradient4799" gradientUnits="userSpaceOnUse" gradientTransform="matrix(1,0,0,0.8659908,-2.2328153,180.91371)" cx="1560.3497" cy="1528.2993" fx="1560.3497" fy="1528.2993" r="5.869"/>
    <radialGradient inkscape:collect="always" xlink:href="#linearGradient3442" id="radialGradient4801" gradientUnits="userSpaceOnUse" cx="1564.144" cy="1531.6196" fx="1564.144" fy="1531.6196" r="5.2603164"/>
    <radialGradient inkscape:collect="always" xlink:href="#linearGradient3432" id="radialGradient4803" gradientUnits="userSpaceOnUse" gradientTransform="matrix(1,0,0,0.8659908,-2.2328153,180.91371)" cx="1560.3497" cy="1528.2993" fx="1560.3497" fy="1528.2993" r="5.869"/>
    <radialGradient inkscape:collect="always" xlink:href="#linearGradient3442" id="radialGradient4805" gradientUnits="userSpaceOnUse" cx="1564.144" cy="1531.6196" fx="1564.144" fy="1531.6196" r="5.2603164"/>
    <radialGradient inkscape:collect="always" xlink:href="#linearGradient3432" id="radialGradient4807" gradientUnits="userSpaceOnUse" gradientTransform="matrix(1,0,0,0.8659908,-2.2328153,180.91371)" cx="1560.3497" cy="1528.2993" fx="1560.3497" fy="1528.2993" r="5.869"/>
    <radialGradient inkscape:collect="always" xlink:href="#linearGradient3442" id="radialGradient4809" gradientUnits="userSpaceOnUse" cx="1564.144" cy="1531.6196" fx="1564.144" fy="1531.6196" r="5.2603164"/>
    <radialGradient inkscape:collect="always" xlink:href="#linearGradient3432" id="radialGradient4811" gradientUnits="userSpaceOnUse" gradientTransform="matrix(1,0,0,0.8659908,-2.2328153,180.91371)" cx="1560.3497" cy="1528.2993" fx="1560.3497" fy="1528.2993" r="5.869"/>
    <radialGradient inkscape:collect="always" xlink:href="#linearGradient3442" id="radialGradient4813" gradientUnits="userSpaceOnUse" cx="1564.144" cy="1531.6196" fx="1564.144" fy="1531.6196" r="5.2603164"/>
    <linearGradient inkscape:collect="always" xlink:href="#linearGradient4290" id="linearGradient4815" gradientUnits="userSpaceOnUse" gradientTransform="matrix(0.05417707,0,0,1,310.09184,276.83609)" x1="113.50978" y1="-285.09863" x2="113.50978" y2="-274.91275"/>
    <linearGradient inkscape:collect="always" xlink:href="#linearGradient3256" id="linearGradient4817" gradientUnits="userSpaceOnUse" gradientTransform="matrix(1,0,0,0.85350776,-370.55916,-247.52684)" x1="665.98944" y1="286.13129" x2="703.46191" y2="286.30005"/>
    <linearGradient inkscape:collect="always" xlink:href="#linearGradient3272" id="linearGradient4819" gradientUnits="userSpaceOnUse" gradientTransform="matrix(1,0,0,0.85353143,0.17847134,5.317102)" x1="313.7442" y1="-14.498061" x2="313.7442" y2="-5.2303796"/>
    <linearGradient inkscape:collect="always" xlink:href="#linearGradient3329" id="linearGradient4821" gradientUnits="userSpaceOnUse" gradientTransform="matrix(0.81275221,0,0,1,259.29357,-32.817936)" x1="297.69559" y1="-2.9341013" x2="331.39166" y2="-2.9341013"/>
    <linearGradient inkscape:collect="always" xlink:href="#linearGradient3834" id="linearGradient4823" gradientUnits="userSpaceOnUse" x1="-453.48056" y1="-159.22433" x2="-442.8754" y2="-166.55394"/>
    <linearGradient inkscape:collect="always" xlink:href="#linearGradient3826" id="linearGradient4825" gradientUnits="userSpaceOnUse" x1="-451.48929" y1="-137.15125" x2="-445.1152" y2="-137.15125"/>
    <linearGradient inkscape:collect="always" xlink:href="#linearGradient3834" id="linearGradient4827" gradientUnits="userSpaceOnUse" gradientTransform="matrix(1,0,0,-1,0.64425657,-270.29169)" x1="-453.24179" y1="-159.31984" x2="-444.40344" y2="-164.54753"/>
    <linearGradient inkscape:collect="always" xlink:href="#linearGradient3834" id="linearGradient4829" gradientUnits="userSpaceOnUse" gradientTransform="matrix(-1,0,0,1,-916.6282,0)" x1="-453.48056" y1="-159.22433" x2="-442.8754" y2="-166.55394"/>
    <linearGradient inkscape:collect="always" xlink:href="#linearGradient3826" id="linearGradient4831" gradientUnits="userSpaceOnUse" gradientTransform="matrix(-1,0,0,1,-916.6282,0)" x1="-451.48929" y1="-137.15125" x2="-445.1152" y2="-137.15125"/>
    <linearGradient inkscape:collect="always" xlink:href="#linearGradient3834" id="linearGradient4833" gradientUnits="userSpaceOnUse" gradientTransform="matrix(-1,0,0,-1,-917.27246,-270.29169)" x1="-453.24179" y1="-159.31984" x2="-444.40344" y2="-164.54753"/>
  </defs>
  <sodipodi:namedview id="base" pagecolor="#ffffff" bordercolor="#666666" borderopacity="1.0" gridtolerance="10000" guidetolerance="10" objecttolerance="10" inkscape:pageopacity="0.0" inkscape:pageshadow="2" inkscape:zoom="1.2048921" inkscape:cx="476.39121" inkscape:cy="131.25" inkscape:document-units="px" inkscape:current-layer="layer1" showgrid="false" inkscape:showpageshadow="false" showborder="false" inkscape:window-width="1280" inkscape:window-height="977" inkscape:window-x="-4" inkscape:window-y="-4" showguides="true" inkscape:guide-bbox="true" inkscape:window-maximized="1"/>
  <g inkscape:label="Layer 1" inkscape:groupmode="layer" id="layer1" transform="translate(371.03774,289.5639)">
    <g id="g4654">
      <g transform="translate(-15.588676,-161.37235)" id="g5184">
        <rect style="fill:#808080;fill-opacity:1;fill-rule:evenodd;stroke:#000000;stroke-width:2;stroke-linecap:square;stroke-linejoin:miter;stroke-miterlimit:4;stroke-opacity:1;stroke-dasharray:none;stroke-dashoffset:0" id="rect48371" width="948" height="260.5" x="-354.44907" y="-127.19155" rx="5.9999995" ry="6"/>
        <rect ry="6" rx="5.999999" y="-127.19155" x="-319.39456" height="260.5" width="877.89099" id="rect3935" style="fill:#1d1d1d;fill-opacity:1;fill-rule:evenodd;stroke:#2f2f2f;stroke-width:2;stroke-linecap:square;stroke-linejoin:miter;stroke-miterlimit:4;stroke-opacity:1;stroke-dasharray:none;stroke-dashoffset:0"/>
      </g>
      <rect transform="scale(1,-1)" ry="4.7034211e-15" rx="4.8881861e-15" y="31.173096" x="486.69321" height="244.79523" width="56.232979" id="rect4123" style="fill:url(#linearGradient4777);fill-opacity:1;fill-rule:evenodd;stroke:#000000;stroke-width:1.96312475;stroke-linecap:square;stroke-linejoin:miter;stroke-miterlimit:4;stroke-opacity:1;stroke-dasharray:none;stroke-dashoffset:0"/>
      <g transform="matrix(0.41099643,0,0,0.38472725,-157.12741,-289.00077)" id="g4139">
        <rect style="fill:#cccccc;fill-opacity:1;stroke:url(#linearGradient4779);stroke-width:1.35000002;stroke-miterlimit:4;stroke-opacity:1;stroke-dasharray:none" id="rect4107" width="65.953011" height="48.470501" x="-508.983" y="-60.498928" rx="7.125596" ry="7.6428633" transform="scale(1,-1)"/>
        <g id="g4133" transform="matrix(1.042021,0,0,1.042021,21.984936,0.4723154)"/>
      </g>
      <g transform="matrix(1.0674285,0,0,1,22.523112,-0.82453706)" id="g4668">
        <rect style="fill:url(#linearGradient4781);fill-opacity:1;stroke:none" id="rect4288" width="819.883" height="10.181771" x="-334.02942" y="-285.09451"/>
        <rect y="-40.065987" x="-334.02942" height="10.181771" width="819.883" id="rect4300" style="fill:url(#linearGradient4783);fill-opacity:1;stroke:none"/>
      </g>
      <g inkscape:tile-y0="13.293673" inkscape:tile-x0="39.178087" inkscape:tile-h="240.6893" inkscape:tile-w="55.733418" inkscape:tile-cy="133.63832" inkscape:tile-cx="67.044796" transform="translate(-557.33208,-548.15249)" id="g8004">
        <rect ry="4.9098942e-15" rx="5.1807152e-15" y="271.88226" x="225.47243" height="229.86456" width="55.733418" id="rect8006" style="fill:#1d1d1d;fill-opacity:1;stroke:none"/>
        <rect style="fill:url(#linearGradient4785);fill-opacity:1;stroke:none" id="rect8008" width="16.267427" height="66.797066" x="251.76143" y="-352.54654" transform="scale(1,-1)" rx="1.4764998e-16" ry="8.8414411e-17"/>
        <path style="fill:url(#linearGradient4787);fill-opacity:1;stroke:none" d="m 225.48147,271.88802 0,229.85307 3.0753,0 4.51481,0 0,-10.31863 4.74382,0 7.81913,0 4.7111,0 0,10.31863 2.97716,0 0,-10.54226 3.43518,0 5.62715,0 3.40247,0 0,10.54226 1.76666,0 3.10802,0 0,-229.85307 -3.10802,0 -1.76666,0 0,10.54225 -3.40247,0 -5.62715,0 -3.43518,0 0,-10.54225 -24.76602,0 -3.0753,0 z m 24.86416,229.85307 -17.27405,0 0,0.47919 4.74382,0 7.81913,0 4.7111,0 0,-0.47919 z m -17.69936,-229.78918 4.74382,0 7.78641,0 4.74383,0 0,10.06306 -4.74383,0 -7.78641,0 -4.74382,0 0,-10.06306 z m 0,14.63137 4.74382,0 7.78641,0 4.74383,0 0,64.24385 -4.74383,0 -7.78641,0 -4.74382,0 0,-64.24385 z m 20.67652,0 3.43518,0 5.62715,0 3.40247,0 0,64.2758 -3.40247,0 -5.62715,0 -3.43518,0 0,-64.2758 z m -20.67652,68.10935 4.74382,0 7.78641,0 4.74383,0 0,64.24385 -4.74383,0 -7.78641,0 -4.74382,0 0,-64.24385 z m 20.67652,0.4153 3.43518,0 5.62715,0 3.40247,0 0,64.40358 -3.40247,0 -5.62715,0 -3.43518,0 0,-64.40358 z m -19.79318,68.17323 4.74382,0 7.78641,0 4.74382,0 0,63.41325 -4.74382,0 -7.78641,0 -4.74382,0 0,-63.41325 z m 19.79318,0.51114 3.43518,0 5.62715,0 3.40247,0 0,63.25352 -3.40247,0 -5.62715,0 -3.43518,0 0,-63.25352 z" id="path8010"/>
        <rect style="fill:url(#linearGradient4789);fill-opacity:1;stroke:none" id="rect8012" width="33.408054" height="55.049595" x="247.79779" y="359.79306" rx="2.6630633" ry="1.0590078e-16"/>
        <rect transform="matrix(0,1,-1,0,0,0)" rx="9.5527277e-17" style="fill:url(#linearGradient4791);fill-opacity:1;stroke:#aa515d;stroke-width:1.01086676;stroke-linecap:square;stroke-miterlimit:4;stroke-opacity:1;stroke-dasharray:none" id="rect8014" width="27.742851" height="16.79361" x="283.62897" y="-249.53958" ry="8.6708076e-17"/>
        <rect transform="matrix(0,1,-1,0,0,0)" rx="1.4417589e-16" ry="9.0544864e-17" y="-250.22389" x="311.91635" height="17.536718" width="176.24504" id="rect8016" style="fill:url(#linearGradient4793);fill-opacity:1;stroke:none"/>
        <g transform="matrix(0,0.27364756,-0.28024145,0,251.61812,517.57588)" id="g8018">
          <rect style="fill:#333333;fill-opacity:1;stroke:url(#linearGradient4795);stroke-width:2.05466294;stroke-miterlimit:4;stroke-opacity:1;stroke-dasharray:none" id="rect8020" width="65.953011" height="48.470501" x="-508.983" y="-60.498928" rx="7.125596" ry="7.6428633" transform="scale(1,-1)"/>
          <path transform="matrix(0,-0.94589753,0.94589753,0,-856.02803,-56.869465)" d="m -75.417542,402.19385 c 0,12.77958 -10.359894,23.13947 -23.139472,23.13947 -12.779576,0 -23.139476,-10.35989 -23.139476,-23.13947 0,-12.77958 10.3599,-23.13948 23.139476,-23.13948 12.779578,0 23.139472,10.3599 23.139472,23.13948 z" sodipodi:ry="23.139473" sodipodi:rx="23.139473" sodipodi:cy="402.19385" sodipodi:cx="-98.557014" id="path8022" style="fill:#666666;fill-opacity:1;stroke:none" sodipodi:type="arc"/>
          <g id="g8024" transform="matrix(1.042021,0,0,1.042021,21.984936,0.4723154)"/>
        </g>
        <rect style="fill:url(#linearGradient4797);fill-opacity:1;stroke:none" id="rect8034" width="7.0319061" height="24.410185" x="237.93958" y="488.16138"/>
        <g transform="translate(0,1.992484)" id="g8036">
          <g id="g8038" transform="matrix(0.30219871,0,0,0.342155,171.27479,247.60456)" style="fill:#4d4d4d;stroke:none">
            <path sodipodi:nodetypes="cccc" id="path8040" d="m 312.80547,367.26764 -6.86651,-12.04311 13.73302,0 -6.86651,12.04311 z" style="fill:#4d4d4d;fill-opacity:1;stroke:none"/>
            <rect ry="4.8028903e-15" rx="4.9485672e-15" y="344.46832" x="310.10471" height="12.855786" width="4.4995255" id="rect8042" style="fill:#4d4d4d;fill-opacity:1;stroke:none"/>
          </g>
          <path id="path8044" style="fill:none;stroke:#009c00;stroke-width:0.53703713;stroke-linecap:square;stroke-miterlimit:4;stroke-opacity:1;stroke-dasharray:none;stroke-dashoffset:0" d="m 261.89175,381.49447 7.68761,0 c 0,0 0,0 0,0 m 0.10296,0.0311 c 0.54967,0 0.99528,1.5023 0.99528,3.35549 0,1.8532 -0.44561,3.3555 -1.04676,3.37104 l -7.73909,0.0155 c 0,0 0,0 0,0 m 1.0296,-3.38658 c 0,1.85319 -0.4456,3.3555 -0.99528,3.3555 -0.54967,0 -0.99527,-1.50231 -0.99527,-3.3555 0,-1.85319 0.4456,-3.35549 0.99527,-3.35549 0.54968,0 0.99528,1.5023 0.99528,3.35549 z"/>
          <g id="g8046" transform="matrix(0.3383645,0,0,0.28792221,151.58408,302.32204)" style="stroke:#6d635b;stroke-width:1.92230046;stroke-miterlimit:4;stroke-opacity:1;stroke-dasharray:none">
            <path id="path8048" style="fill:none;stroke:#6d635b;stroke-width:1.92230046;stroke-linecap:square;stroke-miterlimit:4;stroke-opacity:1;stroke-dasharray:none;stroke-dashoffset:0" d="m 325.35232,328.94745 23.99747,0 c 0,0 0,0 0,0 m 0.3214,0.10713 c 1.71584,0 3.10681,5.18016 3.10681,11.57021 0,6.39005 -1.39097,11.57021 -3.26751,11.62377 l -24.15817,0.0536 c 0,0 0,0 0,0 m 3.21396,-11.67736 c 0,6.39005 -1.39097,11.57021 -3.10681,11.57021 -1.71585,0 -3.10682,-5.18016 -3.10682,-11.57021 0,-6.39005 1.39097,-11.57021 3.10682,-11.57021 1.71584,0 3.10681,5.18016 3.10681,11.57021 z"/>
            <g style="fill:#b3b3b3;stroke:#6d635b;stroke-width:2.18505812;stroke-miterlimit:4;stroke-opacity:1;stroke-dasharray:none" transform="matrix(0.87974794,0,0,0.87974794,40.193859,40.619475)" id="g8050">
              <path style="fill:#b3b3b3;stroke:#6d635b;stroke-width:2.18505812;stroke-linecap:square;stroke-miterlimit:4;stroke-opacity:1;stroke-dasharray:none;stroke-dashoffset:0" d="M 689.28336,648.29948 728.83,612.85397" id="path8052" transform="translate(-371.03774,-289.5639)"/>
              <path id="path8054" d="M 357.79226,358.73558 318.24562,323.29007" style="fill:#b3b3b3;stroke:#6d635b;stroke-width:2.18505812;stroke-linecap:square;stroke-miterlimit:4;stroke-opacity:1;stroke-dasharray:none;stroke-dashoffset:0"/>
            </g>
          </g>
        </g>
        <g transform="matrix(0,1,-1,0,704.42436,193.1109)" id="g8056">
          <g transform="matrix(0,-1.0469122,1.0222791,0,-178.16963,699.90002)" id="g8058">
            <rect style="fill:#333333;fill-opacity:1;stroke:#000000;stroke-width:0.80000001;stroke-miterlimit:4;stroke-opacity:1;stroke-dasharray:none" id="rect8060" width="43.080589" height="60.551834" x="218.33884" y="394.09583" rx="4.7462206" ry="4.9985824"/>
            <g id="g8062">
              <path id="path8064" d="m 240.00794,394.38577 16.35869,0 c 2.55887,0 4.61889,2.20324 4.61889,4.93998 l 0,49.96194 c 0,2.73674 -2.06002,4.93997 -4.61889,4.93997 l -16.35869,0" style="fill:#b3b3b3;fill-opacity:1;stroke:none"/>
              <path id="path8066" d="m 239.73994,394.67773 0,59.25796" style="fill:#0000ff;fill-opacity:1;stroke:#0000ff;stroke-width:0.55950159;stroke-miterlimit:4;stroke-dasharray:none"/>
            </g>
          </g>
          <g transform="scale(0.98816533,1.0119764)" style="font-size:9.37358951999999950px;font-style:normal;font-variant:normal;font-weight:bold;font-stretch:normal;writing-mode:lr-tb;fill:#ffffff;stroke:#000000;stroke-width:0.46867948999999998px;stroke-linecap:butt;stroke-linejoin:miter;stroke-opacity:1;font-family:Hancock;-inkscape-font-specification:Bitstream Vera Sans" id="text8068">
            <path d="m 243.26911,452.46239 0.82385,-0.10984 c 0.0946,0.46685 0.25554,0.80325 0.48286,1.00921 0.22732,0.20597 0.50423,0.30895 0.83072,0.30895 0.38751,0 0.71476,-0.13426 0.98176,-0.40277 0.26698,-0.26852 0.40047,-0.60111 0.40048,-0.99778 -1e-5,-0.37836 -0.12358,-0.69035 -0.37073,-0.93598 -0.24716,-0.24563 -0.56145,-0.36844 -0.94286,-0.36845 -0.15561,10e-6 -0.34937,0.0305 -0.58127,0.0915 l 0.0915,-0.72316 c 0.0549,0.006 0.0992,0.009 0.13273,0.009 0.3509,0 0.66671,-0.0915 0.94743,-0.27462 0.28072,-0.18307 0.42108,-0.46532 0.42108,-0.84673 0,-0.30208 -0.10222,-0.55228 -0.30666,-0.75062 -0.20444,-0.19833 -0.46837,-0.2975 -0.79181,-0.29751 -0.32039,1e-5 -0.58737,0.1007 -0.80096,0.30208 -0.2136,0.20139 -0.3509,0.50347 -0.41193,0.90624 l -0.82385,-0.14646 c 0.10069,-0.55228 0.32954,-0.98023 0.68654,-1.28384 0.357,-0.3036 0.80097,-0.4554 1.33189,-0.4554 0.36616,0 0.70333,0.0786 1.01151,0.23571 0.30818,0.15715 0.54389,0.3715 0.70714,0.64306 0.16324,0.27157 0.24486,0.55992 0.24487,0.86504 -1e-5,0.28988 -0.0778,0.55382 -0.23343,0.79181 -0.15562,0.23801 -0.38599,0.42719 -0.69112,0.56755 0.39667,0.0915 0.70485,0.28148 0.92455,0.56983 0.21968,0.28835 0.32953,0.64916 0.32954,1.08244 -1e-5,0.58586 -0.2136,1.08245 -0.64078,1.4898 -0.42718,0.40735 -0.96726,0.61102 -1.62024,0.61102 -0.5889,0 -1.07787,-0.17545 -1.46691,-0.52635 -0.38904,-0.35089 -0.61102,-0.80554 -0.66594,-1.36393 z" style="font-weight:normal;fill:#ffffff;stroke:none;font-family:Arial;-inkscape-font-specification:Arial" id="path3206"/>
            <path d="m 248.48225,450.92454 c 0,-0.79333 0.0816,-1.43182 0.24487,-1.91545 0.16324,-0.48363 0.40582,-0.85665 0.72773,-1.11907 0.32191,-0.2624 0.72697,-0.39361 1.21518,-0.39361 0.36005,0 0.67586,0.0725 0.94743,0.2174 0.27156,0.14494 0.49583,0.35396 0.67281,0.62704 0.17697,0.2731 0.31581,0.60569 0.4165,0.99778 0.10069,0.39209 0.15104,0.92073 0.15104,1.58591 0,0.78724 -0.0809,1.42267 -0.24258,1.9063 -0.16172,0.48363 -0.40353,0.85741 -0.72544,1.12135 -0.32192,0.26394 -0.7285,0.39591 -1.21976,0.39591 -0.64688,0 -1.15492,-0.2319 -1.52412,-0.6957 -0.44244,-0.55839 -0.66366,-1.46767 -0.66366,-2.72786 z m 0.84673,0 c 0,1.10152 0.12892,1.83459 0.38676,2.19922 0.25783,0.36463 0.57593,0.54695 0.95429,0.54695 0.37836,0 0.69646,-0.18308 0.95429,-0.54924 0.25784,-0.36615 0.38675,-1.09846 0.38676,-2.19693 -1e-5,-1.10457 -0.12892,-1.8384 -0.38676,-2.20151 -0.25783,-0.3631 -0.57898,-0.54465 -0.96344,-0.54466 -0.37837,1e-5 -0.68044,0.1602 -0.90624,0.48058 -0.28377,0.40888 -0.42566,1.16408 -0.42566,2.26559 z" style="font-weight:normal;fill:#ffffff;stroke:none;font-family:Arial;-inkscape-font-specification:Arial" id="path3208"/>
            <path d="m 253.69997,450.92454 c 0,-0.79333 0.0816,-1.43182 0.24487,-1.91545 0.16324,-0.48363 0.40582,-0.85665 0.72773,-1.11907 0.32191,-0.2624 0.72697,-0.39361 1.21518,-0.39361 0.36005,0 0.67586,0.0725 0.94743,0.2174 0.27156,0.14494 0.49583,0.35396 0.67281,0.62704 0.17697,0.2731 0.31581,0.60569 0.4165,0.99778 0.10069,0.39209 0.15104,0.92073 0.15104,1.58591 0,0.78724 -0.0809,1.42267 -0.24258,1.9063 -0.16172,0.48363 -0.40353,0.85741 -0.72544,1.12135 -0.32192,0.26394 -0.7285,0.39591 -1.21976,0.39591 -0.64688,0 -1.15492,-0.2319 -1.52412,-0.6957 -0.44244,-0.55839 -0.66366,-1.46767 -0.66366,-2.72786 z m 0.84674,0 c -1e-5,1.10152 0.12891,1.83459 0.38675,2.19922 0.25783,0.36463 0.57593,0.54695 0.95429,0.54695 0.37836,0 0.69646,-0.18308 0.95429,-0.54924 0.25784,-0.36615 0.38675,-1.09846 0.38676,-2.19693 -10e-6,-1.10457 -0.12892,-1.8384 -0.38676,-2.20151 -0.25783,-0.3631 -0.57898,-0.54465 -0.96344,-0.54466 -0.37837,1e-5 -0.68044,0.1602 -0.90624,0.48058 -0.28377,0.40888 -0.42566,1.16408 -0.42565,2.26559 z" style="font-weight:normal;fill:#ffffff;stroke:none;font-family:Arial;-inkscape-font-specification:Arial" id="path3210"/>
            <path d="m 264.9913,451.60193 0,-0.78724 2.84229,-0.005 0,2.48986 c -0.43635,0.34784 -0.88641,0.60949 -1.3502,0.78494 -0.46381,0.17545 -0.93981,0.26318 -1.42801,0.26318 -0.65909,0 -1.2579,-0.14113 -1.79645,-0.42337 -0.53856,-0.28225 -0.94514,-0.69036 -1.21976,-1.22433 -0.27462,-0.53398 -0.41193,-1.13051 -0.41193,-1.78959 0,-0.65298 0.13655,-1.26247 0.40964,-1.82849 0.27309,-0.56601 0.66595,-0.98633 1.17857,-1.26095 0.51261,-0.27461 1.10304,-0.41192 1.77127,-0.41193 0.48516,10e-6 0.92378,0.0786 1.31588,0.23572 0.39208,0.15714 0.6995,0.37608 0.92225,0.65679 0.22274,0.28072 0.39209,0.64688 0.50804,1.09847 l -0.80096,0.21969 c -0.1007,-0.34174 -0.2258,-0.61026 -0.37531,-0.80554 -0.14952,-0.19528 -0.36311,-0.35166 -0.64078,-0.46914 -0.27767,-0.11747 -0.58585,-0.17621 -0.92454,-0.17621 -0.40583,0 -0.75672,0.0618 -1.0527,0.18536 -0.29598,0.12359 -0.53474,0.28607 -0.71629,0.48745 -0.18155,0.20139 -0.32268,0.42261 -0.42337,0.66366 -0.17087,0.41498 -0.25631,0.86504 -0.25631,1.3502 0,0.59805 0.10298,1.09847 0.30895,1.50123 0.20596,0.40278 0.50575,0.7018 0.89937,0.89709 0.39361,0.19528 0.81164,0.29292 1.25408,0.29292 0.38446,0 0.75977,-0.074 1.12593,-0.22198 0.36615,-0.14799 0.64382,-0.30589 0.83301,-0.47372 l 0,-1.2495 z" style="font-weight:normal;fill:#ffffff;stroke:none;font-family:Arial;-inkscape-font-specification:Arial" id="path3212"/>
            <path d="m 269.1014,454.23367 0,-6.7098 2.51732,0 c 0.51262,0 0.92378,0.0679 1.23349,0.20367 0.3097,0.13579 0.55228,0.3448 0.72773,0.62704 0.17545,0.28225 0.26317,0.57747 0.26318,0.88564 -10e-6,0.28683 -0.0778,0.55687 -0.23343,0.81012 -0.15562,0.25326 -0.39057,0.4577 -0.70485,0.61331 0.40582,0.11901 0.71782,0.32192 0.93599,0.60874 0.21816,0.28682 0.32725,0.62552 0.32725,1.01608 0,0.31429 -0.0664,0.60645 -0.1991,0.87649 -0.13273,0.27004 -0.29674,0.47829 -0.49202,0.62475 -0.19529,0.14646 -0.44015,0.25707 -0.7346,0.33183 -0.29445,0.0747 -0.65527,0.11213 -1.08245,0.11213 z m 0.88793,-3.8904 1.45089,0 c 0.39361,0 0.67586,-0.0259 0.84674,-0.0778 0.22579,-0.0671 0.3959,-0.1785 0.51033,-0.33412 0.11441,-0.15561 0.17163,-0.35089 0.17163,-0.58585 0,-0.22274 -0.0534,-0.41878 -0.16019,-0.58814 -0.1068,-0.16934 -0.25937,-0.28529 -0.4577,-0.34784 -0.19834,-0.0625 -0.53855,-0.0938 -1.02066,-0.0938 l -1.34104,0 z m 0,3.09859 1.67058,0 c 0.28682,0 0.48821,-0.0107 0.60416,-0.032 0.20443,-0.0366 0.37531,-0.0976 0.51262,-0.18308 0.1373,-0.0854 0.2502,-0.20977 0.33869,-0.37302 0.0885,-0.16324 0.13273,-0.35166 0.13273,-0.56525 0,-0.2502 -0.0641,-0.46761 -0.19223,-0.65221 -0.12816,-0.18461 -0.30589,-0.31429 -0.53321,-0.38905 -0.22733,-0.0747 -0.55458,-0.11213 -0.98176,-0.11213 l -1.55158,0 z" style="font-weight:normal;fill:#ffffff;stroke:none;font-family:Arial;-inkscape-font-specification:Arial" id="path3214"/>
          </g>
          <g transform="scale(1.051434,0.95108204)" style="font-size:18.57454872px;font-style:normal;font-variant:normal;font-weight:bold;font-stretch:normal;writing-mode:lr-tb;fill:none;stroke:#000000;stroke-width:0.92872751px;stroke-linecap:butt;stroke-linejoin:miter;stroke-opacity:1;font-family:Hancock;-inkscape-font-specification:Bitstream Vera Sans" id="text8072">
            <path d="m 227.87415,491.10989 0,-0.42445 c -0.22493,0.3265 -0.53057,0.48975 -0.91694,0.48975 -0.17051,0 -0.32968,-0.0326 -0.47751,-0.0979 -0.14784,-0.0653 -0.25758,-0.14738 -0.32923,-0.24624 -0.0717,-0.0989 -0.12198,-0.21993 -0.15101,-0.36323 -0.0199,-0.0961 -0.0299,-0.24851 -0.0299,-0.45711 l 0,-1.79034 0.48976,0 0,1.6026 c 0,0.25576 0.01,0.42808 0.0299,0.51696 0.0308,0.12879 0.0961,0.22992 0.19591,0.30338 0.0998,0.0735 0.22311,0.1102 0.37004,0.1102 0.14692,0 0.28478,-0.0376 0.41357,-0.11292 0.12879,-0.0753 0.21993,-0.17776 0.27345,-0.30746 0.0535,-0.12969 0.0803,-0.31789 0.0803,-0.56458 l 0,-1.54818 0.48976,0 0,2.88957 z" style="font-size:5.57236481px;font-weight:normal;fill:#cccccc;stroke:none;font-family:Arial;-inkscape-font-specification:Arial" id="path3217"/>
            <path d="m 229.07134,491.10989 0,-3.98881 0.48976,0 0,3.98881 z" style="font-size:5.57236481px;font-weight:normal;fill:#cccccc;stroke:none;font-family:Arial;-inkscape-font-specification:Arial" id="path3219"/>
            <path d="m 231.39225,490.67183 0.0707,0.43262 c -0.13786,0.029 -0.2612,0.0435 -0.37004,0.0435 -0.17776,0 -0.31562,-0.0281 -0.41357,-0.0843 -0.0979,-0.0562 -0.16688,-0.13015 -0.20679,-0.22175 -0.0399,-0.0916 -0.0599,-0.28433 -0.0599,-0.57819 l 0,-1.66246 -0.35915,0 0,-0.38092 0.35915,0 0,-0.71559 0.48704,-0.29386 0,1.00945 0.49248,0 0,0.38092 -0.49248,0 0,1.68967 c 0,0.13967 0.009,0.22946 0.0259,0.26937 0.0172,0.0399 0.0453,0.0717 0.0844,0.0952 0.039,0.0236 0.0948,0.0354 0.16733,0.0354 0.0544,0 0.12607,-0.006 0.21495,-0.019 z" style="font-size:5.57236481px;font-weight:normal;fill:#cccccc;stroke:none;font-family:Arial;-inkscape-font-specification:Arial" id="path3221"/>
            <path d="m 231.86296,491.10989 0,-2.88957 0.44079,0 0,0.43806 c 0.11246,-0.20497 0.2163,-0.34011 0.31154,-0.40541 0.0952,-0.0653 0.19998,-0.098 0.31426,-0.098 0.16506,0 0.33285,0.0526 0.50336,0.15781 l -0.16869,0.45439 c -0.11972,-0.0708 -0.23944,-0.10612 -0.35916,-0.10612 -0.10702,0 -0.20316,0.0322 -0.28841,0.0966 -0.0853,0.0644 -0.14603,0.15373 -0.1823,0.26801 -0.0544,0.17414 -0.0816,0.3646 -0.0816,0.57138 l 0,1.51281 z" style="font-size:5.57236481px;font-weight:normal;fill:#cccccc;stroke:none;font-family:Arial;-inkscape-font-specification:Arial" id="path3223"/>
            <path d="m 235.61506,490.75346 c -0.1814,0.15418 -0.35599,0.26302 -0.52377,0.3265 -0.16779,0.0635 -0.34782,0.0952 -0.5401,0.0952 -0.31743,0 -0.56141,-0.0775 -0.73191,-0.23263 -0.17051,-0.15509 -0.25577,-0.35326 -0.25577,-0.59451 0,-0.14149 0.0322,-0.27073 0.0966,-0.38773 0.0644,-0.117 0.14875,-0.21087 0.25305,-0.28161 0.1043,-0.0707 0.22175,-0.12425 0.35235,-0.16053 0.0961,-0.0254 0.24125,-0.0499 0.43534,-0.0735 0.39543,-0.0472 0.68657,-0.10339 0.8734,-0.16869 0.002,-0.0671 0.003,-0.10974 0.003,-0.12788 -10e-6,-0.19953 -0.0463,-0.34011 -0.13877,-0.42174 -0.12516,-0.11064 -0.31109,-0.16597 -0.55778,-0.16597 -0.23037,0 -0.40042,0.0404 -0.51017,0.12108 -0.10974,0.0807 -0.19091,0.22357 -0.24351,0.42854 l -0.47888,-0.0653 c 0.0435,-0.20497 0.11518,-0.37049 0.21495,-0.49656 0.0998,-0.12606 0.24397,-0.22311 0.43262,-0.29113 0.18865,-0.068 0.40722,-0.10203 0.65573,-0.10203 0.24669,0 0.44713,0.029 0.60132,0.0871 0.15418,0.0581 0.26755,0.13106 0.34011,0.21904 0.0725,0.088 0.12334,0.19908 0.15237,0.3333 0.0163,0.0834 0.0245,0.234 0.0245,0.45167 l 0,0.65301 c -1e-5,0.4553 0.0104,0.74326 0.0313,0.86388 0.0208,0.12063 0.0621,0.23626 0.1238,0.34691 l -0.51153,0 c -0.0508,-0.10158 -0.0834,-0.22039 -0.0979,-0.35643 z m -0.0408,-1.0938 c -0.17776,0.0726 -0.44441,0.13424 -0.79993,0.18502 -0.20135,0.029 -0.34374,0.0617 -0.42718,0.098 -0.0834,0.0363 -0.14784,0.0893 -0.19319,0.15917 -0.0453,0.0698 -0.068,0.14738 -0.068,0.23263 0,0.13061 0.0494,0.23944 0.14829,0.32651 0.0989,0.0871 0.24352,0.1306 0.43398,0.1306 0.18865,0 0.35644,-0.0413 0.50336,-0.1238 0.14693,-0.0825 0.25486,-0.19545 0.32379,-0.33875 0.0526,-0.11065 0.0789,-0.2739 0.0789,-0.48976 z" style="font-size:5.57236481px;font-weight:normal;fill:#cccccc;stroke:none;font-family:Arial;-inkscape-font-specification:Arial" id="path3225"/>
            <path d="m 236.69797,490.05691 0.48976,-0.0653 c 0.0562,0.27753 0.15191,0.47752 0.28705,0.59996 0.13514,0.12244 0.29975,0.18366 0.49384,0.18366 0.23037,0 0.42491,-0.0798 0.58363,-0.23944 0.15872,-0.15963 0.23807,-0.35734 0.23808,-0.59315 -1e-5,-0.22493 -0.0735,-0.4104 -0.22039,-0.55642 -0.14693,-0.14602 -0.33377,-0.21903 -0.56051,-0.21904 -0.0925,1e-5 -0.20769,0.0182 -0.34555,0.0544 l 0.0544,-0.4299 c 0.0326,0.004 0.059,0.005 0.0789,0.005 0.2086,10e-6 0.39634,-0.0544 0.56323,-0.16325 0.16688,-0.10883 0.25032,-0.27662 0.25032,-0.50336 0,-0.17958 -0.0608,-0.32832 -0.1823,-0.44623 -0.12154,-0.1179 -0.27844,-0.17685 -0.47071,-0.17685 -0.19047,0 -0.34918,0.0599 -0.47616,0.17958 -0.12697,0.11972 -0.2086,0.2993 -0.24488,0.53873 l -0.48976,-0.0871 c 0.0599,-0.32831 0.19591,-0.58272 0.40814,-0.76321 0.21222,-0.18048 0.47615,-0.27072 0.79177,-0.27072 0.21767,0 0.41811,0.0467 0.60132,0.14012 0.1832,0.0934 0.32333,0.22085 0.42037,0.38229 0.097,0.16144 0.14557,0.33285 0.14557,0.51424 0,0.17233 -0.0463,0.32923 -0.13876,0.47071 -0.0925,0.14149 -0.22947,0.25396 -0.41086,0.33739 0.23581,0.0544 0.41902,0.16734 0.54962,0.33875 0.1306,0.17142 0.1959,0.38592 0.1959,0.64349 0,0.34828 -0.12697,0.64349 -0.38092,0.88565 -0.25395,0.24216 -0.57501,0.36324 -0.96319,0.36324 -0.35009,0 -0.64077,-0.1043 -0.87204,-0.3129 -0.23128,-0.20861 -0.36324,-0.47888 -0.39589,-0.81083 z" style="font-size:5.57236481px;font-weight:normal;fill:#cccccc;stroke:none;font-family:Arial;-inkscape-font-specification:Arial" id="path3227"/>
            <path d="m 242.37101,490.63918 0,0.47071 -2.63654,0 c -0.004,-0.1179 0.0154,-0.23127 0.0571,-0.34011 0.0671,-0.17957 0.17459,-0.35643 0.32243,-0.53057 0.14783,-0.17413 0.36142,-0.37548 0.64076,-0.60403 0.43353,-0.35553 0.72648,-0.63714 0.87885,-0.84484 0.15236,-0.20769 0.22855,-0.40405 0.22855,-0.58907 0,-0.19408 -0.0694,-0.35779 -0.20815,-0.49112 -0.13876,-0.13332 -0.3197,-0.19998 -0.54281,-0.19998 -0.23581,0 -0.42446,0.0707 -0.56594,0.21223 -0.14149,0.14149 -0.21314,0.33739 -0.21495,0.58771 l -0.50337,-0.0517 c 0.0345,-0.37548 0.16416,-0.66162 0.38909,-0.85844 0.22492,-0.1968 0.52694,-0.29521 0.90605,-0.29521 0.38274,0 0.68566,0.10611 0.90878,0.31834 0.22311,0.21223 0.33466,0.47525 0.33466,0.78906 0,0.15962 -0.0326,0.31653 -0.0979,0.47071 -0.0653,0.15418 -0.17368,0.31653 -0.32514,0.48704 -0.15147,0.17051 -0.40315,0.4045 -0.75505,0.70198 -0.29385,0.2467 -0.4825,0.41403 -0.56594,0.50201 -0.0834,0.088 -0.15237,0.1764 -0.20679,0.26528 z" style="font-size:5.57236481px;font-weight:normal;fill:#cccccc;stroke:none;font-family:Arial;-inkscape-font-specification:Arial" id="path3229"/>
            <path d="m 242.89886,489.1427 c 0,-0.47162 0.0485,-0.85118 0.14556,-1.13869 0.097,-0.28751 0.24125,-0.50926 0.43262,-0.66526 0.19137,-0.15599 0.43217,-0.23399 0.7224,-0.23399 0.21404,0 0.40178,0.0431 0.56322,0.12924 0.16144,0.0862 0.29476,0.21042 0.39997,0.37276 0.1052,0.16235 0.18774,0.36007 0.2476,0.59315 0.0599,0.23309 0.0898,0.54735 0.0898,0.94279 0,0.46799 -0.0481,0.84574 -0.14421,1.13324 -0.0961,0.28751 -0.23989,0.50972 -0.43126,0.66662 -0.19137,0.1569 -0.43307,0.23536 -0.72511,0.23536 -0.38455,0 -0.68657,-0.13786 -0.90606,-0.41358 -0.26301,-0.33194 -0.39452,-0.87249 -0.39452,-1.62164 z m 0.50336,0 c 0,0.65482 0.0766,1.09062 0.22991,1.30738 0.15328,0.21676 0.34238,0.32515 0.56731,0.32515 0.22492,0 0.41402,-0.10884 0.5673,-0.32651 0.15328,-0.21767 0.22991,-0.65301 0.22992,-1.30602 -1e-5,-0.65664 -0.0766,-1.09289 -0.22992,-1.30875 -0.15328,-0.21585 -0.34419,-0.32378 -0.57274,-0.32378 -0.22493,0 -0.40451,0.0952 -0.53874,0.28569 -0.16869,0.24307 -0.25304,0.69201 -0.25304,1.34684 z" style="font-size:5.57236481px;font-weight:normal;fill:#cccccc;stroke:none;font-family:Arial;-inkscape-font-specification:Arial" id="path3231"/>
            <path d="m 247.56517,489.82836 0.49792,-0.0435 c 0.0236,0.19954 0.0785,0.36324 0.16461,0.49112 0.0862,0.12789 0.21994,0.23128 0.40133,0.31018 0.18139,0.0789 0.38546,0.11836 0.6122,0.11836 0.20134,0 0.37911,-0.0299 0.53329,-0.0898 0.15419,-0.0599 0.26892,-0.14194 0.3442,-0.24624 0.0753,-0.1043 0.11291,-0.21812 0.11291,-0.34147 0,-0.12516 -0.0363,-0.23444 -0.10883,-0.32786 -0.0726,-0.0934 -0.19228,-0.17187 -0.35916,-0.23536 -0.10702,-0.0417 -0.34374,-0.10657 -0.71015,-0.19454 -0.36641,-0.088 -0.62308,-0.17096 -0.77001,-0.24896 -0.19046,-0.0998 -0.3324,-0.22357 -0.42582,-0.3714 -0.0934,-0.14784 -0.14012,-0.31336 -0.14012,-0.49656 0,-0.20135 0.0571,-0.38954 0.17141,-0.56459 0.11428,-0.17504 0.28116,-0.30791 0.50065,-0.39861 0.21948,-0.0907 0.46345,-0.13604 0.73191,-0.13604 0.29567,0 0.55642,0.0476 0.78226,0.14285 0.22583,0.0952 0.39951,0.23536 0.52105,0.42037 0.12152,0.18503 0.18683,0.39453 0.1959,0.62853 l -0.50609,0.0381 c -0.0272,-0.25213 -0.11926,-0.4426 -0.27616,-0.57139 -0.15691,-0.12878 -0.38864,-0.19318 -0.69519,-0.19318 -0.31925,0 -0.55189,0.0585 -0.69791,0.1755 -0.14602,0.117 -0.21903,0.25803 -0.21903,0.42309 0,0.14331 0.0517,0.26121 0.15509,0.35372 0.10158,0.0925 0.36687,0.18729 0.79586,0.28433 0.42899,0.097 0.7233,0.18185 0.88293,0.2544 0.23218,0.10703 0.40359,0.24262 0.51424,0.40678 0.11065,0.16416 0.16597,0.35326 0.16598,0.5673 -1e-5,0.21223 -0.0608,0.41221 -0.1823,0.59995 -0.12154,0.18774 -0.29613,0.33376 -0.52377,0.43807 -0.22765,0.1043 -0.48387,0.15645 -0.76865,0.15645 -0.36097,0 -0.66344,-0.0526 -0.90741,-0.15782 -0.24398,-0.1052 -0.43535,-0.26347 -0.57411,-0.47479 -0.13877,-0.21132 -0.21178,-0.4503 -0.21903,-0.71695 z" style="font-size:5.57236481px;font-weight:normal;fill:#cccccc;stroke:none;font-family:Arial;-inkscape-font-specification:Arial" id="path3233"/>
            <path d="m 254.31296,489.71136 0.52785,0.13332 c -0.11066,0.43353 -0.30973,0.76412 -0.59724,0.99177 -0.28751,0.22764 -0.63895,0.34147 -1.05434,0.34147 -0.4299,0 -0.77953,-0.0875 -1.0489,-0.26257 -0.26937,-0.17504 -0.47434,-0.42854 -0.61492,-0.76049 -0.14058,-0.33194 -0.21087,-0.68838 -0.21087,-1.0693 0,-0.41539 0.0794,-0.77772 0.23808,-1.08699 0.15872,-0.30927 0.38455,-0.54418 0.6775,-0.70471 0.29295,-0.16053 0.61537,-0.2408 0.96727,-0.2408 0.39906,0 0.73464,0.10158 1.00673,0.30474 0.27208,0.20316 0.46164,0.48885 0.56866,0.85708 l -0.51968,0.12244 c -0.0925,-0.29023 -0.22675,-0.50155 -0.40269,-0.63397 -0.17596,-0.13241 -0.39726,-0.19862 -0.6639,-0.19862 -0.30655,0 -0.56277,0.0735 -0.76865,0.22039 -0.20588,0.14693 -0.35054,0.34419 -0.43398,0.59179 -0.0834,0.2476 -0.12516,0.50291 -0.12516,0.76593 0,0.3392 0.0494,0.63532 0.14829,0.88836 0.0989,0.25305 0.25259,0.44215 0.46119,0.56731 0.2086,0.12516 0.43443,0.18774 0.6775,0.18774 0.29566,0 0.54598,-0.0852 0.75096,-0.25576 0.20497,-0.17051 0.34373,-0.42355 0.4163,-0.75913 z" style="font-size:5.57236481px;font-weight:normal;fill:#cccccc;stroke:none;font-family:Arial;-inkscape-font-specification:Arial" id="path3235"/>
            <path d="m 255.31424,489.82836 0.49792,-0.0435 c 0.0236,0.19954 0.0785,0.36324 0.16461,0.49112 0.0862,0.12789 0.21994,0.23128 0.40133,0.31018 0.18139,0.0789 0.38546,0.11836 0.6122,0.11836 0.20134,0 0.37911,-0.0299 0.53329,-0.0898 0.15418,-0.0599 0.26891,-0.14194 0.3442,-0.24624 0.0753,-0.1043 0.11291,-0.21812 0.11291,-0.34147 0,-0.12516 -0.0363,-0.23444 -0.10883,-0.32786 -0.0726,-0.0934 -0.19228,-0.17187 -0.35916,-0.23536 -0.10702,-0.0417 -0.34374,-0.10657 -0.71015,-0.19454 -0.36641,-0.088 -0.62308,-0.17096 -0.77001,-0.24896 -0.19046,-0.0998 -0.3324,-0.22357 -0.42582,-0.3714 -0.0934,-0.14784 -0.14012,-0.31336 -0.14012,-0.49656 0,-0.20135 0.0571,-0.38954 0.17141,-0.56459 0.11428,-0.17504 0.28116,-0.30791 0.50065,-0.39861 0.21948,-0.0907 0.46345,-0.13604 0.73191,-0.13604 0.29567,0 0.55642,0.0476 0.78226,0.14285 0.22583,0.0952 0.39951,0.23536 0.52104,0.42037 0.12153,0.18503 0.18683,0.39453 0.19591,0.62853 l -0.50609,0.0381 c -0.0272,-0.25213 -0.11926,-0.4426 -0.27617,-0.57139 -0.1569,-0.12878 -0.38863,-0.19318 -0.69518,-0.19318 -0.31925,0 -0.55189,0.0585 -0.69791,0.1755 -0.14602,0.117 -0.21903,0.25803 -0.21903,0.42309 0,0.14331 0.0517,0.26121 0.15509,0.35372 0.10158,0.0925 0.36687,0.18729 0.79586,0.28433 0.42899,0.097 0.7233,0.18185 0.88293,0.2544 0.23218,0.10703 0.40359,0.24262 0.51424,0.40678 0.11065,0.16416 0.16597,0.35326 0.16598,0.5673 -10e-6,0.21223 -0.0608,0.41221 -0.1823,0.59995 -0.12154,0.18774 -0.29613,0.33376 -0.52377,0.43807 -0.22765,0.1043 -0.48387,0.15645 -0.76865,0.15645 -0.36097,0 -0.66344,-0.0526 -0.90741,-0.15782 -0.24398,-0.1052 -0.43535,-0.26347 -0.57411,-0.47479 -0.13877,-0.21132 -0.21178,-0.4503 -0.21903,-0.71695 z" style="font-size:5.57236481px;font-weight:normal;fill:#cccccc;stroke:none;font-family:Arial;-inkscape-font-specification:Arial" id="path3237"/>
            <path d="m 259.30577,491.10989 0,-3.98881 0.52785,0 0,3.98881 z" style="font-size:5.57236481px;font-weight:normal;fill:#cccccc;stroke:none;font-family:Arial;-inkscape-font-specification:Arial" id="path3239"/>
          </g>
          <g transform="scale(0.99782642,1.0021783)" style="font-size:5.64002752px;font-style:normal;font-variant:normal;font-weight:bold;font-stretch:normal;writing-mode:lr-tb;fill:none;stroke:#000000;stroke-width:0.28200138px;stroke-linecap:butt;stroke-linejoin:miter;stroke-opacity:1;font-family:Hancock;-inkscape-font-specification:Bitstream Vera Sans" id="text8076">
            <path d="m 278.15858,454.29449 -0.4957,0 0,-3.15874 c -0.11934,0.11383 -0.27585,0.22766 -0.46955,0.34148 -0.19369,0.11384 -0.36764,0.19921 -0.52186,0.25612 l 0,-0.47918 c 0.27722,-0.13035 0.51957,-0.28824 0.72703,-0.47368 0.20746,-0.18542 0.35434,-0.36535 0.44063,-0.53977 l 0.31945,0 z" style="font-weight:normal;fill:#e6e6e6;stroke:none;font-family:Arial;-inkscape-font-specification:Arial" id="path3242"/>
            <path d="m 279.43089,453.23699 0.52049,-0.0441 c 0.0386,0.25336 0.12806,0.44384 0.26851,0.57144 0.14045,0.12759 0.30982,0.19139 0.5081,0.19139 0.23867,0 0.44063,-0.09 0.60586,-0.26988 0.16524,-0.17992 0.24785,-0.4186 0.24786,-0.71602 -10e-6,-0.28273 -0.0794,-0.5058 -0.23822,-0.6692 -0.15881,-0.1634 -0.36673,-0.2451 -0.62376,-0.2451 -0.15973,0 -0.30385,0.0363 -0.43237,0.10878 -0.12851,0.0725 -0.22949,0.16661 -0.30293,0.28227 l -0.46541,-0.0606 0.39106,-2.0737 2.0076,0 0,0.47367 -1.61104,0 -0.21756,1.08505 c 0.24234,-0.16891 0.49662,-0.25336 0.76284,-0.25337 0.3525,10e-6 0.64992,0.1221 0.89227,0.36628 0.24234,0.24418 0.36351,0.55813 0.36351,0.94184 0,0.36535 -0.10648,0.68113 -0.31945,0.94734 -0.25887,0.3268 -0.61229,0.4902 -1.06026,0.4902 -0.36719,0 -0.66691,-0.10281 -0.89915,-0.30844 -0.23225,-0.20562 -0.3649,-0.47826 -0.39795,-0.81791 z" style="font-weight:normal;fill:#e6e6e6;stroke:none;font-family:Arial;-inkscape-font-specification:Arial" id="path3244"/>
            <path d="m 282.71081,454.29449 0,-4.03724 0.49571,0 0,2.30228 1.17317,-1.1897 0.64166,0 -1.11809,1.08505 1.231,1.83961 -0.61137,0 -0.96662,-1.49537 -0.34975,0.33597 0,1.1594 z" style="font-weight:normal;fill:#e6e6e6;stroke:none;font-family:Arial;-inkscape-font-specification:Arial" id="path3246"/>
          </g>
        </g>
      </g>
      <use height="262.5" width="950" id="use8096" transform="translate(58.502652,0)" xlink:href="#g8004" inkscape:tiled-clone-of="#g8004" y="0" x="0"/>
      <use height="262.5" width="950" id="use8098" transform="translate(117.00529,0)" xlink:href="#g8004" inkscape:tiled-clone-of="#g8004" y="0" x="0"/>
      <use height="262.5" width="950" id="use8100" transform="translate(175.50795,0)" xlink:href="#g8004" inkscape:tiled-clone-of="#g8004" y="0" x="0"/>
      <use height="262.5" width="950" id="use8102" transform="translate(234.0106,0)" xlink:href="#g8004" inkscape:tiled-clone-of="#g8004" y="0" x="0"/>
      <use height="262.5" width="950" id="use8104" transform="translate(292.51324,0)" xlink:href="#g8004" inkscape:tiled-clone-of="#g8004" y="0" x="0"/>
      <use height="262.5" width="950" id="use8106" transform="translate(351.01588,0)" xlink:href="#g8004" inkscape:tiled-clone-of="#g8004" y="0" x="0"/>
      <use height="262.5" width="950" id="use8108" transform="translate(409.51854,0)" xlink:href="#g8004" inkscape:tiled-clone-of="#g8004" y="0" x="0"/>
      <use height="262.5" width="950" id="use8110" transform="translate(468.02121,0)" xlink:href="#g8004" inkscape:tiled-clone-of="#g8004" y="0" x="0"/>
      <use height="262.5" width="950" id="use8112" transform="translate(526.52382,0)" xlink:href="#g8004" inkscape:tiled-clone-of="#g8004" y="0" x="0"/>
      <use height="262.5" width="950" id="use8114" transform="translate(585.02649,0)" xlink:href="#g8004" inkscape:tiled-clone-of="#g8004" y="0" x="0"/>
      <use height="262.5" width="950" id="use8116" transform="translate(643.52915,0)" xlink:href="#g8004" inkscape:tiled-clone-of="#g8004" y="0" x="0"/>
      <use height="262.5" width="950" id="use8118" transform="translate(702.03175,0)" xlink:href="#g8004" inkscape:tiled-clone-of="#g8004" y="0" x="0"/>
      <use height="262.5" width="950" id="use8120" transform="translate(760.53442,0)" xlink:href="#g8004" inkscape:tiled-clone-of="#g8004" y="0" x="0"/>
      <g transform="translate(0,-4.5786212e-6)" id="g4572">
        <g id="g4522" transform="translate(-355.98322,252.1225)">
          <path transform="matrix(1.3057934,0.71279697,-0.88891045,1.5887019,-412.42401,-398.89893)" d="m 224.85026,-153.07649 c 0,4.45739 -3.61343,8.07082 -8.07083,8.07082 -4.45739,0 -8.07082,-3.61343 -8.07082,-8.07082 0,-4.45739 3.61343,-8.07082 8.07082,-8.07082 4.4574,0 8.07083,3.61343 8.07083,8.07082 z" sodipodi:ry="8.0708208" sodipodi:rx="8.0708208" sodipodi:cy="-153.07649" sodipodi:cx="216.77943" id="path4459" style="opacity:0.76851849;fill:#1a1a1a;fill-opacity:1;stroke:none;filter:url(#filter4518)" sodipodi:type="arc"/>
          <g transform="matrix(0.17273526,0,0,0.17273526,-47.050386,-521.76519)" id="g4375">
            <path sodipodi:type="star" style="fill:#b3b3b3;fill-opacity:1;stroke:#000000;stroke-width:0.53915769;stroke-miterlimit:4;stroke-dasharray:none" id="path4377" sodipodi:sides="32" sodipodi:cx="147.04391" sodipodi:cy="355.03625" sodipodi:r1="75.378105" sodipodi:r2="64.071388" sodipodi:arg1="0.78539816" sodipodi:arg2="0.88357293" inkscape:flatsided="false" inkscape:rounded="-8.3266727e-17" inkscape:randomized="0" d="m 200.34428,408.33662 -12.65391,-3.77251 1.23138,13.14675 -11.67479,-6.16869 -1.35709,13.13437 -10.24701,-8.32779 -3.89341,12.61724 -8.42544,-10.16687 -6.28009,11.61524 -6.2801,-11.61524 -8.42544,10.16687 -3.89341,-12.61724 -10.24701,8.32779 -1.35709,-13.13437 -11.67479,6.16869 1.23138,-13.14675 -12.653914,3.77251 3.772516,-12.65391 -13.146751,1.23138 6.168684,-11.67479 -13.134369,-1.35709 8.327793,-10.24701 -12.61724,-3.89341 10.166869,-8.42544 -11.615238,-6.28009 11.615238,-6.2801 -10.166869,-8.42544 12.61724,-3.89341 -8.327793,-10.24701 13.134369,-1.35709 -6.168684,-11.67479 13.146751,1.23138 -3.772517,-12.65391 12.653915,3.77251 -1.23138,-13.14675 11.67479,6.16869 1.35709,-13.13437 10.24701,8.32779 3.89341,-12.61724 8.42544,10.16687 6.28009,-11.61524 6.2801,11.61524 8.42544,-10.16687 3.89341,12.61724 10.24701,-8.32779 1.35709,13.13437 11.67479,-6.16869 -1.23138,13.14675 12.65391,-3.77251 -3.77251,12.65391 13.14675,-1.23138 -6.16869,11.67479 13.13437,1.35709 -8.32779,10.24701 12.61724,3.89341 -10.16687,8.42544 11.61524,6.28009 -11.61524,6.2801 10.16687,8.42544 -12.61724,3.89341 8.32779,10.24701 -13.13437,1.35709 6.16869,11.67479 -13.14675,-1.23138 z" transform="matrix(1.2562876,0,0,1.2562876,101.5845,-260.83985)"/>
            <path sodipodi:type="arc" style="fill:#b3b3b3;fill-opacity:1;stroke:#666666;stroke-width:0.27490085;stroke-miterlimit:4;stroke-opacity:1;stroke-dasharray:none" id="path4379" sodipodi:cx="382.18741" sodipodi:cy="426.6568" sodipodi:rx="45.000507" sodipodi:ry="45.000507" d="m 427.18792,426.6568 c 0,24.85309 -20.14742,45.00051 -45.00051,45.00051 -24.8531,0 -45.00051,-20.14742 -45.00051,-45.00051 0,-24.85309 20.14741,-45.00051 45.00051,-45.00051 24.85309,0 45.00051,20.14742 45.00051,45.00051 z" transform="matrix(1.7320172,0,0,1.7320172,-375.64121,-553.78912)"/>
            <path transform="matrix(1.2562876,0,0,1.2562876,-193.82335,-350.81585)" d="m 427.18792,426.6568 c 0,24.85309 -20.14742,45.00051 -45.00051,45.00051 -24.8531,0 -45.00051,-20.14742 -45.00051,-45.00051 0,-24.85309 20.14741,-45.00051 45.00051,-45.00051 24.85309,0 45.00051,20.14742 45.00051,45.00051 z" sodipodi:ry="45.000507" sodipodi:rx="45.000507" sodipodi:cy="426.6568" sodipodi:cx="382.18741" id="path4381" style="fill:none;stroke:#333333;stroke-width:0.80000001;stroke-miterlimit:4;stroke-opacity:1;stroke-dasharray:none" sodipodi:type="arc"/>
            <g id="g4383" transform="matrix(-4.7931279,0,0,-4.7931279,7754.5671,7396.002)">
              <path sodipodi:nodetypes="ccccccc" id="path4385" d="m 1561.0013,1509.3893 c -1.4775,-0.9199 -3.2848,-1.9215 -5.769,0 0.4,-2.6921 -1.0244,-4.0309 -2.8845,-4.9825 1.8852,-0.8459 3.1957,-2.1989 2.8845,-4.9825 2.0365,1.4935 3.9477,1.3378 5.769,0 -0.3106,2.2053 0.5333,3.9165 2.8845,4.9825 -2.0865,0.6958 -3.0751,2.3334 -2.8845,4.9825 z" style="fill:url(#radialGradient4799);fill-opacity:1;fill-rule:evenodd;stroke:#4d4d4d;stroke-width:0.2;stroke-linecap:butt;stroke-linejoin:miter;stroke-miterlimit:4;stroke-opacity:1;stroke-dashoffset:0"/>
              <path transform="matrix(0.601263,0,0,0.601263,617.65482,583.50055)" d="m 1569.4044,1531.6196 c 0,2.9052 -2.3552,5.2603 -5.2604,5.2603 -2.9051,0 -5.2603,-2.3551 -5.2603,-5.2603 0,-2.9052 2.3552,-5.2603 5.2603,-5.2603 2.9052,0 5.2604,2.3551 5.2604,5.2603 z" sodipodi:ry="5.2603164" sodipodi:rx="5.2603164" sodipodi:cy="1531.6196" sodipodi:cx="1564.144" id="path4387" style="fill:url(#radialGradient4801);fill-opacity:1;fill-rule:evenodd;stroke:none" sodipodi:type="arc"/>
            </g>
          </g>
        </g>
        <g transform="translate(-355.98322,406.59404)" id="g4550">
          <path sodipodi:type="arc" style="opacity:0.76851849;fill:#1a1a1a;fill-opacity:1;stroke:none;filter:url(#filter4518)" id="path4552" sodipodi:cx="216.77943" sodipodi:cy="-153.07649" sodipodi:rx="8.0708208" sodipodi:ry="8.0708208" d="m 224.85026,-153.07649 c 0,4.45739 -3.61343,8.07082 -8.07083,8.07082 -4.45739,0 -8.07082,-3.61343 -8.07082,-8.07082 0,-4.45739 3.61343,-8.07082 8.07082,-8.07082 4.4574,0 8.07083,3.61343 8.07083,8.07082 z" transform="matrix(1.3057934,0.71279697,-0.88891045,1.5887019,-412.42401,-398.89893)"/>
          <g id="g4554" transform="matrix(0.17273526,0,0,0.17273526,-47.050386,-521.76519)">
            <path transform="matrix(1.2562876,0,0,1.2562876,101.5845,-260.83985)" d="m 200.34428,408.33662 -12.65391,-3.77251 1.23138,13.14675 -11.67479,-6.16869 -1.35709,13.13437 -10.24701,-8.32779 -3.89341,12.61724 -8.42544,-10.16687 -6.28009,11.61524 -6.2801,-11.61524 -8.42544,10.16687 -3.89341,-12.61724 -10.24701,8.32779 -1.35709,-13.13437 -11.67479,6.16869 1.23138,-13.14675 -12.653914,3.77251 3.772516,-12.65391 -13.146751,1.23138 6.168684,-11.67479 -13.134369,-1.35709 8.327793,-10.24701 -12.61724,-3.89341 10.166869,-8.42544 -11.615238,-6.28009 11.615238,-6.2801 -10.166869,-8.42544 12.61724,-3.89341 -8.327793,-10.24701 13.134369,-1.35709 -6.168684,-11.67479 13.146751,1.23138 -3.772517,-12.65391 12.653915,3.77251 -1.23138,-13.14675 11.67479,6.16869 1.35709,-13.13437 10.24701,8.32779 3.89341,-12.61724 8.42544,10.16687 6.28009,-11.61524 6.2801,11.61524 8.42544,-10.16687 3.89341,12.61724 10.24701,-8.32779 1.35709,13.13437 11.67479,-6.16869 -1.23138,13.14675 12.65391,-3.77251 -3.77251,12.65391 13.14675,-1.23138 -6.16869,11.67479 13.13437,1.35709 -8.32779,10.24701 12.61724,3.89341 -10.16687,8.42544 11.61524,6.28009 -11.61524,6.2801 10.16687,8.42544 -12.61724,3.89341 8.32779,10.24701 -13.13437,1.35709 6.16869,11.67479 -13.14675,-1.23138 z" inkscape:randomized="0" inkscape:rounded="-8.3266727e-17" inkscape:flatsided="false" sodipodi:arg2="0.88357293" sodipodi:arg1="0.78539816" sodipodi:r2="64.071388" sodipodi:r1="75.378105" sodipodi:cy="355.03625" sodipodi:cx="147.04391" sodipodi:sides="32" id="path4556" style="fill:#b3b3b3;fill-opacity:1;stroke:#000000;stroke-width:0.53915769;stroke-miterlimit:4;stroke-dasharray:none" sodipodi:type="star"/>
            <path transform="matrix(1.7320172,0,0,1.7320172,-375.64121,-553.78912)" d="m 427.18792,426.6568 c 0,24.85309 -20.14742,45.00051 -45.00051,45.00051 -24.8531,0 -45.00051,-20.14742 -45.00051,-45.00051 0,-24.85309 20.14741,-45.00051 45.00051,-45.00051 24.85309,0 45.00051,20.14742 45.00051,45.00051 z" sodipodi:ry="45.000507" sodipodi:rx="45.000507" sodipodi:cy="426.6568" sodipodi:cx="382.18741" id="path4558" style="fill:#b3b3b3;fill-opacity:1;stroke:#666666;stroke-width:0.27490085;stroke-miterlimit:4;stroke-opacity:1;stroke-dasharray:none" sodipodi:type="arc"/>
            <path sodipodi:type="arc" style="fill:none;stroke:#333333;stroke-width:0.80000001;stroke-miterlimit:4;stroke-opacity:1;stroke-dasharray:none" id="path4560" sodipodi:cx="382.18741" sodipodi:cy="426.6568" sodipodi:rx="45.000507" sodipodi:ry="45.000507" d="m 427.18792,426.6568 c 0,24.85309 -20.14742,45.00051 -45.00051,45.00051 -24.8531,0 -45.00051,-20.14742 -45.00051,-45.00051 0,-24.85309 20.14741,-45.00051 45.00051,-45.00051 24.85309,0 45.00051,20.14742 45.00051,45.00051 z" transform="matrix(1.2562876,0,0,1.2562876,-193.82335,-350.81585)"/>
            <g transform="matrix(-4.7931279,0,0,-4.7931279,7754.5671,7396.002)" id="g4562">
              <path style="fill:url(#radialGradient4803);fill-opacity:1;fill-rule:evenodd;stroke:#4d4d4d;stroke-width:0.2;stroke-linecap:butt;stroke-linejoin:miter;stroke-miterlimit:4;stroke-opacity:1;stroke-dashoffset:0" d="m 1561.0013,1509.3893 c -1.4775,-0.9199 -3.2848,-1.9215 -5.769,0 0.4,-2.6921 -1.0244,-4.0309 -2.8845,-4.9825 1.8852,-0.8459 3.1957,-2.1989 2.8845,-4.9825 2.0365,1.4935 3.9477,1.3378 5.769,0 -0.3106,2.2053 0.5333,3.9165 2.8845,4.9825 -2.0865,0.6958 -3.0751,2.3334 -2.8845,4.9825 z" id="path4564" sodipodi:nodetypes="ccccccc"/>
              <path sodipodi:type="arc" style="fill:url(#radialGradient4805);fill-opacity:1;fill-rule:evenodd;stroke:none" id="path4566" sodipodi:cx="1564.144" sodipodi:cy="1531.6196" sodipodi:rx="5.2603164" sodipodi:ry="5.2603164" d="m 1569.4044,1531.6196 c 0,2.9052 -2.3552,5.2603 -5.2604,5.2603 -2.9051,0 -5.2603,-2.3551 -5.2603,-5.2603 0,-2.9052 2.3552,-5.2603 5.2603,-5.2603 2.9052,0 5.2604,2.3551 5.2604,5.2603 z" transform="matrix(0.601263,0,0,0.601263,617.65482,583.50055)"/>
            </g>
          </g>
        </g>
      </g>
      <g id="g4600" transform="translate(914.69222,-4.5786212e-6)">
        <g transform="translate(-355.98322,252.1225)" id="g4602">
          <path sodipodi:type="arc" style="opacity:0.76851849;fill:#1a1a1a;fill-opacity:1;stroke:none;filter:url(#filter4518)" id="path4604" sodipodi:cx="216.77943" sodipodi:cy="-153.07649" sodipodi:rx="8.0708208" sodipodi:ry="8.0708208" d="m 224.85026,-153.07649 c 0,4.45739 -3.61343,8.07082 -8.07083,8.07082 -4.45739,0 -8.07082,-3.61343 -8.07082,-8.07082 0,-4.45739 3.61343,-8.07082 8.07082,-8.07082 4.4574,0 8.07083,3.61343 8.07083,8.07082 z" transform="matrix(1.3057934,0.71279697,-0.88891045,1.5887019,-412.42401,-398.89893)"/>
          <g id="g4606" transform="matrix(0.17273526,0,0,0.17273526,-47.050386,-521.76519)">
            <path transform="matrix(1.2562876,0,0,1.2562876,101.5845,-260.83985)" d="m 200.34428,408.33662 -12.65391,-3.77251 1.23138,13.14675 -11.67479,-6.16869 -1.35709,13.13437 -10.24701,-8.32779 -3.89341,12.61724 -8.42544,-10.16687 -6.28009,11.61524 -6.2801,-11.61524 -8.42544,10.16687 -3.89341,-12.61724 -10.24701,8.32779 -1.35709,-13.13437 -11.67479,6.16869 1.23138,-13.14675 -12.653914,3.77251 3.772516,-12.65391 -13.146751,1.23138 6.168684,-11.67479 -13.134369,-1.35709 8.327793,-10.24701 -12.61724,-3.89341 10.166869,-8.42544 -11.615238,-6.28009 11.615238,-6.2801 -10.166869,-8.42544 12.61724,-3.89341 -8.327793,-10.24701 13.134369,-1.35709 -6.168684,-11.67479 13.146751,1.23138 -3.772517,-12.65391 12.653915,3.77251 -1.23138,-13.14675 11.67479,6.16869 1.35709,-13.13437 10.24701,8.32779 3.89341,-12.61724 8.42544,10.16687 6.28009,-11.61524 6.2801,11.61524 8.42544,-10.16687 3.89341,12.61724 10.24701,-8.32779 1.35709,13.13437 11.67479,-6.16869 -1.23138,13.14675 12.65391,-3.77251 -3.77251,12.65391 13.14675,-1.23138 -6.16869,11.67479 13.13437,1.35709 -8.32779,10.24701 12.61724,3.89341 -10.16687,8.42544 11.61524,6.28009 -11.61524,6.2801 10.16687,8.42544 -12.61724,3.89341 8.32779,10.24701 -13.13437,1.35709 6.16869,11.67479 -13.14675,-1.23138 z" inkscape:randomized="0" inkscape:rounded="-8.3266727e-17" inkscape:flatsided="false" sodipodi:arg2="0.88357293" sodipodi:arg1="0.78539816" sodipodi:r2="64.071388" sodipodi:r1="75.378105" sodipodi:cy="355.03625" sodipodi:cx="147.04391" sodipodi:sides="32" id="path4608" style="fill:#b3b3b3;fill-opacity:1;stroke:#000000;stroke-width:0.53915769;stroke-miterlimit:4;stroke-dasharray:none" sodipodi:type="star"/>
            <path transform="matrix(1.7320172,0,0,1.7320172,-375.64121,-553.78912)" d="m 427.18792,426.6568 c 0,24.85309 -20.14742,45.00051 -45.00051,45.00051 -24.8531,0 -45.00051,-20.14742 -45.00051,-45.00051 0,-24.85309 20.14741,-45.00051 45.00051,-45.00051 24.85309,0 45.00051,20.14742 45.00051,45.00051 z" sodipodi:ry="45.000507" sodipodi:rx="45.000507" sodipodi:cy="426.6568" sodipodi:cx="382.18741" id="path4610" style="fill:#b3b3b3;fill-opacity:1;stroke:#666666;stroke-width:0.27490085;stroke-miterlimit:4;stroke-opacity:1;stroke-dasharray:none" sodipodi:type="arc"/>
            <path sodipodi:type="arc" style="fill:none;stroke:#333333;stroke-width:0.80000001;stroke-miterlimit:4;stroke-opacity:1;stroke-dasharray:none" id="path4612" sodipodi:cx="382.18741" sodipodi:cy="426.6568" sodipodi:rx="45.000507" sodipodi:ry="45.000507" d="m 427.18792,426.6568 c 0,24.85309 -20.14742,45.00051 -45.00051,45.00051 -24.8531,0 -45.00051,-20.14742 -45.00051,-45.00051 0,-24.85309 20.14741,-45.00051 45.00051,-45.00051 24.85309,0 45.00051,20.14742 45.00051,45.00051 z" transform="matrix(1.2562876,0,0,1.2562876,-193.82335,-350.81585)"/>
            <g transform="matrix(-4.7931279,0,0,-4.7931279,7754.5671,7396.002)" id="g4614">
              <path style="fill:url(#radialGradient4807);fill-opacity:1;fill-rule:evenodd;stroke:#4d4d4d;stroke-width:0.2;stroke-linecap:butt;stroke-linejoin:miter;stroke-miterlimit:4;stroke-opacity:1;stroke-dashoffset:0" d="m 1561.0013,1509.3893 c -1.4775,-0.9199 -3.2848,-1.9215 -5.769,0 0.4,-2.6921 -1.0244,-4.0309 -2.8845,-4.9825 1.8852,-0.8459 3.1957,-2.1989 2.8845,-4.9825 2.0365,1.4935 3.9477,1.3378 5.769,0 -0.3106,2.2053 0.5333,3.9165 2.8845,4.9825 -2.0865,0.6958 -3.0751,2.3334 -2.8845,4.9825 z" id="path4616" sodipodi:nodetypes="ccccccc"/>
              <path sodipodi:type="arc" style="fill:url(#radialGradient4809);fill-opacity:1;fill-rule:evenodd;stroke:none" id="path4618" sodipodi:cx="1564.144" sodipodi:cy="1531.6196" sodipodi:rx="5.2603164" sodipodi:ry="5.2603164" d="m 1569.4044,1531.6196 c 0,2.9052 -2.3552,5.2603 -5.2604,5.2603 -2.9051,0 -5.2603,-2.3551 -5.2603,-5.2603 0,-2.9052 2.3552,-5.2603 5.2603,-5.2603 2.9052,0 5.2604,2.3551 5.2604,5.2603 z" transform="matrix(0.601263,0,0,0.601263,617.65482,583.50055)"/>
            </g>
          </g>
        </g>
        <g id="g4620" transform="translate(-355.98322,406.59404)">
          <path transform="matrix(1.3057934,0.71279697,-0.88891045,1.5887019,-412.42401,-398.89893)" d="m 224.85026,-153.07649 c 0,4.45739 -3.61343,8.07082 -8.07083,8.07082 -4.45739,0 -8.07082,-3.61343 -8.07082,-8.07082 0,-4.45739 3.61343,-8.07082 8.07082,-8.07082 4.4574,0 8.07083,3.61343 8.07083,8.07082 z" sodipodi:ry="8.0708208" sodipodi:rx="8.0708208" sodipodi:cy="-153.07649" sodipodi:cx="216.77943" id="path4622" style="opacity:0.76851849;fill:#1a1a1a;fill-opacity:1;stroke:none;filter:url(#filter4518)" sodipodi:type="arc"/>
          <g transform="matrix(0.17273526,0,0,0.17273526,-47.050386,-521.76519)" id="g4624">
            <path sodipodi:type="star" style="fill:#b3b3b3;fill-opacity:1;stroke:#000000;stroke-width:0.53915769;stroke-miterlimit:4;stroke-dasharray:none" id="path4626" sodipodi:sides="32" sodipodi:cx="147.04391" sodipodi:cy="355.03625" sodipodi:r1="75.378105" sodipodi:r2="64.071388" sodipodi:arg1="0.78539816" sodipodi:arg2="0.88357293" inkscape:flatsided="false" inkscape:rounded="-8.3266727e-17" inkscape:randomized="0" d="m 200.34428,408.33662 -12.65391,-3.77251 1.23138,13.14675 -11.67479,-6.16869 -1.35709,13.13437 -10.24701,-8.32779 -3.89341,12.61724 -8.42544,-10.16687 -6.28009,11.61524 -6.2801,-11.61524 -8.42544,10.16687 -3.89341,-12.61724 -10.24701,8.32779 -1.35709,-13.13437 -11.67479,6.16869 1.23138,-13.14675 -12.653914,3.77251 3.772516,-12.65391 -13.146751,1.23138 6.168684,-11.67479 -13.134369,-1.35709 8.327793,-10.24701 -12.61724,-3.89341 10.166869,-8.42544 -11.615238,-6.28009 11.615238,-6.2801 -10.166869,-8.42544 12.61724,-3.89341 -8.327793,-10.24701 13.134369,-1.35709 -6.168684,-11.67479 13.146751,1.23138 -3.772517,-12.65391 12.653915,3.77251 -1.23138,-13.14675 11.67479,6.16869 1.35709,-13.13437 10.24701,8.32779 3.89341,-12.61724 8.42544,10.16687 6.28009,-11.61524 6.2801,11.61524 8.42544,-10.16687 3.89341,12.61724 10.24701,-8.32779 1.35709,13.13437 11.67479,-6.16869 -1.23138,13.14675 12.65391,-3.77251 -3.77251,12.65391 13.14675,-1.23138 -6.16869,11.67479 13.13437,1.35709 -8.32779,10.24701 12.61724,3.89341 -10.16687,8.42544 11.61524,6.28009 -11.61524,6.2801 10.16687,8.42544 -12.61724,3.89341 8.32779,10.24701 -13.13437,1.35709 6.16869,11.67479 -13.14675,-1.23138 z" transform="matrix(1.2562876,0,0,1.2562876,101.5845,-260.83985)"/>
            <path sodipodi:type="arc" style="fill:#b3b3b3;fill-opacity:1;stroke:#666666;stroke-width:0.27490085;stroke-miterlimit:4;stroke-opacity:1;stroke-dasharray:none" id="path4628" sodipodi:cx="382.18741" sodipodi:cy="426.6568" sodipodi:rx="45.000507" sodipodi:ry="45.000507" d="m 427.18792,426.6568 c 0,24.85309 -20.14742,45.00051 -45.00051,45.00051 -24.8531,0 -45.00051,-20.14742 -45.00051,-45.00051 0,-24.85309 20.14741,-45.00051 45.00051,-45.00051 24.85309,0 45.00051,20.14742 45.00051,45.00051 z" transform="matrix(1.7320172,0,0,1.7320172,-375.64121,-553.78912)"/>
            <path transform="matrix(1.2562876,0,0,1.2562876,-193.82335,-350.81585)" d="m 427.18792,426.6568 c 0,24.85309 -20.14742,45.00051 -45.00051,45.00051 -24.8531,0 -45.00051,-20.14742 -45.00051,-45.00051 0,-24.85309 20.14741,-45.00051 45.00051,-45.00051 24.85309,0 45.00051,20.14742 45.00051,45.00051 z" sodipodi:ry="45.000507" sodipodi:rx="45.000507" sodipodi:cy="426.6568" sodipodi:cx="382.18741" id="path4630" style="fill:none;stroke:#333333;stroke-width:0.80000001;stroke-miterlimit:4;stroke-opacity:1;stroke-dasharray:none" sodipodi:type="arc"/>
            <g id="g4632" transform="matrix(-4.7931279,0,0,-4.7931279,7754.5671,7396.002)">
              <path sodipodi:nodetypes="ccccccc" id="path4634" d="m 1561.0013,1509.3893 c -1.4775,-0.9199 -3.2848,-1.9215 -5.769,0 0.4,-2.6921 -1.0244,-4.0309 -2.8845,-4.9825 1.8852,-0.8459 3.1957,-2.1989 2.8845,-4.9825 2.0365,1.4935 3.9477,1.3378 5.769,0 -0.3106,2.2053 0.5333,3.9165 2.8845,4.9825 -2.0865,0.6958 -3.0751,2.3334 -2.8845,4.9825 z" style="fill:url(#radialGradient4811);fill-opacity:1;fill-rule:evenodd;stroke:#4d4d4d;stroke-width:0.2;stroke-linecap:butt;stroke-linejoin:miter;stroke-miterlimit:4;stroke-opacity:1;stroke-dashoffset:0"/>
              <path transform="matrix(0.601263,0,0,0.601263,617.65482,583.50055)" d="m 1569.4044,1531.6196 c 0,2.9052 -2.3552,5.2603 -5.2604,5.2603 -2.9051,0 -5.2603,-2.3551 -5.2603,-5.2603 0,-2.9052 2.3552,-5.2603 5.2603,-5.2603 2.9052,0 5.2604,2.3551 5.2604,5.2603 z" sodipodi:ry="5.2603164" sodipodi:rx="5.2603164" sodipodi:cy="1531.6196" sodipodi:cx="1564.144" id="path4636" style="fill:url(#radialGradient4813);fill-opacity:1;fill-rule:evenodd;stroke:none" sodipodi:type="arc"/>
            </g>
          </g>
        </g>
      </g>
      <g transform="translate(8.2879096,-1.9317872e-7)" id="g4177">
        <g id="g3324" transform="matrix(0.81275221,0,0,1,259.56841,-32.632114)">
          <rect y="-8.2584095" x="291.9794" height="10.181771" width="44.261761" id="rect3242" style="fill:url(#linearGradient4815);fill-opacity:1;stroke:none"/>
          <rect y="-7.1854129" x="295.31778" height="8.0357771" width="37.584988" id="rect3254" style="fill:url(#linearGradient4817);fill-opacity:1;stroke:none"/>
          <rect style="fill:url(#linearGradient4819);fill-opacity:1;stroke:none" id="rect3268" width="37.584988" height="8.0360003" x="295.31778" y="-7.1855245"/>
        </g>
        <rect style="fill:url(#linearGradient4821);fill-opacity:1;stroke:none" id="rect3293" width="27.541267" height="7.043807" x="501.09158" y="-39.321541"/>
      </g>
      <g transform="matrix(0.46410013,0,0,0.46410013,377.37954,-30.342738)" style="stroke:#628000;stroke-opacity:1" id="g4124">
        <path sodipodi:type="arc" style="fill:none;stroke:#628000;stroke-width:1.39999998;stroke-linecap:round;stroke-miterlimit:4;stroke-opacity:1;stroke-dasharray:none" id="path3348" sodipodi:cx="684.81989" sodipodi:cy="278.58652" sodipodi:rx="4.6641426" sodipodi:ry="4.6641426" d="m 688.85915,280.91859 c -1.28797,2.23082 -4.14051,2.99516 -6.37134,1.70719 -2.23082,-1.28796 -2.99516,-4.14051 -1.70719,-6.37133 1.28797,-2.23083 4.14051,-2.99517 6.37134,-1.7072 0.70904,0.40937 1.29783,0.99816 1.70719,1.7072" transform="matrix(0,-0.99341241,1.0907768,0,10.217306,669.19198)" sodipodi:start="0.52359878" sodipodi:end="5.7595865" sodipodi:open="true"/>
        <path style="fill:none;stroke:#628000;stroke-width:1.39999998;stroke-linecap:round;stroke-miterlimit:4;stroke-opacity:1;stroke-dasharray:none;stroke-dashoffset:0" d="m 314.09302,-17.062314 0,5.60202" id="path4122"/>
      </g>
      <g transform="matrix(1,0,0,1.3990374,102.4569,30.76019)" id="g3849">
        <path style="fill:url(#linearGradient4823);fill-opacity:1;stroke:none" d="m -451.37238,-159.22434 5.91994,-2.45696 c -3.17879,-4.59757 -20.9362,-8.09393 -26.0422,-8.09393 l 0,0 0,5.34375 c 3.68598,0 15.14552,2.15801 20.12226,5.20714 z" id="path3803" sodipodi:nodetypes="cccccc"/>
        <path style="fill:url(#linearGradient4825);fill-opacity:1;stroke:none" d="m -450.75527,-110.84939 5.49948,2.28293 c 0.0804,-0.23127 0.12223,-0.4649 0.12223,-0.70063 l 0,-51.125 c 0,-0.47806 -0.17202,-0.94754 -0.48905,-1.40607 l 0,0 -5.91993,2.45696 c 1.44742,0.8868 2.34648,1.84897 2.34648,2.85536 l 0,43.3125 c 0,0.80858 -0.58037,1.58861 -1.55921,2.32395 z" id="path3816" sodipodi:nodetypes="cccccccccc"/>
        <path sodipodi:nodetypes="cccccc" id="path3842" d="m -450.53711,-110.97185 5.25141,2.36146 c -3.17879,4.59757 -20.45868,8.09393 -25.56468,8.09393 l -0.58636,0 0,-5.34375 c 3.68598,0 15.92289,-2.06251 20.89963,-5.11164 z" style="fill:url(#linearGradient4827);fill-opacity:1;stroke:none"/>
      </g>
      <g transform="matrix(-1,0,0,1.3990374,105.46762,30.76019)" id="g3868">
        <path style="fill:url(#linearGradient4829);fill-opacity:1;stroke:none" d="m -451.37238,-159.22434 5.91994,-2.45696 c -3.17879,-4.59757 -20.9362,-8.09393 -26.0422,-8.09393 l 0,0 0,5.34375 c 3.68598,0 15.14552,2.15801 20.12226,5.20714 z" id="path3870" sodipodi:nodetypes="cccccc"/>
        <path style="fill:url(#linearGradient4831);fill-opacity:1;stroke:none" d="m -450.75527,-110.84939 5.49948,2.28293 c 0.0804,-0.23127 0.12223,-0.4649 0.12223,-0.70063 l 0,-51.125 c 0,-0.47806 -0.17202,-0.94754 -0.48905,-1.40607 l 0,0 -5.91993,2.45696 c 1.44742,0.8868 2.34648,1.84897 2.34648,2.85536 l 0,43.3125 c 0,0.80858 -0.58037,1.58861 -1.55921,2.32395 z" id="path3872" sodipodi:nodetypes="cccccccccc"/>
        <path sodipodi:nodetypes="cccccc" id="path3874" d="m -450.53711,-110.97185 5.25141,2.36146 c -3.17879,4.59757 -20.45868,8.09393 -25.56468,8.09393 l -0.58636,0 0,-5.34375 c 3.68598,0 15.92289,-2.06251 20.89963,-5.11164 z" style="fill:url(#linearGradient4833);fill-opacity:1;stroke:none"/>
      </g>
    </g>
  </g>
  <metadata>
    <rdf:RDF>
      <cc:Work>
        <dc:format>image/svg+xml</dc:format>
        <dc:type rdf:resource="http://purl.org/dc/dcmitype/StillImage"/>
        <cc:license rdf:resource="http://creativecommons.org/licenses/publicdomain/"/>
        <dc:publisher>
          <cc:Agent rdf:about="http://openclipart.org/">
            <dc:title>Open Clip Art Library</dc:title>
          </cc:Agent>
        </dc:publisher>
        <dc:title>SAN Disk Array SCSI</dc:title>
        <dc:date>2011-08-04T10:37:34</dc:date>
        <dc:description>An original depiction of a popular server disk array</dc:description>
        <dc:source>http://openclipart.org/detail/153601/san-disk-array-scsi-by-rob-fenwitch</dc:source>
        <dc:creator>
          <cc:Agent>
            <dc:title>Rob Fenwitch</dc:title>
          </cc:Agent>
        </dc:creator>
        <dc:subject>
          <rdf:Bag>
            <rdf:li>Array</rdf:li>
            <rdf:li>Computing</rdf:li>
            <rdf:li>Disk</rdf:li>
            <rdf:li>HP MSA30</rdf:li>
            <rdf:li>MSA 30</rdf:li>
            <rdf:li>SAN</rdf:li>
            <rdf:li>SCSI</rdf:li>
            <rdf:li>clip art</rdf:li>
            <rdf:li>clipart</rdf:li>
            <rdf:li>computer</rdf:li>
            <rdf:li>mounted</rdf:li>
            <rdf:li>network</rdf:li>
            <rdf:li>photorealistic</rdf:li>
            <rdf:li>rack</rdf:li>
            <rdf:li>server</rdf:li>
            <rdf:li>storage</rdf:li>
          </rdf:Bag>
        </dc:subject>
      </cc:Work>
      <cc:License rdf:about="http://creativecommons.org/licenses/publicdomain/">
        <cc:permits rdf:resource="http://creativecommons.org/ns#Reproduction"/>
        <cc:permits rdf:resource="http://creativecommons.org/ns#Distribution"/>
        <cc:permits rdf:resource="http://creativecommons.org/ns#DerivativeWorks"/>
      </cc:License>
    </rdf:RDF>
  </metadata>
</svg>
