<?xml version="1.0" encoding="UTF-8" standalone="no"?>
<!-- Created with Inkscape (http://www.inkscape.org/) -->
<svg xmlns:dc="http://purl.org/dc/elements/1.1/" xmlns:cc="http://creativecommons.org/ns#" xmlns:rdf="http://www.w3.org/1999/02/22-rdf-syntax-ns#" xmlns:svg="http://www.w3.org/2000/svg" xmlns="http://www.w3.org/2000/svg" xmlns:xlink="http://www.w3.org/1999/xlink" xmlns:sodipodi="http://sodipodi.sourceforge.net/DTD/sodipodi-0.dtd" xmlns:inkscape="http://www.inkscape.org/namespaces/inkscape" width="583.62738" height="403.31842" id="svg2" version="1.1" inkscape:version="0.48.2 r9819" sodipodi:docname="TechSet.svg">
  <sodipodi:namedview id="base" pagecolor="#ffffff" bordercolor="#666666" borderopacity="1.0" inkscape:pageopacity="0.0" inkscape:pageshadow="2" inkscape:zoom="0.86188923" inkscape:cx="224.43657" inkscape:cy="187.4974" inkscape:document-units="px" inkscape:current-layer="g5310" showgrid="false" inkscape:snap-global="true" inkscape:snap-midpoints="false" inkscape:snap-nodes="false" inkscape:snap-bbox="false" inkscape:window-width="1278" inkscape:window-height="722" inkscape:window-x="0" inkscape:window-y="25" inkscape:window-maximized="1" fit-margin-top="0" fit-margin-left="0" fit-margin-right="0" fit-margin-bottom="0">
    <inkscape:grid id="grid2985" type="xygrid" empspacing="5" visible="true" enabled="true" snapvisiblegridlinesonly="true"/>
  </sodipodi:namedview>
  <defs id="defs4">
    <linearGradient id="linearGradient4986">
      <stop style="stop-color:#838383;stop-opacity:1;" offset="0" id="stop4988"/>
      <stop id="stop4996" offset="0.07308965" style="stop-color:#d5d5d5;stop-opacity:1;"/>
      <stop id="stop4990" offset="0.17275743" style="stop-color:#f2f2f2;stop-opacity:1;"/>
      <stop style="stop-color:#8f8f8f;stop-opacity:1;" offset="0.32460734" id="stop4994"/>
      <stop id="stop4992" offset="1" style="stop-color:#1f1f1f;stop-opacity:1;"/>
    </linearGradient>
    <linearGradient id="linearGradient4978">
      <stop style="stop-color:#f1f1f1;stop-opacity:1;" offset="0" id="stop4980"/>
      <stop id="stop4982" offset="0.25641024" style="stop-color:#a3a3a3;stop-opacity:1;"/>
      <stop id="stop4984" offset="1" style="stop-color:#1f1f1f;stop-opacity:1;"/>
    </linearGradient>
    <linearGradient id="linearGradient4986-8">
      <stop style="stop-color:#838383;stop-opacity:1;" offset="0" id="stop4988-0"/>
      <stop id="stop4996-3" offset="0.07308965" style="stop-color:#d5d5d5;stop-opacity:1;"/>
      <stop id="stop4990-7" offset="0.17275743" style="stop-color:#f2f2f2;stop-opacity:1;"/>
      <stop style="stop-color:#8f8f8f;stop-opacity:1;" offset="0.32460734" id="stop4994-1"/>
      <stop id="stop4992-0" offset="1" style="stop-color:#1f1f1f;stop-opacity:1;"/>
    </linearGradient>
    <linearGradient inkscape:collect="always" xlink:href="#linearGradient4978" id="linearGradient5679" gradientUnits="userSpaceOnUse" x1="39.900002" y1="22.262182" x2="75" y2="46.362183"/>
    <linearGradient inkscape:collect="always" xlink:href="#linearGradient4986" id="linearGradient5681" gradientUnits="userSpaceOnUse" x1="44.900002" y1="27.262182" x2="75" y2="46.362183"/>
    <linearGradient inkscape:collect="always" xlink:href="#linearGradient4986-8" id="linearGradient5683" gradientUnits="userSpaceOnUse" gradientTransform="translate(0,-75.724245)" x1="44.900002" y1="27.262182" x2="75" y2="46.362183"/>
    <linearGradient inkscape:collect="always" xlink:href="#linearGradient4978" id="linearGradient5685" gradientUnits="userSpaceOnUse" x1="39.900002" y1="22.262182" x2="75" y2="46.362183"/>
  </defs>
  <g id="layer1" inkscape:groupmode="layer" inkscape:label="Livello 1" transform="translate(-6.1868134e-8,-20.238285)">
    <g id="g5331" transform="matrix(4.2262903,0,0,4.2262903,-13.202208,-64.716357)">
      <path style="color:#000000;fill:#999999;fill-opacity:1;fill-rule:evenodd;stroke:#cccccc;stroke-width:0.2;stroke-linecap:round;stroke-linejoin:miter;stroke-miterlimit:4;stroke-dashoffset:0;stroke-opacity:1;marker:none;visibility:visible;display:inline;overflow:visible;enable-background:accumulate" d="m 24.323826,101.43533 8.050083,0 c 0.554,0 1,0.446 1,1 l 0,1.89697 c 0,0.554 -0.446,1 -1,1 l -8.050083,0 c -0.554,0 -1,-0.446 -1,-1 l 0,-1.89697 c 0,-0.554 0.446,-1 1,-1 z" id="rect4943"/>
      <g transform="translate(-31.676171,50.170125)" id="g4937">
        <path style="color:#000000;fill:#b3b3b3;fill-opacity:1;fill-rule:evenodd;stroke:#cccccc;stroke-width:0.2;stroke-miterlimit:4;marker:none;visibility:visible;display:inline;overflow:visible;enable-background:accumulate" d="m 41,22.362183 38,0 c 0.554,0 1,0.446 1,1 l 0,28 c 0,0.554 -0.446,1 -1,1 l -38,0 c -0.554,0 -1,-0.446 -1,-1 l 0,-28 c 0,-0.554 0.446,-1 1,-1 z" id="rect2987"/>
        <path style="color:#000000;fill:url(#linearGradient5679);fill-opacity:1;fill-rule:evenodd;stroke:none;stroke-width:0.2;marker:none;visibility:visible;display:inline;overflow:visible;enable-background:accumulate" d="m 42.866667,24.362183 34.266666,0 C 77.613467,24.362183 78,24.748716 78,25.228849 l 0,24.266667 c 0,0.480133 -0.386533,0.866667 -0.866667,0.866667 l -34.266666,0 C 42.386533,50.362183 42,49.975649 42,49.495516 l 0,-24.266667 c 0,-0.480133 0.386533,-0.866666 0.866667,-0.866666 z" id="rect3760"/>
      </g>
      <g transform="translate(-31.776171,52.070125)" id="g4904">
        <path style="color:#000000;fill:#cccccc;fill-opacity:1;fill-rule:evenodd;stroke:#cccccc;stroke-width:0.2;stroke-miterlimit:4;marker:none;visibility:visible;display:inline;overflow:visible;enable-background:accumulate" d="m 36.714286,52.362183 46.571428,0 C 84.235429,52.362183 85,53.126754 85,54.076468 l 0,7.571429 c 0,0.949714 -0.764571,1.714286 -1.714286,1.714286 l -46.571428,0 C 35.764571,63.362183 35,62.597611 35,61.647897 l 0,-7.571429 c 0,-0.949714 0.764571,-1.714285 1.714286,-1.714285 z" id="rect3766"/>
        <path style="color:#000000;fill:#cccccc;fill-opacity:1;fill-rule:evenodd;stroke:#999999;stroke-width:0.2;stroke-linecap:square;stroke-linejoin:miter;stroke-miterlimit:4;stroke-dashoffset:0;stroke-opacity:1;marker:none;visibility:visible;display:inline;overflow:visible;enable-background:accumulate" d="m 38,54.362183 18,0 0,2 -18,0 z" id="rect3772"/>
        <path transform="translate(0.0625,2.9375)" style="color:#000000;fill:#b3b3b3;fill-opacity:1;fill-rule:evenodd;stroke:#999999;stroke-width:0.2;stroke-linecap:square;stroke-linejoin:miter;stroke-miterlimit:4;stroke-dashoffset:0;stroke-opacity:1;marker:none;visibility:visible;display:inline;overflow:visible;enable-background:accumulate" d="m 58,52.862183 c 0,0.276142 -0.223858,0.5 -0.5,0.5 -0.276142,0 -0.5,-0.223858 -0.5,-0.5 0,-0.276143 0.223858,-0.5 0.5,-0.5 0.276142,0 0.5,0.223857 0.5,0.5 z" id="path3776"/>
        <path transform="translate(4,0)" style="color:#000000;fill:#999999;fill-opacity:1;fill-rule:evenodd;stroke:#999999;stroke-width:0.2;stroke-linecap:square;stroke-linejoin:miter;stroke-miterlimit:4;stroke-dashoffset:0;stroke-opacity:1;marker:none;visibility:visible;display:inline;overflow:visible;enable-background:accumulate" d="m 79,55.362183 c 0,0.552284 -0.447715,1 -1,1 -0.552285,0 -1,-0.447716 -1,-1 0,-0.552285 0.447715,-1 1,-1 0.552285,0 1,0.447715 1,1 z" id="path3778"/>
        <path transform="translate(21.0625,2.9375)" style="color:#000000;fill:#999999;fill-opacity:1;fill-rule:evenodd;stroke:#999999;stroke-width:0.2;stroke-linecap:square;stroke-linejoin:miter;stroke-miterlimit:4;stroke-dashoffset:0;stroke-opacity:1;marker:none;visibility:visible;display:inline;overflow:visible;enable-background:accumulate" d="m 58,52.862183 c 0,0.276142 -0.223858,0.5 -0.5,0.5 -0.276142,0 -0.5,-0.223858 -0.5,-0.5 0,-0.276143 0.223858,-0.5 0.5,-0.5 0.276142,0 0.5,0.223857 0.5,0.5 z" id="path3780"/>
        <path transform="translate(19.0625,2.9375)" style="color:#000000;fill:#999999;fill-opacity:1;fill-rule:evenodd;stroke:#999999;stroke-width:0.2;stroke-linecap:square;stroke-linejoin:miter;stroke-miterlimit:4;stroke-dashoffset:0;stroke-opacity:1;marker:none;visibility:visible;display:inline;overflow:visible;enable-background:accumulate" d="m 58,52.862183 c 0,0.276142 -0.223858,0.5 -0.5,0.5 -0.276142,0 -0.5,-0.223858 -0.5,-0.5 0,-0.276143 0.223858,-0.5 0.5,-0.5 0.276142,0 0.5,0.223857 0.5,0.5 z" id="path3782"/>
        <path transform="translate(17.0625,2.9375)" style="color:#000000;fill:#999999;fill-opacity:1;fill-rule:evenodd;stroke:#999999;stroke-width:0.2;stroke-linecap:square;stroke-linejoin:miter;stroke-miterlimit:4;stroke-dashoffset:0;stroke-opacity:1;marker:none;visibility:visible;display:inline;overflow:visible;enable-background:accumulate" d="m 58,52.862183 c 0,0.276142 -0.223858,0.5 -0.5,0.5 -0.276142,0 -0.5,-0.223858 -0.5,-0.5 0,-0.276143 0.223858,-0.5 0.5,-0.5 0.276142,0 0.5,0.223857 0.5,0.5 z" id="path3784"/>
        <g style="stroke-width:0.1;stroke-miterlimit:4;stroke-dasharray:none" id="g5098">
          <path inkscape:connector-curvature="0" id="path4844" d="m 37.047289,60.424683 46.047101,0" style="fill:none;stroke:#b3b3b3;stroke-width:0.5;stroke-linecap:round;stroke-linejoin:miter;stroke-miterlimit:4;stroke-opacity:1;stroke-dasharray:none"/>
          <path inkscape:connector-curvature="0" id="path4850" d="m 38.0625,60.424683 0,1.957908" style="fill:none;stroke:#b3b3b3;stroke-width:0.5;stroke-linecap:round;stroke-linejoin:miter;stroke-miterlimit:4;stroke-opacity:1;stroke-dasharray:none"/>
          <path style="fill:none;stroke:#b3b3b3;stroke-width:0.5;stroke-linecap:round;stroke-linejoin:miter;stroke-miterlimit:4;stroke-opacity:1;stroke-dasharray:none" d="m 40.0625,60.424683 0,1.957908" id="path4852" inkscape:connector-curvature="0"/>
          <path inkscape:connector-curvature="0" id="path4854" d="m 42.0625,60.424683 0,1.957908" style="fill:none;stroke:#b3b3b3;stroke-width:0.5;stroke-linecap:round;stroke-linejoin:miter;stroke-miterlimit:4;stroke-opacity:1;stroke-dasharray:none"/>
          <path style="fill:none;stroke:#b3b3b3;stroke-width:0.5;stroke-linecap:round;stroke-linejoin:miter;stroke-miterlimit:4;stroke-opacity:1;stroke-dasharray:none" d="m 44.0625,60.424683 0,1.957908" id="path4856" inkscape:connector-curvature="0"/>
          <path inkscape:connector-curvature="0" id="path4858" d="m 46.0625,60.424683 0,1.957908" style="fill:none;stroke:#b3b3b3;stroke-width:0.5;stroke-linecap:round;stroke-linejoin:miter;stroke-miterlimit:4;stroke-opacity:1;stroke-dasharray:none"/>
          <path style="fill:none;stroke:#b3b3b3;stroke-width:0.5;stroke-linecap:round;stroke-linejoin:miter;stroke-miterlimit:4;stroke-opacity:1;stroke-dasharray:none" d="m 48.0625,60.424683 0,1.957908" id="path4860" inkscape:connector-curvature="0"/>
          <path inkscape:connector-curvature="0" id="path4862" d="m 50.0625,60.424683 0,1.957908" style="fill:none;stroke:#b3b3b3;stroke-width:0.5;stroke-linecap:round;stroke-linejoin:miter;stroke-miterlimit:4;stroke-opacity:1;stroke-dasharray:none"/>
          <path style="fill:none;stroke:#b3b3b3;stroke-width:0.5;stroke-linecap:round;stroke-linejoin:miter;stroke-miterlimit:4;stroke-opacity:1;stroke-dasharray:none" d="m 62.0625,60.424683 0,1.957908" id="path4864" inkscape:connector-curvature="0"/>
          <path inkscape:connector-curvature="0" id="path4866" d="m 52.0625,60.424683 0,1.957908" style="fill:none;stroke:#b3b3b3;stroke-width:0.5;stroke-linecap:round;stroke-linejoin:miter;stroke-miterlimit:4;stroke-opacity:1;stroke-dasharray:none"/>
          <path style="fill:none;stroke:#b3b3b3;stroke-width:0.5;stroke-linecap:round;stroke-linejoin:miter;stroke-miterlimit:4;stroke-opacity:1;stroke-dasharray:none" d="m 68.0625,60.424683 0,1.957908" id="path4868" inkscape:connector-curvature="0"/>
          <path inkscape:connector-curvature="0" id="path4870" d="m 66.0625,60.424683 0,1.957908" style="fill:none;stroke:#b3b3b3;stroke-width:0.5;stroke-linecap:round;stroke-linejoin:miter;stroke-miterlimit:4;stroke-opacity:1;stroke-dasharray:none"/>
          <path style="fill:none;stroke:#b3b3b3;stroke-width:0.5;stroke-linecap:round;stroke-linejoin:miter;stroke-miterlimit:4;stroke-opacity:1;stroke-dasharray:none" d="m 64.0625,60.424683 0,1.957908" id="path4872" inkscape:connector-curvature="0"/>
          <path inkscape:connector-curvature="0" id="path4874" d="m 60.0625,60.424683 0,1.957908" style="fill:none;stroke:#b3b3b3;stroke-width:0.5;stroke-linecap:round;stroke-linejoin:miter;stroke-miterlimit:4;stroke-opacity:1;stroke-dasharray:none"/>
          <path style="fill:none;stroke:#b3b3b3;stroke-width:0.5;stroke-linecap:round;stroke-linejoin:miter;stroke-miterlimit:4;stroke-opacity:1;stroke-dasharray:none" d="m 58.0625,60.424683 0,1.957908" id="path4876" inkscape:connector-curvature="0"/>
          <path inkscape:connector-curvature="0" id="path4878" d="m 54.0625,60.424683 0,1.957908" style="fill:none;stroke:#b3b3b3;stroke-width:0.5;stroke-linecap:round;stroke-linejoin:miter;stroke-miterlimit:4;stroke-opacity:1;stroke-dasharray:none"/>
          <path style="fill:none;stroke:#b3b3b3;stroke-width:0.5;stroke-linecap:round;stroke-linejoin:miter;stroke-miterlimit:4;stroke-opacity:1;stroke-dasharray:none" d="m 56.0625,60.424683 0,1.957908" id="path4880" inkscape:connector-curvature="0"/>
          <path inkscape:connector-curvature="0" id="path4882" d="m 70.0625,60.424683 0,1.957908" style="fill:none;stroke:#b3b3b3;stroke-width:0.5;stroke-linecap:round;stroke-linejoin:miter;stroke-miterlimit:4;stroke-opacity:1;stroke-dasharray:none"/>
          <path style="fill:none;stroke:#b3b3b3;stroke-width:0.5;stroke-linecap:round;stroke-linejoin:miter;stroke-miterlimit:4;stroke-opacity:1;stroke-dasharray:none" d="m 72.0625,60.424683 0,1.957908" id="path4884" inkscape:connector-curvature="0"/>
          <path inkscape:connector-curvature="0" id="path4886" d="m 74.0625,60.424683 0,1.957908" style="fill:none;stroke:#b3b3b3;stroke-width:0.5;stroke-linecap:round;stroke-linejoin:miter;stroke-miterlimit:4;stroke-opacity:1;stroke-dasharray:none"/>
          <path style="fill:none;stroke:#b3b3b3;stroke-width:0.5;stroke-linecap:round;stroke-linejoin:miter;stroke-miterlimit:4;stroke-opacity:1;stroke-dasharray:none" d="m 76.0625,60.424683 0,1.957908" id="path4888" inkscape:connector-curvature="0"/>
          <path inkscape:connector-curvature="0" id="path4890" d="m 78.0625,60.424683 0,1.957908" style="fill:none;stroke:#b3b3b3;stroke-width:0.5;stroke-linecap:round;stroke-linejoin:miter;stroke-miterlimit:4;stroke-opacity:1;stroke-dasharray:none"/>
          <path style="fill:none;stroke:#b3b3b3;stroke-width:0.5;stroke-linecap:round;stroke-linejoin:miter;stroke-miterlimit:4;stroke-opacity:1;stroke-dasharray:none" d="m 80.0625,60.424683 0,1.957908" id="path4892" inkscape:connector-curvature="0"/>
          <path inkscape:connector-curvature="0" id="path4894" d="m 82.0625,60.424683 0,1.957908" style="fill:none;stroke:#b3b3b3;stroke-width:0.5;stroke-linecap:round;stroke-linejoin:miter;stroke-miterlimit:4;stroke-opacity:1;stroke-dasharray:none"/>
        </g>
      </g>
    </g>
    <g id="g5000" transform="matrix(4.2262903,0,0,4.2262903,-107.15306,202.1065)" style="stroke-width:0.1;stroke-miterlimit:4;stroke-dasharray:none">
      <g id="g4970" transform="matrix(0.66666662,0,0,0.61538454,75.933336,19.462381)" style="stroke-width:0.15612496;stroke-miterlimit:4;stroke-dasharray:none">
        <path style="color:#000000;fill:#f2f2f2;fill-opacity:1;fill-rule:evenodd;stroke:#cccccc;stroke-width:0.31224993;marker:none;visibility:visible;display:inline;overflow:visible;enable-background:accumulate" d="m 40.236966,22.366076 39.726069,0 c 0.572323,0 1.033074,0.46075 1.033074,1.033073 l 0,28.926069 c 0,0.572323 -0.460751,1.033074 -1.033074,1.033074 l -39.726069,0 c -0.572323,0 -1.033074,-0.460751 -1.033074,-1.033074 l 0,-28.926069 c 0,-0.572323 0.460751,-1.033073 1.033074,-1.033073 z" id="rect4972"/>
        <path style="color:#000000;fill:url(#linearGradient5681);fill-opacity:1;fill-rule:evenodd;stroke:none;stroke-width:0.31224993;marker:none;visibility:visible;display:inline;overflow:visible;enable-background:accumulate" d="m 42.866667,24.362183 34.266666,0 C 77.613467,24.362183 78,24.748716 78,25.228849 l 0,24.266667 c 0,0.480133 -0.386533,0.866667 -0.866667,0.866667 l -34.266666,0 C 42.386533,50.362183 42,49.975649 42,49.495516 l 0,-24.266667 c 0,-0.480133 0.386533,-0.866666 0.866667,-0.866666 z" id="rect4974"/>
      </g>
      <path transform="translate(6.5132318,4.9438699)" style="color:#000000;fill:#4d4d4d;fill-opacity:1;fill-rule:evenodd;stroke:#cccccc;stroke-width:0.2;stroke-linecap:round;stroke-linejoin:miter;stroke-dashoffset:0;stroke-opacity:1;marker:none;visibility:visible;display:inline;overflow:visible;enable-background:accumulate" d="m 97.065337,29.945724 c 0,0.297349 -0.241049,0.538398 -0.538398,0.538398 -0.297348,0 -0.538397,-0.241049 -0.538397,-0.538398 0,-0.297348 0.241049,-0.538397 0.538397,-0.538397 0.297349,0 0.538398,0.241049 0.538398,0.538397 z" id="path4998"/>
    </g>
    <g id="g5006" transform="matrix(0,4.2262903,-4.2262903,0,749.40973,-107.45642)" style="stroke-width:0.1;stroke-miterlimit:4;stroke-dasharray:none">
      <g transform="matrix(0.66666662,0,0,0.61538454,75.933336,19.462381)" id="g5008" style="stroke-width:0.15612496;stroke-miterlimit:4;stroke-dasharray:none"/>
      <g id="g5090" transform="matrix(0.57510918,0,0,0.48984664,50.026894,23.043035)" style="stroke-width:0.17388003;stroke-miterlimit:4;stroke-dasharray:none">
        <path transform="matrix(0.66666662,0,0,0.61538454,75.933336,19.46238)" style="color:#000000;fill:#f2f2f2;fill-opacity:1;fill-rule:evenodd;stroke:#cccccc;stroke-width:0.54294026;marker:none;visibility:visible;display:inline;overflow:visible;enable-background:accumulate" d="m 38.7598,22.366076 43.294139,0 c 0.572323,0 1.033074,0.46075 1.033074,1.033073 l 0,28.926069 c 0,0.572323 -0.460751,1.033074 -1.033074,1.033074 l -43.294139,0 c -0.572323,0 -1.033073,-0.460751 -1.033073,-1.033074 l 0,-28.926069 c 0,-0.572323 0.46075,-1.033073 1.033073,-1.033073 z" id="rect5010"/>
        <path transform="matrix(0.66666662,0,0,-0.61538454,75.933336,19.46238)" style="color:#000000;fill:url(#linearGradient5683);fill-opacity:1;fill-rule:evenodd;stroke:none;stroke-width:0.54294026;marker:none;visibility:visible;display:inline;overflow:visible;enable-background:accumulate" d="m 42.966655,-52.361946 34.06669,0 c 0.535527,0 0.966655,0.431128 0.966655,0.966655 l 0,27.066333 c 0,0.535527 -0.431128,0.966655 -0.966655,0.966655 l -34.06669,0 C 42.431128,-23.362303 42,-23.793431 42,-24.328958 l 0,-27.066333 c 0,-0.535527 0.431128,-0.966655 0.966655,-0.966655 z" id="rect5012"/>
        <path transform="matrix(0,-0.61538454,0.66666662,0,75.933336,19.46238)" style="color:#000000;fill:#e6e6e6;fill-opacity:1;fill-rule:evenodd;stroke:#999999;stroke-width:0.54294026;marker:none;visibility:visible;display:inline;overflow:visible;enable-background:accumulate" d="m -39.619901,78.997086 3.294194,0 c 0.206916,0 0.373495,0.166578 0.373495,0.373495 l 0,2.689886 c 0,0.206917 -0.166579,0.373496 -0.373495,0.373496 l -3.294194,0 c -0.206917,0 -0.373496,-0.166579 -0.373496,-0.373496 l 0,-2.689886 c 0,-0.206917 0.166579,-0.373495 0.373496,-0.373495 z" id="rect5083"/>
        <path transform="matrix(1.5119936,0,0,1.5119936,-43.420706,-2.5942088)" style="color:#000000;fill:#4d4d4d;fill-opacity:1;fill-rule:evenodd;stroke:#cccccc;stroke-width:0.230001;stroke-linecap:round;stroke-linejoin:miter;stroke-dashoffset:0;stroke-opacity:1;marker:none;visibility:visible;display:inline;overflow:visible;enable-background:accumulate" d="m 97.065337,29.945724 c 0,0.297349 -0.241049,0.538398 -0.538398,0.538398 -0.297348,0 -0.538397,-0.241049 -0.538397,-0.538398 0,-0.297348 0.241049,-0.538397 0.538397,-0.538397 0.297349,0 0.538398,0.241049 0.538398,0.538397 z" id="path5014"/>
      </g>
    </g>
    <g id="g5124" transform="matrix(4.2262903,0,0,4.2262903,200.87921,-74.470638)">
      <rect style="color:#000000;fill:#999999;fill-opacity:1;fill-rule:evenodd;stroke:#999999;stroke-width:0.5;stroke-linecap:round;stroke-linejoin:miter;stroke-miterlimit:4;stroke-opacity:1;stroke-dasharray:none;stroke-dashoffset:0;marker:none;visibility:visible;display:inline;overflow:visible;enable-background:accumulate" id="rect5190" width="16.243372" height="0" x="203.3324" y="58.905048" transform="translate(-135.7483,16.243387)" ry="0"/>
      <g id="g5204">
        <path style="color:#000000;fill:#4d4d4d;fill-opacity:1;fill-rule:evenodd;stroke:#cccccc;stroke-width:0.20812476;stroke-miterlimit:4;marker:none;visibility:visible;display:inline;overflow:visible;enable-background:accumulate" d="m 33,52.362183 54.144894,0 0,11 -54.144894,0 z" id="rect5126"/>
        <path style="color:#000000;fill:#4d4d4d;fill-opacity:1;fill-rule:evenodd;stroke:#000000;stroke-width:0.2;stroke-linecap:square;stroke-linejoin:miter;stroke-miterlimit:4;stroke-dashoffset:0;stroke-opacity:1;marker:none;visibility:visible;display:inline;overflow:visible;enable-background:accumulate" d="m 38,54.362183 18,0 0,2 -18,0 z" id="rect5128"/>
        <path transform="translate(0.0625,2.9375)" style="color:#000000;fill:#1a1a1a;fill-opacity:1;fill-rule:evenodd;stroke:#000000;stroke-width:0.2;stroke-linecap:square;stroke-linejoin:miter;stroke-miterlimit:4;stroke-dashoffset:0;stroke-opacity:1;marker:none;visibility:visible;display:inline;overflow:visible;enable-background:accumulate" d="m 58,52.862183 c 0,0.276142 -0.223858,0.5 -0.5,0.5 -0.276142,0 -0.5,-0.223858 -0.5,-0.5 0,-0.276143 0.223858,-0.5 0.5,-0.5 0.276142,0 0.5,0.223857 0.5,0.5 z" id="path5130"/>
        <path transform="translate(4,0)" style="color:#000000;fill:#1a1a1a;fill-opacity:1;fill-rule:evenodd;stroke:#000000;stroke-width:0.2;stroke-linecap:square;stroke-linejoin:miter;stroke-miterlimit:4;stroke-dashoffset:0;stroke-opacity:1;marker:none;visibility:visible;display:inline;overflow:visible;enable-background:accumulate" d="m 79,55.362183 c 0,0.552284 -0.447715,1 -1,1 -0.552285,0 -1,-0.447716 -1,-1 0,-0.552285 0.447715,-1 1,-1 0.552285,0 1,0.447715 1,1 z" id="path5132"/>
        <path transform="translate(21.0625,2.9375)" style="color:#000000;fill:#1a1a1a;fill-opacity:1;fill-rule:evenodd;stroke:#000000;stroke-width:0.2;stroke-linecap:square;stroke-linejoin:miter;stroke-miterlimit:4;stroke-dashoffset:0;stroke-opacity:1;marker:none;visibility:visible;display:inline;overflow:visible;enable-background:accumulate" d="m 58,52.862183 c 0,0.276142 -0.223858,0.5 -0.5,0.5 -0.276142,0 -0.5,-0.223858 -0.5,-0.5 0,-0.276143 0.223858,-0.5 0.5,-0.5 0.276142,0 0.5,0.223857 0.5,0.5 z" id="path5134"/>
        <path transform="translate(19.0625,2.9375)" style="color:#000000;fill:#1a1a1a;fill-opacity:1;fill-rule:evenodd;stroke:#000000;stroke-width:0.2;stroke-linecap:square;stroke-linejoin:miter;stroke-miterlimit:4;stroke-dashoffset:0;stroke-opacity:1;marker:none;visibility:visible;display:inline;overflow:visible;enable-background:accumulate" d="m 58,52.862183 c 0,0.276142 -0.223858,0.5 -0.5,0.5 -0.276142,0 -0.5,-0.223858 -0.5,-0.5 0,-0.276143 0.223858,-0.5 0.5,-0.5 0.276142,0 0.5,0.223857 0.5,0.5 z" id="path5136"/>
        <path transform="translate(17.0625,2.9375)" style="color:#000000;fill:#1a1a1a;fill-opacity:1;fill-rule:evenodd;stroke:#000000;stroke-width:0.2;stroke-linecap:square;stroke-linejoin:miter;stroke-miterlimit:4;stroke-dashoffset:0;stroke-opacity:1;marker:none;visibility:visible;display:inline;overflow:visible;enable-background:accumulate" d="m 58,52.862183 c 0,0.276142 -0.223858,0.5 -0.5,0.5 -0.276142,0 -0.5,-0.223858 -0.5,-0.5 0,-0.276143 0.223858,-0.5 0.5,-0.5 0.276142,0 0.5,0.223857 0.5,0.5 z" id="path5138"/>
        <g id="g5140" style="stroke:#1a1a1a;stroke-width:0.1;stroke-miterlimit:4;stroke-dasharray:none">
          <path style="fill:none;stroke:#1a1a1a;stroke-width:0.5;stroke-linecap:round;stroke-linejoin:miter;stroke-miterlimit:4;stroke-opacity:1;stroke-dasharray:none" d="m 37.047289,60.424683 46.047101,0" id="path5142" inkscape:connector-curvature="0"/>
          <path style="fill:none;stroke:#1a1a1a;stroke-width:0.5;stroke-linecap:round;stroke-linejoin:miter;stroke-miterlimit:4;stroke-opacity:1;stroke-dasharray:none" d="m 38.0625,60.424683 0,1.957908" id="path5144" inkscape:connector-curvature="0"/>
          <path inkscape:connector-curvature="0" id="path5146" d="m 40.0625,60.424683 0,1.957908" style="fill:none;stroke:#1a1a1a;stroke-width:0.5;stroke-linecap:round;stroke-linejoin:miter;stroke-miterlimit:4;stroke-opacity:1;stroke-dasharray:none"/>
          <path style="fill:none;stroke:#1a1a1a;stroke-width:0.5;stroke-linecap:round;stroke-linejoin:miter;stroke-miterlimit:4;stroke-opacity:1;stroke-dasharray:none" d="m 42.0625,60.424683 0,1.957908" id="path5148" inkscape:connector-curvature="0"/>
          <path inkscape:connector-curvature="0" id="path5150" d="m 44.0625,60.424683 0,1.957908" style="fill:none;stroke:#1a1a1a;stroke-width:0.5;stroke-linecap:round;stroke-linejoin:miter;stroke-miterlimit:4;stroke-opacity:1;stroke-dasharray:none"/>
          <path style="fill:none;stroke:#1a1a1a;stroke-width:0.5;stroke-linecap:round;stroke-linejoin:miter;stroke-miterlimit:4;stroke-opacity:1;stroke-dasharray:none" d="m 46.0625,60.424683 0,1.957908" id="path5152" inkscape:connector-curvature="0"/>
          <path inkscape:connector-curvature="0" id="path5154" d="m 48.0625,60.424683 0,1.957908" style="fill:none;stroke:#1a1a1a;stroke-width:0.5;stroke-linecap:round;stroke-linejoin:miter;stroke-miterlimit:4;stroke-opacity:1;stroke-dasharray:none"/>
          <path style="fill:none;stroke:#1a1a1a;stroke-width:0.5;stroke-linecap:round;stroke-linejoin:miter;stroke-miterlimit:4;stroke-opacity:1;stroke-dasharray:none" d="m 50.0625,60.424683 0,1.957908" id="path5156" inkscape:connector-curvature="0"/>
          <path inkscape:connector-curvature="0" id="path5158" d="m 62.0625,60.424683 0,1.957908" style="fill:none;stroke:#1a1a1a;stroke-width:0.5;stroke-linecap:round;stroke-linejoin:miter;stroke-miterlimit:4;stroke-opacity:1;stroke-dasharray:none"/>
          <path style="fill:none;stroke:#1a1a1a;stroke-width:0.5;stroke-linecap:round;stroke-linejoin:miter;stroke-miterlimit:4;stroke-opacity:1;stroke-dasharray:none" d="m 52.0625,60.424683 0,1.957908" id="path5160" inkscape:connector-curvature="0"/>
          <path inkscape:connector-curvature="0" id="path5162" d="m 68.0625,60.424683 0,1.957908" style="fill:none;stroke:#1a1a1a;stroke-width:0.5;stroke-linecap:round;stroke-linejoin:miter;stroke-miterlimit:4;stroke-opacity:1;stroke-dasharray:none"/>
          <path style="fill:none;stroke:#1a1a1a;stroke-width:0.5;stroke-linecap:round;stroke-linejoin:miter;stroke-miterlimit:4;stroke-opacity:1;stroke-dasharray:none" d="m 66.0625,60.424683 0,1.957908" id="path5164" inkscape:connector-curvature="0"/>
          <path inkscape:connector-curvature="0" id="path5166" d="m 64.0625,60.424683 0,1.957908" style="fill:none;stroke:#1a1a1a;stroke-width:0.5;stroke-linecap:round;stroke-linejoin:miter;stroke-miterlimit:4;stroke-opacity:1;stroke-dasharray:none"/>
          <path style="fill:none;stroke:#1a1a1a;stroke-width:0.5;stroke-linecap:round;stroke-linejoin:miter;stroke-miterlimit:4;stroke-opacity:1;stroke-dasharray:none" d="m 60.0625,60.424683 0,1.957908" id="path5168" inkscape:connector-curvature="0"/>
          <path inkscape:connector-curvature="0" id="path5170" d="m 58.0625,60.424683 0,1.957908" style="fill:none;stroke:#1a1a1a;stroke-width:0.5;stroke-linecap:round;stroke-linejoin:miter;stroke-miterlimit:4;stroke-opacity:1;stroke-dasharray:none"/>
          <path style="fill:none;stroke:#1a1a1a;stroke-width:0.5;stroke-linecap:round;stroke-linejoin:miter;stroke-miterlimit:4;stroke-opacity:1;stroke-dasharray:none" d="m 54.0625,60.424683 0,1.957908" id="path5172" inkscape:connector-curvature="0"/>
          <path inkscape:connector-curvature="0" id="path5174" d="m 56.0625,60.424683 0,1.957908" style="fill:none;stroke:#1a1a1a;stroke-width:0.5;stroke-linecap:round;stroke-linejoin:miter;stroke-miterlimit:4;stroke-opacity:1;stroke-dasharray:none"/>
          <path style="fill:none;stroke:#1a1a1a;stroke-width:0.5;stroke-linecap:round;stroke-linejoin:miter;stroke-miterlimit:4;stroke-opacity:1;stroke-dasharray:none" d="m 70.0625,60.424683 0,1.957908" id="path5176" inkscape:connector-curvature="0"/>
          <path inkscape:connector-curvature="0" id="path5178" d="m 72.0625,60.424683 0,1.957908" style="fill:none;stroke:#1a1a1a;stroke-width:0.5;stroke-linecap:round;stroke-linejoin:miter;stroke-miterlimit:4;stroke-opacity:1;stroke-dasharray:none"/>
          <path style="fill:none;stroke:#1a1a1a;stroke-width:0.5;stroke-linecap:round;stroke-linejoin:miter;stroke-miterlimit:4;stroke-opacity:1;stroke-dasharray:none" d="m 74.0625,60.424683 0,1.957908" id="path5180" inkscape:connector-curvature="0"/>
          <path inkscape:connector-curvature="0" id="path5182" d="m 76.0625,60.424683 0,1.957908" style="fill:none;stroke:#1a1a1a;stroke-width:0.5;stroke-linecap:round;stroke-linejoin:miter;stroke-miterlimit:4;stroke-opacity:1;stroke-dasharray:none"/>
          <path style="fill:none;stroke:#1a1a1a;stroke-width:0.5;stroke-linecap:round;stroke-linejoin:miter;stroke-miterlimit:4;stroke-opacity:1;stroke-dasharray:none" d="m 78.0625,60.424683 0,1.957908" id="path5184" inkscape:connector-curvature="0"/>
          <path inkscape:connector-curvature="0" id="path5186" d="m 80.0625,60.424683 0,1.957908" style="fill:none;stroke:#1a1a1a;stroke-width:0.5;stroke-linecap:round;stroke-linejoin:miter;stroke-miterlimit:4;stroke-opacity:1;stroke-dasharray:none"/>
          <path style="fill:none;stroke:#1a1a1a;stroke-width:0.5;stroke-linecap:round;stroke-linejoin:miter;stroke-miterlimit:4;stroke-opacity:1;stroke-dasharray:none" d="m 82.0625,60.424683 0,1.957908" id="path5188" inkscape:connector-curvature="0"/>
        </g>
        <path style="color:#000000;fill:#4d4d4d;fill-opacity:1;fill-rule:evenodd;stroke:#cccccc;stroke-width:0.05095629;stroke-miterlimit:4;marker:none;visibility:visible;display:inline;overflow:visible;enable-background:accumulate" d="m 87.25544,52.362183 3.245679,0 0,11 -3.245679,0 z" id="rect5192"/>
        <path transform="translate(31.280045,0.42989417)" style="color:#000000;fill:#1a1a1a;fill-opacity:1;fill-rule:evenodd;stroke:#000000;stroke-width:0.2;stroke-linecap:square;stroke-linejoin:miter;stroke-miterlimit:4;stroke-dashoffset:0;stroke-opacity:1;marker:none;visibility:visible;display:inline;overflow:visible;enable-background:accumulate" d="m 58,52.862183 c 0,0.276142 -0.223858,0.5 -0.5,0.5 -0.276142,0 -0.5,-0.223858 -0.5,-0.5 0,-0.276143 0.223858,-0.5 0.5,-0.5 0.276142,0 0.5,0.223857 0.5,0.5 z" id="path5194"/>
        <path transform="translate(31.280045,9.5901359)" style="color:#000000;fill:#1a1a1a;fill-opacity:1;fill-rule:evenodd;stroke:#000000;stroke-width:0.2;stroke-linecap:square;stroke-linejoin:miter;stroke-miterlimit:4;stroke-dashoffset:0;stroke-opacity:1;marker:none;visibility:visible;display:inline;overflow:visible;enable-background:accumulate" d="m 58,52.862183 c 0,0.276142 -0.223858,0.5 -0.5,0.5 -0.276142,0 -0.5,-0.223858 -0.5,-0.5 0,-0.276143 0.223858,-0.5 0.5,-0.5 0.276142,0 0.5,0.223857 0.5,0.5 z" id="path5196"/>
        <path style="color:#000000;fill:#4d4d4d;fill-opacity:1;fill-rule:evenodd;stroke:#cccccc;stroke-width:0.05095629;stroke-miterlimit:4;marker:none;visibility:visible;display:inline;overflow:visible;enable-background:accumulate" d="m 29.618015,52.362183 3.245679,0 0,11 -3.245679,0 z" id="rect5198"/>
        <path transform="translate(-26.357379,0.42989417)" style="color:#000000;fill:#1a1a1a;fill-opacity:1;fill-rule:evenodd;stroke:#000000;stroke-width:0.2;stroke-linecap:square;stroke-linejoin:miter;stroke-miterlimit:4;stroke-dashoffset:0;stroke-opacity:1;marker:none;visibility:visible;display:inline;overflow:visible;enable-background:accumulate" d="m 58,52.862183 c 0,0.276142 -0.223858,0.5 -0.5,0.5 -0.276142,0 -0.5,-0.223858 -0.5,-0.5 0,-0.276143 0.223858,-0.5 0.5,-0.5 0.276142,0 0.5,0.223857 0.5,0.5 z" id="path5200"/>
        <path transform="translate(-26.357379,9.5901359)" style="color:#000000;fill:#1a1a1a;fill-opacity:1;fill-rule:evenodd;stroke:#000000;stroke-width:0.2;stroke-linecap:square;stroke-linejoin:miter;stroke-miterlimit:4;stroke-dashoffset:0;stroke-opacity:1;marker:none;visibility:visible;display:inline;overflow:visible;enable-background:accumulate" d="m 58,52.862183 c 0,0.276142 -0.223858,0.5 -0.5,0.5 -0.276142,0 -0.5,-0.223858 -0.5,-0.5 0,-0.276143 0.223858,-0.5 0.5,-0.5 0.276142,0 0.5,0.223857 0.5,0.5 z" id="path5202"/>
      </g>
    </g>
    <g id="g5372" transform="matrix(4.2262903,0,0,4.2262903,-17.986602,-65.294582)">
      <g transform="translate(-30.620084,-2.191154)" id="g5244">
        <path style="color:#000000;fill:#cccccc;fill-opacity:1;fill-rule:evenodd;stroke:#cccccc;stroke-width:0.24806362;stroke-miterlimit:4;marker:none;visibility:visible;display:inline;overflow:visible;enable-background:accumulate" d="m 35.55859,22.553471 19.61648,0 c 0.309459,0 0.55859,0.249131 0.55859,0.558589 l 0,39.691533 c 0,0.309459 -0.249131,0.55859 -0.55859,0.55859 l -19.61648,0 C 35.249131,63.362183 35,63.113052 35,62.803593 L 35,23.11206 c 0,-0.309458 0.249131,-0.558589 0.55859,-0.558589 z" id="rect5246"/>
        <path style="color:#000000;fill:#cccccc;fill-opacity:1;fill-rule:evenodd;stroke:#999999;stroke-width:0.2;stroke-linecap:square;stroke-linejoin:miter;stroke-miterlimit:4;stroke-dashoffset:0;stroke-opacity:1;marker:none;visibility:visible;display:inline;overflow:visible;enable-background:accumulate" d="m 36.290062,29.606607 18,0 0,2 -18,0 z" id="rect5248"/>
        <path transform="translate(-3.9983467,-20.183155)" style="color:#000000;fill:#b3b3b3;fill-opacity:1;fill-rule:evenodd;stroke:#999999;stroke-width:0.2;stroke-linecap:square;stroke-linejoin:miter;stroke-miterlimit:4;stroke-dashoffset:0;stroke-opacity:1;marker:none;visibility:visible;display:inline;overflow:visible;enable-background:accumulate" d="m 58,52.862183 c 0,0.276142 -0.223858,0.5 -0.5,0.5 -0.276142,0 -0.5,-0.223858 -0.5,-0.5 0,-0.276143 0.223858,-0.5 0.5,-0.5 0.276142,0 0.5,0.223857 0.5,0.5 z" id="path5250"/>
        <path transform="translate(-24.861017,-30.31132)" style="color:#000000;fill:#999999;fill-opacity:1;fill-rule:evenodd;stroke:#999999;stroke-width:0.2;stroke-linecap:square;stroke-linejoin:miter;stroke-miterlimit:4;stroke-dashoffset:0;stroke-opacity:1;marker:none;visibility:visible;display:inline;overflow:visible;enable-background:accumulate" d="m 79,55.362183 c 0,0.552284 -0.447715,1 -1,1 -0.552285,0 -1,-0.447716 -1,-1 0,-0.552285 0.447715,-1 1,-1 0.552285,0 1,0.447715 1,1 z" id="path5252"/>
        <path transform="translate(-7.7985174,-27.37382)" style="color:#000000;fill:#999999;fill-opacity:1;fill-rule:evenodd;stroke:#999999;stroke-width:0.2;stroke-linecap:square;stroke-linejoin:miter;stroke-miterlimit:4;stroke-dashoffset:0;stroke-opacity:1;marker:none;visibility:visible;display:inline;overflow:visible;enable-background:accumulate" d="m 58,52.862183 c 0,0.276142 -0.223858,0.5 -0.5,0.5 -0.276142,0 -0.5,-0.223858 -0.5,-0.5 0,-0.276143 0.223858,-0.5 0.5,-0.5 0.276142,0 0.5,0.223857 0.5,0.5 z" id="path5254"/>
        <path transform="translate(-9.7985174,-27.37382)" style="color:#000000;fill:#999999;fill-opacity:1;fill-rule:evenodd;stroke:#999999;stroke-width:0.2;stroke-linecap:square;stroke-linejoin:miter;stroke-miterlimit:4;stroke-dashoffset:0;stroke-opacity:1;marker:none;visibility:visible;display:inline;overflow:visible;enable-background:accumulate" d="m 58,52.862183 c 0,0.276142 -0.223858,0.5 -0.5,0.5 -0.276142,0 -0.5,-0.223858 -0.5,-0.5 0,-0.276143 0.223858,-0.5 0.5,-0.5 0.276142,0 0.5,0.223857 0.5,0.5 z" id="path5256"/>
        <path transform="translate(-11.798517,-27.37382)" style="color:#000000;fill:#999999;fill-opacity:1;fill-rule:evenodd;stroke:#999999;stroke-width:0.2;stroke-linecap:square;stroke-linejoin:miter;stroke-miterlimit:4;stroke-dashoffset:0;stroke-opacity:1;marker:none;visibility:visible;display:inline;overflow:visible;enable-background:accumulate" d="m 58,52.862183 c 0,0.276142 -0.223858,0.5 -0.5,0.5 -0.276142,0 -0.5,-0.223858 -0.5,-0.5 0,-0.276143 0.223858,-0.5 0.5,-0.5 0.276142,0 0.5,0.223857 0.5,0.5 z" id="path5258"/>
        <g transform="matrix(0.37346199,0,0,8.6672416,23.211535,-478.3024)" id="g5260" style="stroke-width:0.1;stroke-miterlimit:4;stroke-dasharray:none">
          <path style="fill:none;stroke:#b3b3b3;stroke-width:0.11116456;stroke-linecap:round;stroke-linejoin:miter;stroke-miterlimit:4;stroke-opacity:1;stroke-dasharray:none" d="m 37.047289,60.424683 46.047101,0" id="path5262" inkscape:connector-curvature="0"/>
          <path style="fill:none;stroke:#b3b3b3;stroke-width:0.11116456;stroke-linecap:round;stroke-linejoin:miter;stroke-miterlimit:4;stroke-opacity:1;stroke-dasharray:none" d="m 38.0625,60.424683 0,1.957908" id="path5264" inkscape:connector-curvature="0"/>
          <path inkscape:connector-curvature="0" id="path5266" d="m 40.0625,60.424683 0,1.957908" style="fill:none;stroke:#b3b3b3;stroke-width:0.11116456;stroke-linecap:round;stroke-linejoin:miter;stroke-miterlimit:4;stroke-opacity:1;stroke-dasharray:none"/>
          <path style="fill:none;stroke:#b3b3b3;stroke-width:0.11116456;stroke-linecap:round;stroke-linejoin:miter;stroke-miterlimit:4;stroke-opacity:1;stroke-dasharray:none" d="m 42.0625,60.424683 0,1.957908" id="path5268" inkscape:connector-curvature="0"/>
          <path inkscape:connector-curvature="0" id="path5270" d="m 44.0625,60.424683 0,1.957908" style="fill:none;stroke:#b3b3b3;stroke-width:0.11116456;stroke-linecap:round;stroke-linejoin:miter;stroke-miterlimit:4;stroke-opacity:1;stroke-dasharray:none"/>
          <path style="fill:none;stroke:#b3b3b3;stroke-width:0.11116456;stroke-linecap:round;stroke-linejoin:miter;stroke-miterlimit:4;stroke-opacity:1;stroke-dasharray:none" d="m 46.0625,60.424683 0,1.957908" id="path5272" inkscape:connector-curvature="0"/>
          <path inkscape:connector-curvature="0" id="path5274" d="m 48.0625,60.424683 0,1.957908" style="fill:none;stroke:#b3b3b3;stroke-width:0.11116456;stroke-linecap:round;stroke-linejoin:miter;stroke-miterlimit:4;stroke-opacity:1;stroke-dasharray:none"/>
          <path style="fill:none;stroke:#b3b3b3;stroke-width:0.11116456;stroke-linecap:round;stroke-linejoin:miter;stroke-miterlimit:4;stroke-opacity:1;stroke-dasharray:none" d="m 50.0625,60.424683 0,1.957908" id="path5276" inkscape:connector-curvature="0"/>
          <path inkscape:connector-curvature="0" id="path5278" d="m 62.0625,60.424683 0,1.957908" style="fill:none;stroke:#b3b3b3;stroke-width:0.11116456;stroke-linecap:round;stroke-linejoin:miter;stroke-miterlimit:4;stroke-opacity:1;stroke-dasharray:none"/>
          <path style="fill:none;stroke:#b3b3b3;stroke-width:0.11116456;stroke-linecap:round;stroke-linejoin:miter;stroke-miterlimit:4;stroke-opacity:1;stroke-dasharray:none" d="m 52.0625,60.424683 0,1.957908" id="path5280" inkscape:connector-curvature="0"/>
          <path inkscape:connector-curvature="0" id="path5282" d="m 68.0625,60.424683 0,1.957908" style="fill:none;stroke:#b3b3b3;stroke-width:0.11116456;stroke-linecap:round;stroke-linejoin:miter;stroke-miterlimit:4;stroke-opacity:1;stroke-dasharray:none"/>
          <path style="fill:none;stroke:#b3b3b3;stroke-width:0.11116456;stroke-linecap:round;stroke-linejoin:miter;stroke-miterlimit:4;stroke-opacity:1;stroke-dasharray:none" d="m 66.0625,60.424683 0,1.957908" id="path5284" inkscape:connector-curvature="0"/>
          <path inkscape:connector-curvature="0" id="path5286" d="m 64.0625,60.424683 0,1.957908" style="fill:none;stroke:#b3b3b3;stroke-width:0.11116456;stroke-linecap:round;stroke-linejoin:miter;stroke-miterlimit:4;stroke-opacity:1;stroke-dasharray:none"/>
          <path style="fill:none;stroke:#b3b3b3;stroke-width:0.11116456;stroke-linecap:round;stroke-linejoin:miter;stroke-miterlimit:4;stroke-opacity:1;stroke-dasharray:none" d="m 60.0625,60.424683 0,1.957908" id="path5288" inkscape:connector-curvature="0"/>
          <path inkscape:connector-curvature="0" id="path5290" d="m 58.0625,60.424683 0,1.957908" style="fill:none;stroke:#b3b3b3;stroke-width:0.11116456;stroke-linecap:round;stroke-linejoin:miter;stroke-miterlimit:4;stroke-opacity:1;stroke-dasharray:none"/>
          <path style="fill:none;stroke:#b3b3b3;stroke-width:0.11116456;stroke-linecap:round;stroke-linejoin:miter;stroke-miterlimit:4;stroke-opacity:1;stroke-dasharray:none" d="m 54.0625,60.424683 0,1.957908" id="path5292" inkscape:connector-curvature="0"/>
          <path inkscape:connector-curvature="0" id="path5294" d="m 56.0625,60.424683 0,1.957908" style="fill:none;stroke:#b3b3b3;stroke-width:0.11116456;stroke-linecap:round;stroke-linejoin:miter;stroke-miterlimit:4;stroke-opacity:1;stroke-dasharray:none"/>
          <path style="fill:none;stroke:#b3b3b3;stroke-width:0.11116456;stroke-linecap:round;stroke-linejoin:miter;stroke-miterlimit:4;stroke-opacity:1;stroke-dasharray:none" d="m 70.0625,60.424683 0,1.957908" id="path5296" inkscape:connector-curvature="0"/>
          <path inkscape:connector-curvature="0" id="path5298" d="m 72.0625,60.424683 0,1.957908" style="fill:none;stroke:#b3b3b3;stroke-width:0.11116456;stroke-linecap:round;stroke-linejoin:miter;stroke-miterlimit:4;stroke-opacity:1;stroke-dasharray:none"/>
          <path style="fill:none;stroke:#b3b3b3;stroke-width:0.11116456;stroke-linecap:round;stroke-linejoin:miter;stroke-miterlimit:4;stroke-opacity:1;stroke-dasharray:none" d="m 74.0625,60.424683 0,1.957908" id="path5300" inkscape:connector-curvature="0"/>
          <path inkscape:connector-curvature="0" id="path5302" d="m 76.0625,60.424683 0,1.957908" style="fill:none;stroke:#b3b3b3;stroke-width:0.11116456;stroke-linecap:round;stroke-linejoin:miter;stroke-miterlimit:4;stroke-opacity:1;stroke-dasharray:none"/>
          <path style="fill:none;stroke:#b3b3b3;stroke-width:0.11116456;stroke-linecap:round;stroke-linejoin:miter;stroke-miterlimit:4;stroke-opacity:1;stroke-dasharray:none" d="m 78.0625,60.424683 0,1.957908" id="path5304" inkscape:connector-curvature="0"/>
          <path inkscape:connector-curvature="0" id="path5306" d="m 80.0625,60.424683 0,1.957908" style="fill:none;stroke:#b3b3b3;stroke-width:0.11116456;stroke-linecap:round;stroke-linejoin:miter;stroke-miterlimit:4;stroke-opacity:1;stroke-dasharray:none"/>
          <path style="fill:none;stroke:#b3b3b3;stroke-width:0.11116456;stroke-linecap:round;stroke-linejoin:miter;stroke-miterlimit:4;stroke-opacity:1;stroke-dasharray:none" d="m 82.0625,60.424683 0,1.957908" id="path5308" inkscape:connector-curvature="0"/>
        </g>
      </g>
      <g transform="translate(26.264674,2.9928499)" id="g5322">
        <path style="color:#000000;fill:#999999;fill-opacity:1;fill-rule:evenodd;stroke:#cccccc;stroke-width:0.25817108;stroke-linecap:round;stroke-linejoin:miter;stroke-miterlimit:4;stroke-dashoffset:0;stroke-opacity:1;marker:none;visibility:visible;display:inline;overflow:visible;enable-background:accumulate" d="m 17.66048,51.58276 8.868276,0 c 0.327361,0 0.590903,0.263543 0.590903,0.590903 l 0,5.311747 c 0,0.327361 -0.263542,0.590903 -0.590903,0.590903 l -8.868276,0 c -0.327361,0 -0.590904,-0.263542 -0.590904,-0.590903 l 0,-5.311747 c 0,-0.32736 0.263543,-0.590903 0.590904,-0.590903 z" id="rect5318"/>
        <g transform="translate(-37.9,0.1)" id="g5310">
          <path style="color:#000000;fill:#b3b3b3;fill-opacity:1;fill-rule:evenodd;stroke:#cccccc;stroke-width:0.2;stroke-miterlimit:4;marker:none;visibility:visible;display:inline;overflow:visible;enable-background:accumulate" d="m 41,22.362183 38,0 c 0.554,0 1,0.446 1,1 l 0,28 c 0,0.554 -0.446,1 -1,1 l -38,0 c -0.554,0 -1,-0.446 -1,-1 l 0,-28 c 0,-0.554 0.446,-1 1,-1 z" id="rect5312"/>
          <path style="color:#000000;fill:url(#linearGradient5685);fill-opacity:1;fill-rule:evenodd;stroke:none;stroke-width:0.2;marker:none;visibility:visible;display:inline;overflow:visible;enable-background:accumulate" d="m 42.866667,24.362183 34.266666,0 C 77.613467,24.362183 78,24.748716 78,25.228849 l 0,24.266667 c 0,0.480133 -0.386533,0.866667 -0.866667,0.866667 l -34.266666,0 C 42.386533,50.362183 42,49.975649 42,49.495516 l 0,-24.266667 c 0,-0.480133 0.386533,-0.866666 0.866667,-0.866666 z" id="rect5314"/>
        </g>
        <path style="color:#000000;fill:#999999;fill-opacity:1;fill-rule:evenodd;stroke:#cccccc;stroke-width:0.19660696;stroke-linecap:round;stroke-linejoin:miter;stroke-miterlimit:4;stroke-dashoffset:0;stroke-opacity:1;marker:none;visibility:visible;display:inline;overflow:visible;enable-background:accumulate" d="m 13.501878,56.003998 16.80364,0 c 0.110905,0 0.200189,0.08928 0.200189,0.200188 l 0,1.799533 c 0,0.110904 -0.08928,0.200188 -0.200189,0.200188 l -16.80364,0 c -0.110905,0 -0.200189,-0.08928 -0.200189,-0.200188 l 0,-1.799533 c 0,-0.110904 0.08928,-0.200188 0.200189,-0.200188 z" id="rect5320"/>
      </g>
    </g>
  </g>
  <metadata>
    <rdf:RDF>
      <cc:Work>
        <dc:format>image/svg+xml</dc:format>
        <dc:type rdf:resource="http://purl.org/dc/dcmitype/StillImage"/>
        <cc:license rdf:resource="http://creativecommons.org/licenses/publicdomain/"/>
        <dc:publisher>
          <cc:Agent rdf:about="http://openclipart.org/">
            <dc:title>Open Clip Art Library</dc:title>
          </cc:Agent>
        </dc:publisher>
        <dc:title>Tech set</dc:title>
        <dc:date>2012-02-03T20:30:55</dc:date>
        <dc:description>Set of simple tech machines</dc:description>
        <dc:source>http://openclipart.org/detail/167664/tech-set-by-mi_brami</dc:source>
        <dc:creator>
          <cc:Agent>
            <dc:title>mi_brami</dc:title>
          </cc:Agent>
        </dc:creator>
        <dc:subject>
          <rdf:Bag>
            <rdf:li>19'</rdf:li>
            <rdf:li>Client</rdf:li>
            <rdf:li>Computer</rdf:li>
            <rdf:li>Desktop</rdf:li>
            <rdf:li>Phone</rdf:li>
            <rdf:li>Rack</rdf:li>
            <rdf:li>Server</rdf:li>
            <rdf:li>Tablet</rdf:li>
            <rdf:li>Tower</rdf:li>
            <rdf:li>bw</rdf:li>
            <rdf:li>clip art</rdf:li>
            <rdf:li>clipart</rdf:li>
            <rdf:li>icons</rdf:li>
            <rdf:li>simple</rdf:li>
            <rdf:li>technology</rdf:li>
          </rdf:Bag>
        </dc:subject>
      </cc:Work>
      <cc:License rdf:about="http://creativecommons.org/licenses/publicdomain/">
        <cc:permits rdf:resource="http://creativecommons.org/ns#Reproduction"/>
        <cc:permits rdf:resource="http://creativecommons.org/ns#Distribution"/>
        <cc:permits rdf:resource="http://creativecommons.org/ns#DerivativeWorks"/>
      </cc:License>
    </rdf:RDF>
  </metadata>
</svg>
