<?xml version="1.0" encoding="UTF-8" standalone="no"?>
<!-- Created with Inkscape (http://www.inkscape.org/) -->
<svg xmlns:dc="http://purl.org/dc/elements/1.1/" xmlns:cc="http://creativecommons.org/ns#" xmlns:rdf="http://www.w3.org/1999/02/22-rdf-syntax-ns#" xmlns:svg="http://www.w3.org/2000/svg" xmlns="http://www.w3.org/2000/svg" xmlns:sodipodi="http://sodipodi.sourceforge.net/DTD/sodipodi-0.dtd" xmlns:inkscape="http://www.inkscape.org/namespaces/inkscape" id="svg3599" version="1.1" inkscape:version="0.48.0 r9654" width="80.225311" height="59.08445" sodipodi:docname="trendnet_wireless_router.svg" style="display:inline">
  <defs id="defs3603"/>
  <sodipodi:namedview pagecolor="#ffffff" bordercolor="#666666" borderopacity="1" objecttolerance="10" gridtolerance="10" guidetolerance="10" inkscape:pageopacity="0" inkscape:pageshadow="2" inkscape:window-width="1280" inkscape:window-height="742" id="namedview3601" showgrid="false" inkscape:zoom="4.9981793" inkscape:cx="-18.644201" inkscape:cy="17.538843" inkscape:window-x="0" inkscape:window-y="24" inkscape:window-maximized="1" inkscape:current-layer="layer3" fit-margin-top="0" fit-margin-left="0" fit-margin-right="0" fit-margin-bottom="0"/>
  <g inkscape:groupmode="layer" id="layer3" inkscape:label="dlink" style="display:inline" transform="translate(-32.896305,6.488548)" sodipodi:insensitive="true">
    <path style="fill:#000000;stroke:none;display:inline" d="m 89.702257,-6.45834 -0.07482,0 c -0.574312,-0.16773 -0.842603,0.403341 -1.215869,0.72098 -0.537694,13.640397 -1.157007,26.189936 -0.720982,40.374888 1.344781,0.02081 2.151513,0.0039 3.453624,-0.08248 0.56211,-14.154895 -0.5242,-26.501021 -0.72099,-40.292407 -0.24033,-0.240326 -0.48065,-0.480653 -0.720977,-0.72098" id="path7414-5-5" inkscape:connector-curvature="0" sodipodi:nodetypes="ccccccc"/>
    <path style="fill:#000000;stroke:none;display:inline" d="m 55.102038,-6.4583397 -0.07482,0 c -0.574312,-0.16773 -0.842603,0.403341 -1.215869,0.72098 -0.537694,13.640397 -1.157007,26.1899357 -0.720982,40.3748877 1.344781,0.02081 2.151513,0.0039 3.453624,-0.08248 0.56211,-14.154895 -0.5242,-26.5010207 -0.72099,-40.2924067 -0.24033,-0.240326 -0.48065,-0.480653 -0.720977,-0.72098" id="path7414-5-5-5" inkscape:connector-curvature="0" sodipodi:nodetypes="ccccccc"/>
    <path inkscape:connector-curvature="0" d="m 35.895618,40.807314 76.009422,1.200437 m -70.79007,-15.224214 62.32269,0 8.64356,15.214951 -1.46015,9.397341 -74.310591,-0.400146 C 34.936592,41.509257 37.204706,35.140245 41.11497,26.783537 z" style="fill:#333333;fill-opacity:1;stroke:none;display:inline" id="path4102" sodipodi:nodetypes="cccccccc"/>
    <path sodipodi:nodetypes="cccc" inkscape:connector-curvature="0" id="path4129" d="m 67.674658,49.152717 36.051372,0 -0.0749,-1.688645 c -6.383167,1.042593 -24.922447,1.425726 -35.976472,1.688645 z" style="fill:#aaccee;fill-opacity:1;stroke:none;display:inline"/>
    <path id="path3111" style="fill:none;stroke:#000000;stroke-width:2;stroke-linecap:butt;stroke-linejoin:miter;stroke-miterlimit:4;stroke-opacity:1;stroke-dasharray:none" d="m 35.897037,38.209241 5.317241,-11.425704 62.223382,0 7.69322,13.014149 c 0.18438,1.533869 -1.11347,2.300576 -3.62599,2.210102 l -69.810074,0 c -3.092501,-0.612343 -1.848381,-2.786784 -1.597345,-4.417313 m -0.400146,2.100728 0,8.002951 c 0.02517,2.227576 0.459242,3.8009 1.813591,3.901785 l 70.809324,0 c 3.09488,0.02134 2.59362,-0.954059 2.90459,-2.601349 l 0,-8.603132" inkscape:connector-curvature="0" sodipodi:nodetypes="ccccccccccccc"/>
    <path style="fill:#666666;stroke:#666666;stroke-width:0.96308678px;stroke-linecap:butt;stroke-linejoin:miter;stroke-opacity:1" d="m 43.888035,29.886904 c 19.052345,-0.786243 38.10469,-0.814239 57.157035,0" id="path4662" inkscape:connector-curvature="0" sodipodi:nodetypes="cc"/>
    <path style="fill:#666666;stroke:#666666;stroke-width:1.02149439px;stroke-linecap:butt;stroke-linejoin:miter;stroke-opacity:1;display:inline" d="m 40.831083,37.990584 c 21.674163,-1.110861 43.158147,-1.286756 64.299977,0" id="path4662-9" inkscape:connector-curvature="0" sodipodi:nodetypes="cc"/>
  </g>
  <metadata>
    <rdf:RDF>
      <cc:Work>
        <dc:format>image/svg+xml</dc:format>
        <dc:type rdf:resource="http://purl.org/dc/dcmitype/StillImage"/>
        <cc:license rdf:resource="http://creativecommons.org/licenses/publicdomain/"/>
        <dc:publisher>
          <cc:Agent rdf:about="http://openclipart.org/">
            <dc:title>Open Clip Art Library</dc:title>
          </cc:Agent>
        </dc:publisher>
        <dc:title>Wireless Router</dc:title>
        <dc:date>2011-03-24T12:01:45</dc:date>
        <dc:description>A popular, branded wireless router for a computer network.</dc:description>
        <dc:source>http://openclipart.org/detail/129085/wireless-router-by-lalitpatanpur-129085</dc:source>
        <dc:creator>
          <cc:Agent>
            <dc:title>Lalitpatanpur</dc:title>
          </cc:Agent>
        </dc:creator>
        <dc:subject>
          <rdf:Bag>
            <rdf:li>CAT5</rdf:li>
            <rdf:li>clip art</rdf:li>
            <rdf:li>clipart</rdf:li>
            <rdf:li>computer</rdf:li>
            <rdf:li>network</rdf:li>
            <rdf:li>networking</rdf:li>
            <rdf:li>wireless</rdf:li>
            <rdf:li>wireless router</rdf:li>
          </rdf:Bag>
        </dc:subject>
      </cc:Work>
      <cc:License rdf:about="http://creativecommons.org/licenses/publicdomain/">
        <cc:permits rdf:resource="http://creativecommons.org/ns#Reproduction"/>
        <cc:permits rdf:resource="http://creativecommons.org/ns#Distribution"/>
        <cc:permits rdf:resource="http://creativecommons.org/ns#DerivativeWorks"/>
      </cc:License>
    </rdf:RDF>
  </metadata>
</svg>
